<?xml version="1.0" standalone="no"?>
<!DOCTYPE svg PUBLIC "-//W3C//DTD SVG 1.1//EN" "http://www.w3.org/Graphics/SVG/1.1/DTD/svg11.dtd" >
<svg xmlns="http://www.w3.org/2000/svg" xmlns:xlink="http://www.w3.org/1999/xlink" version="1.1">
<metadata>
Created by FontForge 20190801 at Fri Dec 29 00:21:19 2023
 By root
East Gates Personal Use Nathatype 2023 All Right Reserved
</metadata>
<defs>
<font id="EastGatesPersonalUse" horiz-adv-x="520" >
  <font-face 
    font-family="East Gates Personal Use"
    font-weight="400"
    font-stretch="normal"
    units-per-em="1000"
    panose-1="0 0 0 0 0 0 0 0 0 0"
    ascent="800"
    descent="-200"
    x-height="700"
    cap-height="700"
    bbox="-62 -221 1142 929"
    underline-thickness="50"
    underline-position="-150"
    unicode-range="U+0020-F005"
  />
<missing-glyph horiz-adv-x="250" 
 />
    <glyph glyph-name="dollar" unicode="EASTGATES" horiz-adv-x="1208" 
d="M347 362v-5h-209v5c29 0 31 12 31 66v181c0 54 -2 67 -31 67v4h204v-5s-34 3 -34 -89h-5l1 90h-68c-27 0 -28 -15 -28 -67v-88h6c34 0 35 21 34 146h6c0 -125 0 -146 34 -146v-5c-34 0 -34 -53 -34 -146h-6c1 93 0 146 -34 146h-6v-88c0 -54 2 -66 30 -66h71l-1 89h5
c0 -92 34 -89 34 -89zM424 362l-1 -5h-73l1 5c30 0 34 12 47 66c10 41 44 181 44 181c13 54 16 67 -14 67l1 4h107l1 -4c-29 0 -27 -13 -14 -67c0 0 34 -140 44 -181c13 -54 17 -66 47 -66l1 -5h-101l-1 5c30 0 28 12 15 66l-5 19h-14c-33 0 -37 -12 -37 -79h-6
c1 68 -1 79 -36 79h-15l-5 -19c-13 -54 -15 -66 14 -66zM483 609c-4 18 -7 32 -11 41c0 -185 4 -198 36 -198h14zM454 609l-38 -157h16c33 0 34 12 34 201c-3 -10 -7 -25 -12 -44zM734 357c-49 0 -78 16 -89 30h-22v4s34 -2 34 89h5v-47c0 -42 27 -71 72 -71
c59 0 65 19 65 78v25c-37 10 -164 54 -164 136c0 58 44 79 105 79c35 0 65 -15 75 -29h26v-5s-34 3 -34 -89h-22c-33 0 -34 -17 -34 -53h-5c0 34 -3 53 -36 53h-18v5h17c34 0 37 22 37 99h5c0 -78 1 -99 34 -99h17v43c-1 41 -28 70 -61 70c-48 0 -65 -33 -65 -77
c0 -108 165 -136 165 -136v-25c0 -58 -36 -80 -107 -80zM910 362c30 0 31 12 31 66c0 80 17 96 17 143c0 39 -4 54 -34 54h-37v-39h-6c0 92 -34 89 -34 89v5h226v-5s-34 3 -34 -89h-5v39h-36c-31 0 -35 -15 -35 -54c0 -47 18 -65 18 -143c0 -54 0 -66 30 -66v-5h-101v5z
M1034 676h-69c0 -4 0 -46 33 -46h36v46zM924 630c33 0 33 42 33 46h-71l1 -46c9 -1 37 -1 37 0zM199 185h-5v48c0 36 -28 70 -60 70c-66 0 -81 -68 -81 -121c0 -125 45 -192 107 -192h9l-1 154h-11c-34 0 -33 -6 -33 -131h-5c-1 125 -1 131 -34 131v5c33 0 34 6 34 132h5
c0 -126 -1 -132 33 -132h16l1 -70c0 -92 34 -89 34 -89v-5h-47c-44 0 -150 18 -150 193c0 94 60 130 121 130c35 0 58 -15 68 -29h33v-5s-34 3 -34 -89zM445 56c13 -53 17 -66 47 -66l1 -5h-101l-1 5c30 0 27 13 15 66l-5 19h-14c-33 0 -37 -12 -37 -78h-6
c1 67 -2 78 -36 78h-15l-5 -19c-13 -53 -15 -66 14 -66l-1 -5h-73l1 5c30 0 34 13 47 66c10 41 44 181 44 181c13 54 15 67 -14 67l1 4h107l1 -4c-29 0 -27 -13 -14 -67c0 0 34 -140 44 -181zM310 80c33 0 34 12 34 201c-3 -10 -7 -25 -12 -44l-38 -157h16zM386 80h14
l-39 157c-4 18 -8 32 -11 41c0 -185 3 -198 36 -198zM456 303v5h225v-5s-34 3 -34 -89h-4v39h-36c-31 0 -35 -15 -35 -54c0 -47 17 -65 17 -143c0 -53 1 -66 31 -66v-5h-101v5c29 0 31 13 31 66c0 80 17 96 17 143c0 39 -4 54 -34 54h-38v-39h-5c0 92 -34 89 -34 89z
M643 304h-69c0 -4 0 -46 33 -46h36v46zM565 304h-70v-46c10 -1 38 -1 38 0c32 0 33 42 32 46zM876 79c0 -92 34 -88 34 -88v-6h-210v5c30 0 31 13 31 66v181c0 54 -1 67 -31 67v4h205v-5s-34 3 -34 -89h-5v90h-67c-27 0 -29 -14 -29 -67v-88h7c34 0 34 21 34 147h5
c0 -126 1 -147 35 -147v-5c-34 0 -34 -53 -35 -146h-5c0 93 0 146 -34 146h-7v-88c0 -53 2 -66 31 -66h70v89h5zM1086 190h17v43c0 41 -28 70 -60 70c-48 0 -65 -33 -65 -77c0 -108 164 -135 164 -135v-26c0 -58 -36 -80 -107 -80c-49 0 -78 16 -89 30h-22v5s34 -3 34 88h5
v-47c0 -41 27 -70 72 -70c59 0 66 18 66 77v25c-38 10 -165 54 -165 136c0 58 44 79 105 79c35 0 65 -15 75 -29h26v-5s-34 4 -34 -89h-22c-33 0 -34 -17 -34 -53h-5c0 34 -2 53 -36 53h-18v5h17c35 0 37 22 37 99h5c0 -78 1 -99 34 -99z" />
    <glyph glyph-name=".notdef" horiz-adv-x="250" 
 />
    <glyph glyph-name=".null" horiz-adv-x="0" 
 />
    <glyph glyph-name=".null" horiz-adv-x="0" 
 />
    <glyph glyph-name="nonmarkingreturn" horiz-adv-x="250" 
 />
    <glyph glyph-name="space" unicode=" " horiz-adv-x="250" 
 />
    <glyph glyph-name="exclam" unicode="!" horiz-adv-x="295" 
d="M257 692c-64 0 -67 -28 -67 -146c0 -88 -43 -391 21 -391v-9h-127v9c64 0 21 303 21 391c0 118 -3 146 -67 146v8h219v-8zM146 125c34 0 62 -28 62 -62c0 -35 -28 -63 -62 -63c-35 0 -63 28 -63 63c0 34 28 62 63 62z" />
    <glyph glyph-name="quotedbl" unicode="&#x22;" horiz-adv-x="180" 
d="M36 598v103h49v-9c0 -37 -40 -23 -40 -94h-9zM98 701h49v-9c0 -37 -41 -23 -41 -94h-8v103z" />
    <glyph glyph-name="numbersign" unicode="#" horiz-adv-x="350" 
d="M264 582h45c1 0 0 -1 0 -1l-1 -1c0 -2 -1 -4 -2 -5c-2 -5 -4 -9 -6 -14c-5 -14 -11 -29 -17 -43c-7 -20 -14 -39 -21 -59c-8 -23 -16 -47 -23 -71v-1h57v-11h-60c-3 -9 -5 -18 -7 -27l-6 -24v-1h73v-11h-76c-9 -42 -15 -86 -17 -129c0 -14 0 -28 1 -43c0 -4 0 -9 1 -14
v-7h-45l43 193h-74c-9 -43 -17 -85 -17 -129c-1 -14 -1 -28 0 -43c0 -4 1 -9 1 -14v-5l1 -2h-46l44 193h-72v11h74l12 52h-86v11h88l44 195h46l-1 -1v-1c-1 -2 -2 -4 -2 -5c-25 -62 -48 -123 -67 -187l-1 -1h73zM206 324l11 52h-73c-2 -9 -5 -18 -7 -27l-6 -24v-1h75z" />
    <glyph glyph-name="percent" unicode="%" horiz-adv-x="964" 
d="M29 642h19c11 0 18 -6 18 -16s-7 -16 -18 -16h-9v-11h-10v43zM56 626c0 5 -3 8 -9 8h-8v-15h8c6 0 9 2 9 7zM119 634h-22v-10h19v-8h-19v-9h22v-8h-32v43h32v-8zM178 626c0 -7 -3 -11 -9 -13l9 -14h-10l-8 12h-9v-12h-9v43h18c11 0 18 -6 18 -16zM159 619c6 0 9 2 9 7
s-3 8 -9 8h-8v-15h8zM214 606c5 0 8 2 8 4c0 9 -24 3 -24 19c0 7 5 13 17 13c6 0 11 -1 15 -3l-3 -8c-4 2 -8 3 -12 3c-6 0 -8 -2 -8 -4c0 -8 25 -3 25 -19c0 -7 -6 -13 -19 -13c-6 0 -13 2 -16 5l3 7c3 -2 9 -4 14 -4zM250 620c0 13 10 22 23 22s23 -9 23 -22
s-10 -22 -23 -22s-23 9 -23 22zM286 620c0 8 -6 14 -13 14c-8 0 -13 -6 -13 -14s5 -13 13 -13c7 0 13 5 13 13zM326 642l21 -26v26h9v-43h-8l-21 26v-26h-9v43h8zM375 599l19 43h9l19 -43h-10l-4 9h-20l-3 -9h-10zM405 616l-7 16l-6 -16h13zM441 642h9v-35h21v-8h-30v43z
M522 642h10v-24c0 -8 3 -11 9 -11s9 3 9 11v24h10v-25c0 -12 -7 -19 -19 -19s-19 7 -19 19v25zM598 606c6 0 8 2 8 4c0 9 -24 3 -24 19c0 7 5 13 17 13c6 0 11 -1 15 -3l-3 -8c-4 2 -8 3 -12 3c-5 0 -8 -2 -8 -4c0 -8 24 -3 24 -19c0 -7 -5 -13 -17 -13c-7 0 -13 2 -17 5
l3 7c4 -2 9 -4 14 -4zM669 634h-23v-10h20v-8h-20v-9h23v-8h-32v43h32v-8zM720 620c0 13 10 22 23 22s23 -9 23 -22s-10 -22 -23 -22s-23 9 -23 22zM756 620c0 8 -6 14 -13 14c-8 0 -13 -6 -13 -14s5 -13 13 -13c7 0 13 5 13 13zM796 642l21 -26v26h9v-43h-8l-21 26v-26h-9
v43h8zM851 642h9v-35h21v-8h-30v43zM917 599h-10v15l-16 28h10l12 -20l10 20h10l-16 -28v-15zM37 138v-1h-11l-2 -10h-1l4 22h14l-1 -2h-12l-1 -9h10zM43 133c0 6 4 10 9 10c4 0 7 -2 7 -6c0 -6 -4 -10 -9 -10s-7 3 -7 6zM57 137c0 3 -2 5 -6 5s-7 -4 -7 -9c0 -3 3 -4 6 -4
c4 0 7 3 7 8zM67 143h1v-3c1 2 3 3 6 3v-2v0c-4 0 -6 -1 -7 -6l-2 -8h-1zM101 147c-6 0 -10 -5 -10 -11c0 -4 2 -7 7 -7c3 0 6 0 7 2l1 -1c-2 -2 -5 -3 -8 -3c-6 0 -9 3 -9 9c0 7 5 13 12 13c3 0 6 -2 8 -3l-2 -2c-1 2 -3 3 -6 3zM127 137c0 -6 -4 -10 -9 -10
c-4 0 -7 3 -7 6c0 6 4 10 9 10c4 0 7 -2 7 -6zM118 129c4 0 7 3 7 8c0 3 -2 5 -5 5c-4 0 -7 -4 -7 -9c0 -3 2 -4 5 -4zM135 143h2l-1 -3c2 2 4 3 6 3c3 0 5 -1 5 -3c2 2 4 3 7 3s5 -2 5 -5v-1l-2 -10h-1l2 10v1c0 2 -2 4 -4 4c-4 0 -6 -2 -7 -6l-2 -9h-1l2 10v1
c0 2 -1 4 -4 4s-6 -2 -7 -6l-1 -9h-2zM188 143c3 0 5 -2 5 -5v-1l-2 -10h-1l2 10v1c0 2 -1 4 -4 4s-6 -2 -7 -6l-1 -9h-2l2 10v1c0 2 -2 4 -5 4s-5 -2 -6 -6l-1 -9h-2l3 16h2l-1 -3c1 2 4 3 6 3c3 0 5 -1 6 -3c1 2 3 3 6 3zM215 135h-14v-2c0 -3 2 -4 6 -4c2 0 4 0 5 1l1 -1
c-1 -1 -4 -2 -6 -2c-4 0 -7 2 -7 6c0 6 3 10 8 10c4 0 7 -2 7 -6v-2zM208 142c-3 0 -6 -2 -7 -6h12v1c0 3 -2 5 -5 5zM223 143h2l-1 -3c2 2 3 3 6 3v-2v0c-4 0 -6 -1 -7 -6l-1 -8h-2zM242 142c-4 0 -7 -4 -7 -9c0 -3 3 -4 6 -4c2 0 4 0 5 1h1c-2 -2 -4 -3 -6 -3
c-5 0 -7 3 -7 6c0 6 4 10 8 10c3 0 5 -1 6 -3h-1c-1 1 -2 2 -5 2zM259 148c0 -1 0 -1 -2 -1c0 0 -1 0 -1 1s1 1 2 1s1 0 1 -1zM253 127l3 16h1l-3 -16h-1zM277 127h-1v3c-1 -2 -3 -3 -6 -3c-4 0 -7 2 -7 6c0 6 3 10 9 10c3 0 5 -2 6 -4l1 4h1zM270 129c4 0 7 3 7 8
c0 3 -2 5 -5 5c-4 0 -7 -4 -7 -9c0 -3 1 -4 5 -4zM287 127h-1l4 23h2zM295 123h-1l1 4v1c0 1 0 2 1 2s1 -1 1 -1v-2zM324 134h-6l-1 -7h-2l5 22h7c4 0 7 -3 7 -6c0 -6 -4 -9 -10 -9zM321 147l-3 -12h6c5 0 8 3 8 8c0 3 -2 4 -5 4h-6zM340 127h-2l5 23h1zM363 135h-13v-2
c0 -3 2 -4 6 -4c2 0 4 0 5 1l1 -1c-2 -1 -4 -2 -6 -2c-5 0 -8 2 -8 6c0 6 4 10 9 10c4 0 7 -2 7 -6c0 -1 0 -2 -1 -2zM357 142c-4 0 -6 -2 -7 -6h12v1c0 3 -2 5 -5 5zM384 143h2l-3 -16h-2l1 3c-2 -2 -4 -3 -6 -3c-5 0 -7 2 -7 6c0 6 4 10 8 10c3 0 6 -2 6 -4zM376 129
c4 0 7 3 7 8c0 3 -2 5 -6 5s-7 -4 -7 -9c0 -3 2 -4 6 -4zM395 129c4 0 6 1 6 3c0 4 -9 1 -9 6c0 3 2 5 6 5c2 0 4 0 5 -2v-1c-1 1 -3 2 -5 2c-3 0 -5 -2 -5 -4c0 -4 9 -1 9 -6c0 -3 -2 -5 -7 -5c-2 0 -4 1 -6 2l2 1c1 -1 3 -1 4 -1zM423 135h-14v-2c0 -3 2 -4 6 -4
c2 0 4 0 5 1l1 -1c-1 -1 -4 -2 -6 -2c-4 0 -7 2 -7 6c0 6 3 10 8 10c4 0 7 -2 7 -6v-2zM416 142c-3 0 -5 -2 -7 -6h12v1c0 3 -2 5 -5 5zM446 127h-1l-6 22h2l5 -20l12 20h1zM467 148c0 -1 -1 -1 -2 -1c0 0 -1 0 -1 1s1 1 1 1c1 0 2 0 2 -1zM461 127l3 16h1l-3 -16h-1z
M478 142c-3 0 -5 -2 -5 -4c0 -4 9 -1 9 -6c0 -3 -3 -5 -7 -5c-2 0 -5 1 -6 2l1 1c1 -1 3 -1 6 -1s4 1 4 3c0 4 -9 1 -9 6c0 3 3 5 7 5c2 0 4 0 5 -2l-1 -1c-1 1 -3 2 -4 2zM488 127l3 16h2l-4 -16h-1zM494 148c0 -1 -1 -1 -1 -1c-1 0 -2 0 -2 1s1 1 2 1c0 0 1 0 1 -1z
M502 146h1v-3h5v-2h-5l-2 -9c-1 -1 -1 -1 -1 -2s2 -2 3 -2s2 1 2 1l1 -1c-1 -1 -2 -1 -3 -1c-3 0 -4 1 -4 3v2l2 9h-2v2h3v3zM942 573v-3h-913v3h913zM942 671v-3h-913v3h913zM942 681v-2h-913v2h913zM30 25v2h913v-2h-913zM30 36v2h913v-2h-913zM517 135h426v-2h-426v2z
M603 212c-2 0 -4 -3 -4 -7s2 -7 4 -7s3 -2 2 -4c-2 -2 -6 -3 -11 -3c-8 0 -9 1 -7 10c1 7 0 11 -3 15c-4 2 -7 9 -7 15c0 8 2 10 8 10s6 -1 5 -10c-2 -11 -2 -12 4 -11s7 5 7 24c-1 19 1 22 5 20c5 -1 6 -5 6 -18c0 -20 -4 -34 -9 -34zM569 255c-5 -2 -6 -7 -6 -27
c0 -15 2 -27 4 -28c6 -4 3 -9 -5 -9s-8 0 -7 31c1 30 1 31 -6 29c-6 -2 -8 -1 -8 5s2 8 16 8c9 0 19 0 22 1c5 2 6 0 6 -7c0 -9 -6 -13 -8 -5c-1 3 -4 3 -8 2zM643 218c-10 -6 -15 -20 -7 -20c2 0 3 -2 2 -4s-6 -3 -9 -3c-6 0 -8 3 -8 36l-1 37h13c15 0 25 -8 25 -21
s-4 -20 -15 -25zM631 235c3 -12 8 -15 15 -7c10 10 3 28 -11 28c-7 0 -7 -4 -4 -21zM722 283c-10 4 -20 11 -23 16c-7 10 -11 10 -14 1c-1 -4 -7 -10 -13 -13c-13 -6 -35 -2 -45 9c-5 6 -8 6 -13 4c-12 -7 -26 -4 -37 7c-9 10 -10 13 -10 36c0 20 -2 26 -5 26
c-8 0 -13 -17 -13 -40c0 -21 -3 -27 -17 -30c-5 0 -8 -5 -9 -12c-6 -27 -21 -38 -43 -31c-13 5 -29 22 -32 35c-2 7 -4 8 -16 6c-12 -1 -17 0 -24 7l-10 8l-7 -9c-5 -8 -10 -10 -20 -10h-12v-20c0 -25 -9 -39 -27 -39c-7 0 -17 4 -22 8c-6 4 -12 15 -15 26
c-6 19 -6 30 -4 170c0 18 -1 32 -3 33c-5 2 -19 -27 -24 -49c-2 -10 -5 -47 -6 -82l-2 -63l-15 2c-8 1 -16 4 -19 6c-2 3 -4 26 -6 59c-2 60 -6 76 -17 76c-20 0 -40 -34 -40 -67c0 -23 7 -34 25 -37c26 -5 0 -15 -28 -11c-12 2 -20 6 -29 15c-12 12 -13 14 -12 36
c2 27 12 44 34 58c26 18 65 16 84 -3c9 -9 13 -6 13 9c0 3 2 14 5 24c14 45 51 52 70 14c6 -13 7 -22 6 -102c-1 -92 0 -107 9 -107c12 0 16 40 5 59c-14 22 -7 58 12 70c7 5 14 6 26 5c9 -1 16 -1 16 1c0 5 11 6 23 3l14 -3l1 -36c1 -56 8 -43 11 23c1 32 1 59 0 60
c0 0 -12 2 -26 3c-20 1 -29 0 -43 -6c-20 -9 -39 -8 -31 1c9 10 43 18 67 15c13 -1 26 -3 30 -4c8 -2 9 0 13 22c5 25 7 27 28 22c8 -3 8 -4 6 -30l-3 -26h10c8 0 9 1 11 14c7 45 45 76 79 66c17 -5 26 -15 28 -33c2 -20 -8 -37 -32 -49c-11 -5 -24 -9 -29 -9
c-9 0 -10 -2 -11 -16c-1 -8 -1 -20 0 -27v-11l11 10c9 9 13 11 21 9c19 -4 27 -16 31 -47c5 -35 12 -35 14 0c2 22 3 25 14 35c11 9 14 11 27 9c8 -1 18 -3 21 -4c4 -2 7 0 8 5c2 8 11 10 26 4l10 -4l-3 -36c-2 -31 -1 -38 4 -46c11 -17 29 -11 45 16c7 12 9 21 10 37
c0 24 -7 34 -25 39s-14 10 11 11c51 3 75 -40 46 -85c-12 -19 -28 -30 -53 -35c-18 -3 -22 -3 -37 2zM551 464c-13 -39 -12 -42 11 -30c25 13 37 35 29 56c-7 23 -29 9 -40 -26zM386 318c6 12 8 49 2 53c-11 7 -21 -19 -17 -48c3 -18 8 -20 15 -5zM496 275
c10 -15 13 -5 11 30c-1 18 -4 50 -5 71s-3 40 -6 41c-12 8 -13 3 -13 -41c0 -50 5 -88 13 -101zM672 303c7 13 9 49 3 57c-5 7 -5 7 -11 -3c-8 -11 -11 -31 -8 -48c2 -14 10 -17 16 -6zM697 252c-16 7 -25 4 -25 -8c0 -10 9 -13 13 -6c4 6 9 3 9 -6c0 -7 -1 -8 -10 -6
c-11 2 -12 2 -12 -11c0 -12 1 -13 9 -13c4 0 10 1 12 3c3 3 4 2 6 -3c1 -6 0 -8 -9 -8c-7 0 -15 -1 -20 -2c-6 -2 -7 0 -7 35v37h11c6 0 15 0 19 1c7 3 9 2 7 -6c0 -4 -2 -8 -3 -7zM84 58h-7l-12 39h8l5 -20c1 -4 2 -9 3 -13c1 4 3 9 4 13l7 20h6l6 -20c1 -4 2 -9 3 -13
c1 4 2 9 3 13l6 20h7l-13 -39h-6l-6 19c-1 4 -3 8 -4 12c-1 -4 -2 -8 -3 -13zM154 58h-7l-12 39h8l5 -20c1 -4 2 -9 3 -13c1 4 2 9 4 13l6 20h6l7 -20c1 -4 2 -9 3 -13c1 4 2 9 3 13l6 20h7l-13 -39h-6l-6 19c-2 4 -3 8 -4 12c-1 -4 -2 -8 -4 -13zM224 58h-7l-12 39h7l6 -20
c1 -4 2 -9 3 -13c1 4 2 9 3 13l7 20h6l6 -20c2 -4 3 -9 4 -13c1 4 2 9 3 13l6 20h7l-13 -39h-6l-6 19c-2 4 -3 8 -4 12c-1 -4 -2 -8 -4 -13zM279 57c-3 0 -5 2 -5 5s2 5 5 5c2 0 4 -2 4 -5s-1 -5 -4 -5zM335 58h-8v22c0 7 -2 13 -9 13c-5 0 -9 -4 -10 -8c0 -1 -1 -2 -1 -3
v-24h-7v28v11h6l1 -6c2 3 7 8 13 8s15 -4 15 -18v-23zM351 68c0 9 9 15 24 15c0 4 -1 10 -9 10c-4 0 -7 -1 -10 -3l-2 5c4 2 8 4 13 4c12 0 15 -9 15 -17v-15c0 -3 0 -6 1 -9h-7v4c-3 -3 -7 -5 -12 -5c-9 0 -13 5 -13 11zM376 78c-9 0 -17 -1 -17 -9c0 -5 3 -7 6 -7
c5 0 9 3 10 6c0 2 1 2 1 3v7zM421 92h-10v-22c0 -5 1 -8 5 -8c2 0 4 1 4 1l1 -5c-2 -1 -4 -1 -7 -1s-6 1 -8 3c-1 2 -3 5 -3 10v22h-6v5h6v10l8 2v-12h10v-5zM471 58h-7v22c0 7 -2 13 -9 13c-5 0 -8 -4 -10 -8v-3v-24h-8v58h8v-25c1 2 3 4 5 5s5 3 8 3c5 0 13 -4 13 -18v-23
zM504 99c12 0 15 -9 15 -17v-15c0 -3 1 -6 1 -9h-6l-1 4h-1c-2 -3 -6 -5 -12 -5c-7 0 -12 5 -12 11c0 9 9 15 24 15c0 4 -1 10 -9 10c-4 0 -7 -1 -10 -3l-2 5c3 2 8 4 13 4zM512 71v7c-7 0 -16 -1 -16 -9c0 -5 3 -7 6 -7c6 0 9 3 10 6v3zM541 107l6 2v-12h11v-5h-11v-22
c0 -5 2 -8 6 -8c2 0 3 1 4 1l1 -5c-2 -1 -4 -1 -7 -1s-6 1 -8 3s-2 5 -2 10v22h-7v5h7v10zM578 49c3 1 5 4 6 8c1 1 1 1 1 2v2l-15 36h7l10 -23c0 -3 1 -6 2 -8c1 2 2 5 2 8l9 23h7l-11 -28c-5 -14 -8 -20 -13 -25c-4 -3 -7 -5 -9 -5l-2 6c2 1 4 2 6 4zM629 41h-7v44
c0 4 0 9 -1 12h7l1 -6c3 5 8 8 14 8c9 0 16 -9 16 -21c0 -14 -8 -21 -18 -21c-4 0 -9 2 -12 6v-22zM629 80v-6v-3c2 -5 6 -9 11 -9c8 0 12 6 12 15s-4 16 -11 16c-5 0 -10 -4 -11 -10c-1 0 -1 -1 -1 -3zM709 79v-3h-28c0 -9 7 -14 14 -14c5 0 8 1 11 2l1 -5
c-2 -1 -7 -2 -13 -2c-12 0 -20 8 -20 20s7 22 19 22c13 0 16 -12 16 -20zM681 81h21c0 5 -2 12 -10 12c-7 0 -10 -7 -11 -12zM734 62c0 -3 -2 -5 -5 -5s-5 2 -5 5s2 5 5 5s5 -2 5 -5zM769 93c-9 0 -14 -7 -14 -16s6 -15 14 -15c4 0 7 2 9 2l1 -5c-1 -1 -6 -2 -11 -2
c-12 0 -20 8 -20 20s8 21 21 21c4 0 9 -1 10 -2l-1 -5c-2 0 -5 2 -9 2zM831 78c0 -15 -10 -21 -20 -21s-18 8 -18 20c0 14 8 22 20 22c11 0 18 -9 18 -21zM800 77c0 -9 5 -15 12 -15s12 6 12 15c0 7 -4 16 -12 16s-12 -8 -12 -16zM906 58h-7v22c0 8 -3 13 -9 13
c-4 0 -8 -4 -9 -7v-4v-24h-7v24c0 6 -3 11 -8 11s-8 -4 -9 -8c-1 -1 -1 -2 -1 -3v-24h-7v28v11h6v-6c3 4 6 8 13 8c5 0 10 -4 11 -9c2 3 3 4 5 6c2 1 5 3 9 3c5 0 13 -4 13 -18v-23z" />
    <glyph glyph-name="ampersand" unicode="&#x26;" horiz-adv-x="964" 
d="M29 642h19c11 0 18 -6 18 -16s-7 -16 -18 -16h-9v-11h-10v43zM56 626c0 5 -3 8 -9 8h-8v-15h8c6 0 9 2 9 7zM119 634h-22v-10h19v-8h-19v-9h22v-8h-32v43h32v-8zM178 626c0 -7 -3 -11 -9 -13l9 -14h-10l-8 12h-9v-12h-9v43h18c11 0 18 -6 18 -16zM159 619c6 0 9 2 9 7
s-3 8 -9 8h-8v-15h8zM214 606c5 0 8 2 8 4c0 9 -24 3 -24 19c0 7 5 13 17 13c6 0 11 -1 15 -3l-3 -8c-4 2 -8 3 -12 3c-6 0 -8 -2 -8 -4c0 -8 25 -3 25 -19c0 -7 -6 -13 -19 -13c-6 0 -13 2 -16 5l3 7c3 -2 9 -4 14 -4zM250 620c0 13 10 22 23 22s23 -9 23 -22
s-10 -22 -23 -22s-23 9 -23 22zM286 620c0 8 -6 14 -13 14c-8 0 -13 -6 -13 -14s5 -13 13 -13c7 0 13 5 13 13zM326 642l21 -26v26h9v-43h-8l-21 26v-26h-9v43h8zM375 599l19 43h9l19 -43h-10l-4 9h-20l-3 -9h-10zM405 616l-7 16l-6 -16h13zM441 642h9v-35h21v-8h-30v43z
M522 642h10v-24c0 -8 3 -11 9 -11s9 3 9 11v24h10v-25c0 -12 -7 -19 -19 -19s-19 7 -19 19v25zM598 606c6 0 8 2 8 4c0 9 -24 3 -24 19c0 7 5 13 17 13c6 0 11 -1 15 -3l-3 -8c-4 2 -8 3 -12 3c-5 0 -8 -2 -8 -4c0 -8 24 -3 24 -19c0 -7 -5 -13 -17 -13c-7 0 -13 2 -17 5
l3 7c4 -2 9 -4 14 -4zM669 634h-23v-10h20v-8h-20v-9h23v-8h-32v43h32v-8zM720 620c0 13 10 22 23 22s23 -9 23 -22s-10 -22 -23 -22s-23 9 -23 22zM756 620c0 8 -6 14 -13 14c-8 0 -13 -6 -13 -14s5 -13 13 -13c7 0 13 5 13 13zM796 642l21 -26v26h9v-43h-8l-21 26v-26h-9
v43h8zM851 642h9v-35h21v-8h-30v43zM917 599h-10v15l-16 28h10l12 -20l10 20h10l-16 -28v-15zM37 138v-1h-11l-2 -10h-1l4 22h14l-1 -2h-12l-1 -9h10zM43 133c0 6 4 10 9 10c4 0 7 -2 7 -6c0 -6 -4 -10 -9 -10s-7 3 -7 6zM57 137c0 3 -2 5 -6 5s-7 -4 -7 -9c0 -3 3 -4 6 -4
c4 0 7 3 7 8zM67 143h1v-3c1 2 3 3 6 3v-2v0c-4 0 -6 -1 -7 -6l-2 -8h-1zM101 147c-6 0 -10 -5 -10 -11c0 -4 2 -7 7 -7c3 0 6 0 7 2l1 -1c-2 -2 -5 -3 -8 -3c-6 0 -9 3 -9 9c0 7 5 13 12 13c3 0 6 -2 8 -3l-2 -2c-1 2 -3 3 -6 3zM127 137c0 -6 -4 -10 -9 -10
c-4 0 -7 3 -7 6c0 6 4 10 9 10c4 0 7 -2 7 -6zM118 129c4 0 7 3 7 8c0 3 -2 5 -5 5c-4 0 -7 -4 -7 -9c0 -3 2 -4 5 -4zM135 143h2l-1 -3c2 2 4 3 6 3c3 0 5 -1 5 -3c2 2 4 3 7 3s5 -2 5 -5v-1l-2 -10h-1l2 10v1c0 2 -2 4 -4 4c-4 0 -6 -2 -7 -6l-2 -9h-1l2 10v1
c0 2 -1 4 -4 4s-6 -2 -7 -6l-1 -9h-2zM188 143c3 0 5 -2 5 -5v-1l-2 -10h-1l2 10v1c0 2 -1 4 -4 4s-6 -2 -7 -6l-1 -9h-2l2 10v1c0 2 -2 4 -5 4s-5 -2 -6 -6l-1 -9h-2l3 16h2l-1 -3c1 2 4 3 6 3c3 0 5 -1 6 -3c1 2 3 3 6 3zM215 135h-14v-2c0 -3 2 -4 6 -4c2 0 4 0 5 1l1 -1
c-1 -1 -4 -2 -6 -2c-4 0 -7 2 -7 6c0 6 3 10 8 10c4 0 7 -2 7 -6v-2zM208 142c-3 0 -6 -2 -7 -6h12v1c0 3 -2 5 -5 5zM223 143h2l-1 -3c2 2 3 3 6 3v-2v0c-4 0 -6 -1 -7 -6l-1 -8h-2zM242 142c-4 0 -7 -4 -7 -9c0 -3 3 -4 6 -4c2 0 4 0 5 1h1c-2 -2 -4 -3 -6 -3
c-5 0 -7 3 -7 6c0 6 4 10 8 10c3 0 5 -1 6 -3h-1c-1 1 -2 2 -5 2zM259 148c0 -1 0 -1 -2 -1c0 0 -1 0 -1 1s1 1 2 1s1 0 1 -1zM253 127l3 16h1l-3 -16h-1zM277 127h-1v3c-1 -2 -3 -3 -6 -3c-4 0 -7 2 -7 6c0 6 3 10 9 10c3 0 5 -2 6 -4l1 4h1zM270 129c4 0 7 3 7 8
c0 3 -2 5 -5 5c-4 0 -7 -4 -7 -9c0 -3 1 -4 5 -4zM287 127h-1l4 23h2zM295 123h-1l1 4v1c0 1 0 2 1 2s1 -1 1 -1v-2zM324 134h-6l-1 -7h-2l5 22h7c4 0 7 -3 7 -6c0 -6 -4 -9 -10 -9zM321 147l-3 -12h6c5 0 8 3 8 8c0 3 -2 4 -5 4h-6zM340 127h-2l5 23h1zM363 135h-13v-2
c0 -3 2 -4 6 -4c2 0 4 0 5 1l1 -1c-2 -1 -4 -2 -6 -2c-5 0 -8 2 -8 6c0 6 4 10 9 10c4 0 7 -2 7 -6c0 -1 0 -2 -1 -2zM357 142c-4 0 -6 -2 -7 -6h12v1c0 3 -2 5 -5 5zM384 143h2l-3 -16h-2l1 3c-2 -2 -4 -3 -6 -3c-5 0 -7 2 -7 6c0 6 4 10 8 10c3 0 6 -2 6 -4zM376 129
c4 0 7 3 7 8c0 3 -2 5 -6 5s-7 -4 -7 -9c0 -3 2 -4 6 -4zM395 129c4 0 6 1 6 3c0 4 -9 1 -9 6c0 3 2 5 6 5c2 0 4 0 5 -2v-1c-1 1 -3 2 -5 2c-3 0 -5 -2 -5 -4c0 -4 9 -1 9 -6c0 -3 -2 -5 -7 -5c-2 0 -4 1 -6 2l2 1c1 -1 3 -1 4 -1zM423 135h-14v-2c0 -3 2 -4 6 -4
c2 0 4 0 5 1l1 -1c-1 -1 -4 -2 -6 -2c-4 0 -7 2 -7 6c0 6 3 10 8 10c4 0 7 -2 7 -6v-2zM416 142c-3 0 -5 -2 -7 -6h12v1c0 3 -2 5 -5 5zM446 127h-1l-6 22h2l5 -20l12 20h1zM467 148c0 -1 -1 -1 -2 -1c0 0 -1 0 -1 1s1 1 1 1c1 0 2 0 2 -1zM461 127l3 16h1l-3 -16h-1z
M478 142c-3 0 -5 -2 -5 -4c0 -4 9 -1 9 -6c0 -3 -3 -5 -7 -5c-2 0 -5 1 -6 2l1 1c1 -1 3 -1 6 -1s4 1 4 3c0 4 -9 1 -9 6c0 3 3 5 7 5c2 0 4 0 5 -2l-1 -1c-1 1 -3 2 -4 2zM488 127l3 16h2l-4 -16h-1zM494 148c0 -1 -1 -1 -1 -1c-1 0 -2 0 -2 1s1 1 2 1c0 0 1 0 1 -1z
M502 146h1v-3h5v-2h-5l-2 -9c-1 -1 -1 -1 -1 -2s2 -2 3 -2s2 1 2 1l1 -1c-1 -1 -2 -1 -3 -1c-3 0 -4 1 -4 3v2l2 9h-2v2h3v3zM942 573v-3h-913v3h913zM942 671v-3h-913v3h913zM942 681v-2h-913v2h913zM30 25v2h913v-2h-913zM30 36v2h913v-2h-913zM517 135h426v-2h-426v2z
M603 212c-2 0 -4 -3 -4 -7s2 -7 4 -7s3 -2 2 -4c-2 -2 -6 -3 -11 -3c-8 0 -9 1 -7 10c1 7 0 11 -3 15c-4 2 -7 9 -7 15c0 8 2 10 8 10s6 -1 5 -10c-2 -11 -2 -12 4 -11s7 5 7 24c-1 19 1 22 5 20c5 -1 6 -5 6 -18c0 -20 -4 -34 -9 -34zM569 255c-5 -2 -6 -7 -6 -27
c0 -15 2 -27 4 -28c6 -4 3 -9 -5 -9s-8 0 -7 31c1 30 1 31 -6 29c-6 -2 -8 -1 -8 5s2 8 16 8c9 0 19 0 22 1c5 2 6 0 6 -7c0 -9 -6 -13 -8 -5c-1 3 -4 3 -8 2zM643 218c-10 -6 -15 -20 -7 -20c2 0 3 -2 2 -4s-6 -3 -9 -3c-6 0 -8 3 -8 36l-1 37h13c15 0 25 -8 25 -21
s-4 -20 -15 -25zM631 235c3 -12 8 -15 15 -7c10 10 3 28 -11 28c-7 0 -7 -4 -4 -21zM722 283c-10 4 -20 11 -23 16c-7 10 -11 10 -14 1c-1 -4 -7 -10 -13 -13c-13 -6 -35 -2 -45 9c-5 6 -8 6 -13 4c-12 -7 -26 -4 -37 7c-9 10 -10 13 -10 36c0 20 -2 26 -5 26
c-8 0 -13 -17 -13 -40c0 -21 -3 -27 -17 -30c-5 0 -8 -5 -9 -12c-6 -27 -21 -38 -43 -31c-13 5 -29 22 -32 35c-2 7 -4 8 -16 6c-12 -1 -17 0 -24 7l-10 8l-7 -9c-5 -8 -10 -10 -20 -10h-12v-20c0 -25 -9 -39 -27 -39c-7 0 -17 4 -22 8c-6 4 -12 15 -15 26
c-6 19 -6 30 -4 170c0 18 -1 32 -3 33c-5 2 -19 -27 -24 -49c-2 -10 -5 -47 -6 -82l-2 -63l-15 2c-8 1 -16 4 -19 6c-2 3 -4 26 -6 59c-2 60 -6 76 -17 76c-20 0 -40 -34 -40 -67c0 -23 7 -34 25 -37c26 -5 0 -15 -28 -11c-12 2 -20 6 -29 15c-12 12 -13 14 -12 36
c2 27 12 44 34 58c26 18 65 16 84 -3c9 -9 13 -6 13 9c0 3 2 14 5 24c14 45 51 52 70 14c6 -13 7 -22 6 -102c-1 -92 0 -107 9 -107c12 0 16 40 5 59c-14 22 -7 58 12 70c7 5 14 6 26 5c9 -1 16 -1 16 1c0 5 11 6 23 3l14 -3l1 -36c1 -56 8 -43 11 23c1 32 1 59 0 60
c0 0 -12 2 -26 3c-20 1 -29 0 -43 -6c-20 -9 -39 -8 -31 1c9 10 43 18 67 15c13 -1 26 -3 30 -4c8 -2 9 0 13 22c5 25 7 27 28 22c8 -3 8 -4 6 -30l-3 -26h10c8 0 9 1 11 14c7 45 45 76 79 66c17 -5 26 -15 28 -33c2 -20 -8 -37 -32 -49c-11 -5 -24 -9 -29 -9
c-9 0 -10 -2 -11 -16c-1 -8 -1 -20 0 -27v-11l11 10c9 9 13 11 21 9c19 -4 27 -16 31 -47c5 -35 12 -35 14 0c2 22 3 25 14 35c11 9 14 11 27 9c8 -1 18 -3 21 -4c4 -2 7 0 8 5c2 8 11 10 26 4l10 -4l-3 -36c-2 -31 -1 -38 4 -46c11 -17 29 -11 45 16c7 12 9 21 10 37
c0 24 -7 34 -25 39s-14 10 11 11c51 3 75 -40 46 -85c-12 -19 -28 -30 -53 -35c-18 -3 -22 -3 -37 2zM551 464c-13 -39 -12 -42 11 -30c25 13 37 35 29 56c-7 23 -29 9 -40 -26zM386 318c6 12 8 49 2 53c-11 7 -21 -19 -17 -48c3 -18 8 -20 15 -5zM496 275
c10 -15 13 -5 11 30c-1 18 -4 50 -5 71s-3 40 -6 41c-12 8 -13 3 -13 -41c0 -50 5 -88 13 -101zM672 303c7 13 9 49 3 57c-5 7 -5 7 -11 -3c-8 -11 -11 -31 -8 -48c2 -14 10 -17 16 -6zM697 252c-16 7 -25 4 -25 -8c0 -10 9 -13 13 -6c4 6 9 3 9 -6c0 -7 -1 -8 -10 -6
c-11 2 -12 2 -12 -11c0 -12 1 -13 9 -13c4 0 10 1 12 3c3 3 4 2 6 -3c1 -6 0 -8 -9 -8c-7 0 -15 -1 -20 -2c-6 -2 -7 0 -7 35v37h11c6 0 15 0 19 1c7 3 9 2 7 -6c0 -4 -2 -8 -3 -7zM84 58h-7l-12 39h8l5 -20c1 -4 2 -9 3 -13c1 4 3 9 4 13l7 20h6l6 -20c1 -4 2 -9 3 -13
c1 4 2 9 3 13l6 20h7l-13 -39h-6l-6 19c-1 4 -3 8 -4 12c-1 -4 -2 -8 -3 -13zM154 58h-7l-12 39h8l5 -20c1 -4 2 -9 3 -13c1 4 2 9 4 13l6 20h6l7 -20c1 -4 2 -9 3 -13c1 4 2 9 3 13l6 20h7l-13 -39h-6l-6 19c-2 4 -3 8 -4 12c-1 -4 -2 -8 -4 -13zM224 58h-7l-12 39h7l6 -20
c1 -4 2 -9 3 -13c1 4 2 9 3 13l7 20h6l6 -20c2 -4 3 -9 4 -13c1 4 2 9 3 13l6 20h7l-13 -39h-6l-6 19c-2 4 -3 8 -4 12c-1 -4 -2 -8 -4 -13zM279 57c-3 0 -5 2 -5 5s2 5 5 5c2 0 4 -2 4 -5s-1 -5 -4 -5zM335 58h-8v22c0 7 -2 13 -9 13c-5 0 -9 -4 -10 -8c0 -1 -1 -2 -1 -3
v-24h-7v28v11h6l1 -6c2 3 7 8 13 8s15 -4 15 -18v-23zM351 68c0 9 9 15 24 15c0 4 -1 10 -9 10c-4 0 -7 -1 -10 -3l-2 5c4 2 8 4 13 4c12 0 15 -9 15 -17v-15c0 -3 0 -6 1 -9h-7v4c-3 -3 -7 -5 -12 -5c-9 0 -13 5 -13 11zM376 78c-9 0 -17 -1 -17 -9c0 -5 3 -7 6 -7
c5 0 9 3 10 6c0 2 1 2 1 3v7zM421 92h-10v-22c0 -5 1 -8 5 -8c2 0 4 1 4 1l1 -5c-2 -1 -4 -1 -7 -1s-6 1 -8 3c-1 2 -3 5 -3 10v22h-6v5h6v10l8 2v-12h10v-5zM471 58h-7v22c0 7 -2 13 -9 13c-5 0 -8 -4 -10 -8v-3v-24h-8v58h8v-25c1 2 3 4 5 5s5 3 8 3c5 0 13 -4 13 -18v-23
zM504 99c12 0 15 -9 15 -17v-15c0 -3 1 -6 1 -9h-6l-1 4h-1c-2 -3 -6 -5 -12 -5c-7 0 -12 5 -12 11c0 9 9 15 24 15c0 4 -1 10 -9 10c-4 0 -7 -1 -10 -3l-2 5c3 2 8 4 13 4zM512 71v7c-7 0 -16 -1 -16 -9c0 -5 3 -7 6 -7c6 0 9 3 10 6v3zM541 107l6 2v-12h11v-5h-11v-22
c0 -5 2 -8 6 -8c2 0 3 1 4 1l1 -5c-2 -1 -4 -1 -7 -1s-6 1 -8 3s-2 5 -2 10v22h-7v5h7v10zM578 49c3 1 5 4 6 8c1 1 1 1 1 2v2l-15 36h7l10 -23c0 -3 1 -6 2 -8c1 2 2 5 2 8l9 23h7l-11 -28c-5 -14 -8 -20 -13 -25c-4 -3 -7 -5 -9 -5l-2 6c2 1 4 2 6 4zM629 41h-7v44
c0 4 0 9 -1 12h7l1 -6c3 5 8 8 14 8c9 0 16 -9 16 -21c0 -14 -8 -21 -18 -21c-4 0 -9 2 -12 6v-22zM629 80v-6v-3c2 -5 6 -9 11 -9c8 0 12 6 12 15s-4 16 -11 16c-5 0 -10 -4 -11 -10c-1 0 -1 -1 -1 -3zM709 79v-3h-28c0 -9 7 -14 14 -14c5 0 8 1 11 2l1 -5
c-2 -1 -7 -2 -13 -2c-12 0 -20 8 -20 20s7 22 19 22c13 0 16 -12 16 -20zM681 81h21c0 5 -2 12 -10 12c-7 0 -10 -7 -11 -12zM734 62c0 -3 -2 -5 -5 -5s-5 2 -5 5s2 5 5 5s5 -2 5 -5zM769 93c-9 0 -14 -7 -14 -16s6 -15 14 -15c4 0 7 2 9 2l1 -5c-1 -1 -6 -2 -11 -2
c-12 0 -20 8 -20 20s8 21 21 21c4 0 9 -1 10 -2l-1 -5c-2 0 -5 2 -9 2zM831 78c0 -15 -10 -21 -20 -21s-18 8 -18 20c0 14 8 22 20 22c11 0 18 -9 18 -21zM800 77c0 -9 5 -15 12 -15s12 6 12 15c0 7 -4 16 -12 16s-12 -8 -12 -16zM906 58h-7v22c0 8 -3 13 -9 13
c-4 0 -8 -4 -9 -7v-4v-24h-7v24c0 6 -3 11 -8 11s-8 -4 -9 -8c-1 -1 -1 -2 -1 -3v-24h-7v28v11h6v-6c3 4 6 8 13 8c5 0 10 -4 11 -9c2 3 3 4 5 6c2 1 5 3 9 3c5 0 13 -4 13 -18v-23z" />
    <glyph glyph-name="quotesingle" unicode="'" horiz-adv-x="119" 
d="M36 701h49v-9c0 -37 -40 -23 -40 -94h-9v103z" />
    <glyph glyph-name="parenleft" unicode="(" horiz-adv-x="224" 
d="M183 688c-45 -10 -80 -93 -80 -338c0 -246 35 -327 80 -337v-13c-74 8 -132 100 -132 350c0 251 58 343 132 350v-12z" />
    <glyph glyph-name="parenright" unicode=")" horiz-adv-x="224" 
d="M41 700c74 -7 132 -99 132 -350c0 -250 -58 -342 -132 -350v13c45 10 79 91 79 337c0 245 -34 328 -79 338v12z" />
    <glyph glyph-name="asterisk" unicode="*" horiz-adv-x="179" 
d="M140 646c-4 -2 -7 -3 -10 -3c-6 0 -11 4 -19 4c-4 0 -9 -1 -15 -3c20 -14 27 -3 40 -16l4 -4l-31 -29l-3 4c-13 14 -1 19 -17 43c-16 -21 -4 -29 -17 -43l-3 -4l-31 29l4 4c12 13 20 2 39 17c-5 1 -9 2 -13 2c-9 0 -14 -4 -20 -4c-3 0 -6 1 -10 3l-5 3l18 38l5 -3
c17 -8 7 -19 30 -34c-3 31 -18 26 -18 46v5h42v-5c0 -20 -16 -15 -18 -46c23 15 13 26 30 34l5 3l18 -38z" />
    <glyph glyph-name="plus" unicode="+" horiz-adv-x="408" 
d="M290 380h81v-57h-80c-24 0 -46 8 -70 11c3 -23 12 -45 12 -68v-81h-58v79c0 24 9 47 12 70c-23 -3 -47 -11 -70 -11h-80v57h81c25 0 46 -8 68 -11c-3 23 -11 46 -11 69v81h58v-81c0 -26 -8 -47 -12 -69c23 3 46 11 69 11z" />
    <glyph glyph-name="comma" unicode="," horiz-adv-x="964" 
d="M29 642h19c11 0 18 -6 18 -16s-7 -16 -18 -16h-9v-11h-10v43zM56 626c0 5 -3 8 -9 8h-8v-15h8c6 0 9 2 9 7zM119 634h-22v-10h19v-8h-19v-9h22v-8h-32v43h32v-8zM178 626c0 -7 -3 -11 -9 -13l9 -14h-10l-8 12h-9v-12h-9v43h18c11 0 18 -6 18 -16zM159 619c6 0 9 2 9 7
s-3 8 -9 8h-8v-15h8zM214 606c5 0 8 2 8 4c0 9 -24 3 -24 19c0 7 5 13 17 13c6 0 11 -1 15 -3l-3 -8c-4 2 -8 3 -12 3c-6 0 -8 -2 -8 -4c0 -8 25 -3 25 -19c0 -7 -6 -13 -19 -13c-6 0 -13 2 -16 5l3 7c3 -2 9 -4 14 -4zM250 620c0 13 10 22 23 22s23 -9 23 -22
s-10 -22 -23 -22s-23 9 -23 22zM286 620c0 8 -6 14 -13 14c-8 0 -13 -6 -13 -14s5 -13 13 -13c7 0 13 5 13 13zM326 642l21 -26v26h9v-43h-8l-21 26v-26h-9v43h8zM375 599l19 43h9l19 -43h-10l-4 9h-20l-3 -9h-10zM405 616l-7 16l-6 -16h13zM441 642h9v-35h21v-8h-30v43z
M522 642h10v-24c0 -8 3 -11 9 -11s9 3 9 11v24h10v-25c0 -12 -7 -19 -19 -19s-19 7 -19 19v25zM598 606c6 0 8 2 8 4c0 9 -24 3 -24 19c0 7 5 13 17 13c6 0 11 -1 15 -3l-3 -8c-4 2 -8 3 -12 3c-5 0 -8 -2 -8 -4c0 -8 24 -3 24 -19c0 -7 -5 -13 -17 -13c-7 0 -13 2 -17 5
l3 7c4 -2 9 -4 14 -4zM669 634h-23v-10h20v-8h-20v-9h23v-8h-32v43h32v-8zM720 620c0 13 10 22 23 22s23 -9 23 -22s-10 -22 -23 -22s-23 9 -23 22zM756 620c0 8 -6 14 -13 14c-8 0 -13 -6 -13 -14s5 -13 13 -13c7 0 13 5 13 13zM796 642l21 -26v26h9v-43h-8l-21 26v-26h-9
v43h8zM851 642h9v-35h21v-8h-30v43zM917 599h-10v15l-16 28h10l12 -20l10 20h10l-16 -28v-15zM37 138v-1h-11l-2 -10h-1l4 22h14l-1 -2h-12l-1 -9h10zM43 133c0 6 4 10 9 10c4 0 7 -2 7 -6c0 -6 -4 -10 -9 -10s-7 3 -7 6zM57 137c0 3 -2 5 -6 5s-7 -4 -7 -9c0 -3 3 -4 6 -4
c4 0 7 3 7 8zM67 143h1v-3c1 2 3 3 6 3v-2v0c-4 0 -6 -1 -7 -6l-2 -8h-1zM101 147c-6 0 -10 -5 -10 -11c0 -4 2 -7 7 -7c3 0 6 0 7 2l1 -1c-2 -2 -5 -3 -8 -3c-6 0 -9 3 -9 9c0 7 5 13 12 13c3 0 6 -2 8 -3l-2 -2c-1 2 -3 3 -6 3zM127 137c0 -6 -4 -10 -9 -10
c-4 0 -7 3 -7 6c0 6 4 10 9 10c4 0 7 -2 7 -6zM118 129c4 0 7 3 7 8c0 3 -2 5 -5 5c-4 0 -7 -4 -7 -9c0 -3 2 -4 5 -4zM135 143h2l-1 -3c2 2 4 3 6 3c3 0 5 -1 5 -3c2 2 4 3 7 3s5 -2 5 -5v-1l-2 -10h-1l2 10v1c0 2 -2 4 -4 4c-4 0 -6 -2 -7 -6l-2 -9h-1l2 10v1
c0 2 -1 4 -4 4s-6 -2 -7 -6l-1 -9h-2zM188 143c3 0 5 -2 5 -5v-1l-2 -10h-1l2 10v1c0 2 -1 4 -4 4s-6 -2 -7 -6l-1 -9h-2l2 10v1c0 2 -2 4 -5 4s-5 -2 -6 -6l-1 -9h-2l3 16h2l-1 -3c1 2 4 3 6 3c3 0 5 -1 6 -3c1 2 3 3 6 3zM215 135h-14v-2c0 -3 2 -4 6 -4c2 0 4 0 5 1l1 -1
c-1 -1 -4 -2 -6 -2c-4 0 -7 2 -7 6c0 6 3 10 8 10c4 0 7 -2 7 -6v-2zM208 142c-3 0 -6 -2 -7 -6h12v1c0 3 -2 5 -5 5zM223 143h2l-1 -3c2 2 3 3 6 3v-2v0c-4 0 -6 -1 -7 -6l-1 -8h-2zM242 142c-4 0 -7 -4 -7 -9c0 -3 3 -4 6 -4c2 0 4 0 5 1h1c-2 -2 -4 -3 -6 -3
c-5 0 -7 3 -7 6c0 6 4 10 8 10c3 0 5 -1 6 -3h-1c-1 1 -2 2 -5 2zM259 148c0 -1 0 -1 -2 -1c0 0 -1 0 -1 1s1 1 2 1s1 0 1 -1zM253 127l3 16h1l-3 -16h-1zM277 127h-1v3c-1 -2 -3 -3 -6 -3c-4 0 -7 2 -7 6c0 6 3 10 9 10c3 0 5 -2 6 -4l1 4h1zM270 129c4 0 7 3 7 8
c0 3 -2 5 -5 5c-4 0 -7 -4 -7 -9c0 -3 1 -4 5 -4zM287 127h-1l4 23h2zM295 123h-1l1 4v1c0 1 0 2 1 2s1 -1 1 -1v-2zM324 134h-6l-1 -7h-2l5 22h7c4 0 7 -3 7 -6c0 -6 -4 -9 -10 -9zM321 147l-3 -12h6c5 0 8 3 8 8c0 3 -2 4 -5 4h-6zM340 127h-2l5 23h1zM363 135h-13v-2
c0 -3 2 -4 6 -4c2 0 4 0 5 1l1 -1c-2 -1 -4 -2 -6 -2c-5 0 -8 2 -8 6c0 6 4 10 9 10c4 0 7 -2 7 -6c0 -1 0 -2 -1 -2zM357 142c-4 0 -6 -2 -7 -6h12v1c0 3 -2 5 -5 5zM384 143h2l-3 -16h-2l1 3c-2 -2 -4 -3 -6 -3c-5 0 -7 2 -7 6c0 6 4 10 8 10c3 0 6 -2 6 -4zM376 129
c4 0 7 3 7 8c0 3 -2 5 -6 5s-7 -4 -7 -9c0 -3 2 -4 6 -4zM395 129c4 0 6 1 6 3c0 4 -9 1 -9 6c0 3 2 5 6 5c2 0 4 0 5 -2v-1c-1 1 -3 2 -5 2c-3 0 -5 -2 -5 -4c0 -4 9 -1 9 -6c0 -3 -2 -5 -7 -5c-2 0 -4 1 -6 2l2 1c1 -1 3 -1 4 -1zM423 135h-14v-2c0 -3 2 -4 6 -4
c2 0 4 0 5 1l1 -1c-1 -1 -4 -2 -6 -2c-4 0 -7 2 -7 6c0 6 3 10 8 10c4 0 7 -2 7 -6v-2zM416 142c-3 0 -5 -2 -7 -6h12v1c0 3 -2 5 -5 5zM446 127h-1l-6 22h2l5 -20l12 20h1zM467 148c0 -1 -1 -1 -2 -1c0 0 -1 0 -1 1s1 1 1 1c1 0 2 0 2 -1zM461 127l3 16h1l-3 -16h-1z
M478 142c-3 0 -5 -2 -5 -4c0 -4 9 -1 9 -6c0 -3 -3 -5 -7 -5c-2 0 -5 1 -6 2l1 1c1 -1 3 -1 6 -1s4 1 4 3c0 4 -9 1 -9 6c0 3 3 5 7 5c2 0 4 0 5 -2l-1 -1c-1 1 -3 2 -4 2zM488 127l3 16h2l-4 -16h-1zM494 148c0 -1 -1 -1 -1 -1c-1 0 -2 0 -2 1s1 1 2 1c0 0 1 0 1 -1z
M502 146h1v-3h5v-2h-5l-2 -9c-1 -1 -1 -1 -1 -2s2 -2 3 -2s2 1 2 1l1 -1c-1 -1 -2 -1 -3 -1c-3 0 -4 1 -4 3v2l2 9h-2v2h3v3zM942 573v-3h-913v3h913zM942 671v-3h-913v3h913zM942 681v-2h-913v2h913zM30 25v2h913v-2h-913zM30 36v2h913v-2h-913zM517 135h426v-2h-426v2z
M603 212c-2 0 -4 -3 -4 -7s2 -7 4 -7s3 -2 2 -4c-2 -2 -6 -3 -11 -3c-8 0 -9 1 -7 10c1 7 0 11 -3 15c-4 2 -7 9 -7 15c0 8 2 10 8 10s6 -1 5 -10c-2 -11 -2 -12 4 -11s7 5 7 24c-1 19 1 22 5 20c5 -1 6 -5 6 -18c0 -20 -4 -34 -9 -34zM569 255c-5 -2 -6 -7 -6 -27
c0 -15 2 -27 4 -28c6 -4 3 -9 -5 -9s-8 0 -7 31c1 30 1 31 -6 29c-6 -2 -8 -1 -8 5s2 8 16 8c9 0 19 0 22 1c5 2 6 0 6 -7c0 -9 -6 -13 -8 -5c-1 3 -4 3 -8 2zM643 218c-10 -6 -15 -20 -7 -20c2 0 3 -2 2 -4s-6 -3 -9 -3c-6 0 -8 3 -8 36l-1 37h13c15 0 25 -8 25 -21
s-4 -20 -15 -25zM631 235c3 -12 8 -15 15 -7c10 10 3 28 -11 28c-7 0 -7 -4 -4 -21zM722 283c-10 4 -20 11 -23 16c-7 10 -11 10 -14 1c-1 -4 -7 -10 -13 -13c-13 -6 -35 -2 -45 9c-5 6 -8 6 -13 4c-12 -7 -26 -4 -37 7c-9 10 -10 13 -10 36c0 20 -2 26 -5 26
c-8 0 -13 -17 -13 -40c0 -21 -3 -27 -17 -30c-5 0 -8 -5 -9 -12c-6 -27 -21 -38 -43 -31c-13 5 -29 22 -32 35c-2 7 -4 8 -16 6c-12 -1 -17 0 -24 7l-10 8l-7 -9c-5 -8 -10 -10 -20 -10h-12v-20c0 -25 -9 -39 -27 -39c-7 0 -17 4 -22 8c-6 4 -12 15 -15 26
c-6 19 -6 30 -4 170c0 18 -1 32 -3 33c-5 2 -19 -27 -24 -49c-2 -10 -5 -47 -6 -82l-2 -63l-15 2c-8 1 -16 4 -19 6c-2 3 -4 26 -6 59c-2 60 -6 76 -17 76c-20 0 -40 -34 -40 -67c0 -23 7 -34 25 -37c26 -5 0 -15 -28 -11c-12 2 -20 6 -29 15c-12 12 -13 14 -12 36
c2 27 12 44 34 58c26 18 65 16 84 -3c9 -9 13 -6 13 9c0 3 2 14 5 24c14 45 51 52 70 14c6 -13 7 -22 6 -102c-1 -92 0 -107 9 -107c12 0 16 40 5 59c-14 22 -7 58 12 70c7 5 14 6 26 5c9 -1 16 -1 16 1c0 5 11 6 23 3l14 -3l1 -36c1 -56 8 -43 11 23c1 32 1 59 0 60
c0 0 -12 2 -26 3c-20 1 -29 0 -43 -6c-20 -9 -39 -8 -31 1c9 10 43 18 67 15c13 -1 26 -3 30 -4c8 -2 9 0 13 22c5 25 7 27 28 22c8 -3 8 -4 6 -30l-3 -26h10c8 0 9 1 11 14c7 45 45 76 79 66c17 -5 26 -15 28 -33c2 -20 -8 -37 -32 -49c-11 -5 -24 -9 -29 -9
c-9 0 -10 -2 -11 -16c-1 -8 -1 -20 0 -27v-11l11 10c9 9 13 11 21 9c19 -4 27 -16 31 -47c5 -35 12 -35 14 0c2 22 3 25 14 35c11 9 14 11 27 9c8 -1 18 -3 21 -4c4 -2 7 0 8 5c2 8 11 10 26 4l10 -4l-3 -36c-2 -31 -1 -38 4 -46c11 -17 29 -11 45 16c7 12 9 21 10 37
c0 24 -7 34 -25 39s-14 10 11 11c51 3 75 -40 46 -85c-12 -19 -28 -30 -53 -35c-18 -3 -22 -3 -37 2zM551 464c-13 -39 -12 -42 11 -30c25 13 37 35 29 56c-7 23 -29 9 -40 -26zM386 318c6 12 8 49 2 53c-11 7 -21 -19 -17 -48c3 -18 8 -20 15 -5zM496 275
c10 -15 13 -5 11 30c-1 18 -4 50 -5 71s-3 40 -6 41c-12 8 -13 3 -13 -41c0 -50 5 -88 13 -101zM672 303c7 13 9 49 3 57c-5 7 -5 7 -11 -3c-8 -11 -11 -31 -8 -48c2 -14 10 -17 16 -6zM697 252c-16 7 -25 4 -25 -8c0 -10 9 -13 13 -6c4 6 9 3 9 -6c0 -7 -1 -8 -10 -6
c-11 2 -12 2 -12 -11c0 -12 1 -13 9 -13c4 0 10 1 12 3c3 3 4 2 6 -3c1 -6 0 -8 -9 -8c-7 0 -15 -1 -20 -2c-6 -2 -7 0 -7 35v37h11c6 0 15 0 19 1c7 3 9 2 7 -6c0 -4 -2 -8 -3 -7zM84 58h-7l-12 39h8l5 -20c1 -4 2 -9 3 -13c1 4 3 9 4 13l7 20h6l6 -20c1 -4 2 -9 3 -13
c1 4 2 9 3 13l6 20h7l-13 -39h-6l-6 19c-1 4 -3 8 -4 12c-1 -4 -2 -8 -3 -13zM154 58h-7l-12 39h8l5 -20c1 -4 2 -9 3 -13c1 4 2 9 4 13l6 20h6l7 -20c1 -4 2 -9 3 -13c1 4 2 9 3 13l6 20h7l-13 -39h-6l-6 19c-2 4 -3 8 -4 12c-1 -4 -2 -8 -4 -13zM224 58h-7l-12 39h7l6 -20
c1 -4 2 -9 3 -13c1 4 2 9 3 13l7 20h6l6 -20c2 -4 3 -9 4 -13c1 4 2 9 3 13l6 20h7l-13 -39h-6l-6 19c-2 4 -3 8 -4 12c-1 -4 -2 -8 -4 -13zM279 57c-3 0 -5 2 -5 5s2 5 5 5c2 0 4 -2 4 -5s-1 -5 -4 -5zM335 58h-8v22c0 7 -2 13 -9 13c-5 0 -9 -4 -10 -8c0 -1 -1 -2 -1 -3
v-24h-7v28v11h6l1 -6c2 3 7 8 13 8s15 -4 15 -18v-23zM351 68c0 9 9 15 24 15c0 4 -1 10 -9 10c-4 0 -7 -1 -10 -3l-2 5c4 2 8 4 13 4c12 0 15 -9 15 -17v-15c0 -3 0 -6 1 -9h-7v4c-3 -3 -7 -5 -12 -5c-9 0 -13 5 -13 11zM376 78c-9 0 -17 -1 -17 -9c0 -5 3 -7 6 -7
c5 0 9 3 10 6c0 2 1 2 1 3v7zM421 92h-10v-22c0 -5 1 -8 5 -8c2 0 4 1 4 1l1 -5c-2 -1 -4 -1 -7 -1s-6 1 -8 3c-1 2 -3 5 -3 10v22h-6v5h6v10l8 2v-12h10v-5zM471 58h-7v22c0 7 -2 13 -9 13c-5 0 -8 -4 -10 -8v-3v-24h-8v58h8v-25c1 2 3 4 5 5s5 3 8 3c5 0 13 -4 13 -18v-23
zM504 99c12 0 15 -9 15 -17v-15c0 -3 1 -6 1 -9h-6l-1 4h-1c-2 -3 -6 -5 -12 -5c-7 0 -12 5 -12 11c0 9 9 15 24 15c0 4 -1 10 -9 10c-4 0 -7 -1 -10 -3l-2 5c3 2 8 4 13 4zM512 71v7c-7 0 -16 -1 -16 -9c0 -5 3 -7 6 -7c6 0 9 3 10 6v3zM541 107l6 2v-12h11v-5h-11v-22
c0 -5 2 -8 6 -8c2 0 3 1 4 1l1 -5c-2 -1 -4 -1 -7 -1s-6 1 -8 3s-2 5 -2 10v22h-7v5h7v10zM578 49c3 1 5 4 6 8c1 1 1 1 1 2v2l-15 36h7l10 -23c0 -3 1 -6 2 -8c1 2 2 5 2 8l9 23h7l-11 -28c-5 -14 -8 -20 -13 -25c-4 -3 -7 -5 -9 -5l-2 6c2 1 4 2 6 4zM629 41h-7v44
c0 4 0 9 -1 12h7l1 -6c3 5 8 8 14 8c9 0 16 -9 16 -21c0 -14 -8 -21 -18 -21c-4 0 -9 2 -12 6v-22zM629 80v-6v-3c2 -5 6 -9 11 -9c8 0 12 6 12 15s-4 16 -11 16c-5 0 -10 -4 -11 -10c-1 0 -1 -1 -1 -3zM709 79v-3h-28c0 -9 7 -14 14 -14c5 0 8 1 11 2l1 -5
c-2 -1 -7 -2 -13 -2c-12 0 -20 8 -20 20s7 22 19 22c13 0 16 -12 16 -20zM681 81h21c0 5 -2 12 -10 12c-7 0 -10 -7 -11 -12zM734 62c0 -3 -2 -5 -5 -5s-5 2 -5 5s2 5 5 5s5 -2 5 -5zM769 93c-9 0 -14 -7 -14 -16s6 -15 14 -15c4 0 7 2 9 2l1 -5c-1 -1 -6 -2 -11 -2
c-12 0 -20 8 -20 20s8 21 21 21c4 0 9 -1 10 -2l-1 -5c-2 0 -5 2 -9 2zM831 78c0 -15 -10 -21 -20 -21s-18 8 -18 20c0 14 8 22 20 22c11 0 18 -9 18 -21zM800 77c0 -9 5 -15 12 -15s12 6 12 15c0 7 -4 16 -12 16s-12 -8 -12 -16zM906 58h-7v22c0 8 -3 13 -9 13
c-4 0 -8 -4 -9 -7v-4v-24h-7v24c0 6 -3 11 -8 11s-8 -4 -9 -8c-1 -1 -1 -2 -1 -3v-24h-7v28v11h6v-6c3 4 6 8 13 8c5 0 10 -4 11 -9c2 3 3 4 5 6c2 1 5 3 9 3c5 0 13 -4 13 -18v-23z" />
    <glyph glyph-name="hyphenminus" unicode="-" horiz-adv-x="396" 
d="M284 380h81v-57h-80c-29 0 -56 13 -85 13c-30 0 -59 -13 -89 -13h-80v57h81c32 0 58 -13 87 -13c29 1 56 13 85 13z" />
    <glyph glyph-name="period" unicode="." horiz-adv-x="964" 
d="M29 642h19c11 0 18 -6 18 -16s-7 -16 -18 -16h-9v-11h-10v43zM56 626c0 5 -3 8 -9 8h-8v-15h8c6 0 9 2 9 7zM119 634h-22v-10h19v-8h-19v-9h22v-8h-32v43h32v-8zM178 626c0 -7 -3 -11 -9 -13l9 -14h-10l-8 12h-9v-12h-9v43h18c11 0 18 -6 18 -16zM159 619c6 0 9 2 9 7
s-3 8 -9 8h-8v-15h8zM214 606c5 0 8 2 8 4c0 9 -24 3 -24 19c0 7 5 13 17 13c6 0 11 -1 15 -3l-3 -8c-4 2 -8 3 -12 3c-6 0 -8 -2 -8 -4c0 -8 25 -3 25 -19c0 -7 -6 -13 -19 -13c-6 0 -13 2 -16 5l3 7c3 -2 9 -4 14 -4zM250 620c0 13 10 22 23 22s23 -9 23 -22
s-10 -22 -23 -22s-23 9 -23 22zM286 620c0 8 -6 14 -13 14c-8 0 -13 -6 -13 -14s5 -13 13 -13c7 0 13 5 13 13zM326 642l21 -26v26h9v-43h-8l-21 26v-26h-9v43h8zM375 599l19 43h9l19 -43h-10l-4 9h-20l-3 -9h-10zM405 616l-7 16l-6 -16h13zM441 642h9v-35h21v-8h-30v43z
M522 642h10v-24c0 -8 3 -11 9 -11s9 3 9 11v24h10v-25c0 -12 -7 -19 -19 -19s-19 7 -19 19v25zM598 606c6 0 8 2 8 4c0 9 -24 3 -24 19c0 7 5 13 17 13c6 0 11 -1 15 -3l-3 -8c-4 2 -8 3 -12 3c-5 0 -8 -2 -8 -4c0 -8 24 -3 24 -19c0 -7 -5 -13 -17 -13c-7 0 -13 2 -17 5
l3 7c4 -2 9 -4 14 -4zM669 634h-23v-10h20v-8h-20v-9h23v-8h-32v43h32v-8zM720 620c0 13 10 22 23 22s23 -9 23 -22s-10 -22 -23 -22s-23 9 -23 22zM756 620c0 8 -6 14 -13 14c-8 0 -13 -6 -13 -14s5 -13 13 -13c7 0 13 5 13 13zM796 642l21 -26v26h9v-43h-8l-21 26v-26h-9
v43h8zM851 642h9v-35h21v-8h-30v43zM917 599h-10v15l-16 28h10l12 -20l10 20h10l-16 -28v-15zM37 138v-1h-11l-2 -10h-1l4 22h14l-1 -2h-12l-1 -9h10zM43 133c0 6 4 10 9 10c4 0 7 -2 7 -6c0 -6 -4 -10 -9 -10s-7 3 -7 6zM57 137c0 3 -2 5 -6 5s-7 -4 -7 -9c0 -3 3 -4 6 -4
c4 0 7 3 7 8zM67 143h1v-3c1 2 3 3 6 3v-2v0c-4 0 -6 -1 -7 -6l-2 -8h-1zM101 147c-6 0 -10 -5 -10 -11c0 -4 2 -7 7 -7c3 0 6 0 7 2l1 -1c-2 -2 -5 -3 -8 -3c-6 0 -9 3 -9 9c0 7 5 13 12 13c3 0 6 -2 8 -3l-2 -2c-1 2 -3 3 -6 3zM127 137c0 -6 -4 -10 -9 -10
c-4 0 -7 3 -7 6c0 6 4 10 9 10c4 0 7 -2 7 -6zM118 129c4 0 7 3 7 8c0 3 -2 5 -5 5c-4 0 -7 -4 -7 -9c0 -3 2 -4 5 -4zM135 143h2l-1 -3c2 2 4 3 6 3c3 0 5 -1 5 -3c2 2 4 3 7 3s5 -2 5 -5v-1l-2 -10h-1l2 10v1c0 2 -2 4 -4 4c-4 0 -6 -2 -7 -6l-2 -9h-1l2 10v1
c0 2 -1 4 -4 4s-6 -2 -7 -6l-1 -9h-2zM188 143c3 0 5 -2 5 -5v-1l-2 -10h-1l2 10v1c0 2 -1 4 -4 4s-6 -2 -7 -6l-1 -9h-2l2 10v1c0 2 -2 4 -5 4s-5 -2 -6 -6l-1 -9h-2l3 16h2l-1 -3c1 2 4 3 6 3c3 0 5 -1 6 -3c1 2 3 3 6 3zM215 135h-14v-2c0 -3 2 -4 6 -4c2 0 4 0 5 1l1 -1
c-1 -1 -4 -2 -6 -2c-4 0 -7 2 -7 6c0 6 3 10 8 10c4 0 7 -2 7 -6v-2zM208 142c-3 0 -6 -2 -7 -6h12v1c0 3 -2 5 -5 5zM223 143h2l-1 -3c2 2 3 3 6 3v-2v0c-4 0 -6 -1 -7 -6l-1 -8h-2zM242 142c-4 0 -7 -4 -7 -9c0 -3 3 -4 6 -4c2 0 4 0 5 1h1c-2 -2 -4 -3 -6 -3
c-5 0 -7 3 -7 6c0 6 4 10 8 10c3 0 5 -1 6 -3h-1c-1 1 -2 2 -5 2zM259 148c0 -1 0 -1 -2 -1c0 0 -1 0 -1 1s1 1 2 1s1 0 1 -1zM253 127l3 16h1l-3 -16h-1zM277 127h-1v3c-1 -2 -3 -3 -6 -3c-4 0 -7 2 -7 6c0 6 3 10 9 10c3 0 5 -2 6 -4l1 4h1zM270 129c4 0 7 3 7 8
c0 3 -2 5 -5 5c-4 0 -7 -4 -7 -9c0 -3 1 -4 5 -4zM287 127h-1l4 23h2zM295 123h-1l1 4v1c0 1 0 2 1 2s1 -1 1 -1v-2zM324 134h-6l-1 -7h-2l5 22h7c4 0 7 -3 7 -6c0 -6 -4 -9 -10 -9zM321 147l-3 -12h6c5 0 8 3 8 8c0 3 -2 4 -5 4h-6zM340 127h-2l5 23h1zM363 135h-13v-2
c0 -3 2 -4 6 -4c2 0 4 0 5 1l1 -1c-2 -1 -4 -2 -6 -2c-5 0 -8 2 -8 6c0 6 4 10 9 10c4 0 7 -2 7 -6c0 -1 0 -2 -1 -2zM357 142c-4 0 -6 -2 -7 -6h12v1c0 3 -2 5 -5 5zM384 143h2l-3 -16h-2l1 3c-2 -2 -4 -3 -6 -3c-5 0 -7 2 -7 6c0 6 4 10 8 10c3 0 6 -2 6 -4zM376 129
c4 0 7 3 7 8c0 3 -2 5 -6 5s-7 -4 -7 -9c0 -3 2 -4 6 -4zM395 129c4 0 6 1 6 3c0 4 -9 1 -9 6c0 3 2 5 6 5c2 0 4 0 5 -2v-1c-1 1 -3 2 -5 2c-3 0 -5 -2 -5 -4c0 -4 9 -1 9 -6c0 -3 -2 -5 -7 -5c-2 0 -4 1 -6 2l2 1c1 -1 3 -1 4 -1zM423 135h-14v-2c0 -3 2 -4 6 -4
c2 0 4 0 5 1l1 -1c-1 -1 -4 -2 -6 -2c-4 0 -7 2 -7 6c0 6 3 10 8 10c4 0 7 -2 7 -6v-2zM416 142c-3 0 -5 -2 -7 -6h12v1c0 3 -2 5 -5 5zM446 127h-1l-6 22h2l5 -20l12 20h1zM467 148c0 -1 -1 -1 -2 -1c0 0 -1 0 -1 1s1 1 1 1c1 0 2 0 2 -1zM461 127l3 16h1l-3 -16h-1z
M478 142c-3 0 -5 -2 -5 -4c0 -4 9 -1 9 -6c0 -3 -3 -5 -7 -5c-2 0 -5 1 -6 2l1 1c1 -1 3 -1 6 -1s4 1 4 3c0 4 -9 1 -9 6c0 3 3 5 7 5c2 0 4 0 5 -2l-1 -1c-1 1 -3 2 -4 2zM488 127l3 16h2l-4 -16h-1zM494 148c0 -1 -1 -1 -1 -1c-1 0 -2 0 -2 1s1 1 2 1c0 0 1 0 1 -1z
M502 146h1v-3h5v-2h-5l-2 -9c-1 -1 -1 -1 -1 -2s2 -2 3 -2s2 1 2 1l1 -1c-1 -1 -2 -1 -3 -1c-3 0 -4 1 -4 3v2l2 9h-2v2h3v3zM942 573v-3h-913v3h913zM942 671v-3h-913v3h913zM942 681v-2h-913v2h913zM30 25v2h913v-2h-913zM30 36v2h913v-2h-913zM517 135h426v-2h-426v2z
M603 212c-2 0 -4 -3 -4 -7s2 -7 4 -7s3 -2 2 -4c-2 -2 -6 -3 -11 -3c-8 0 -9 1 -7 10c1 7 0 11 -3 15c-4 2 -7 9 -7 15c0 8 2 10 8 10s6 -1 5 -10c-2 -11 -2 -12 4 -11s7 5 7 24c-1 19 1 22 5 20c5 -1 6 -5 6 -18c0 -20 -4 -34 -9 -34zM569 255c-5 -2 -6 -7 -6 -27
c0 -15 2 -27 4 -28c6 -4 3 -9 -5 -9s-8 0 -7 31c1 30 1 31 -6 29c-6 -2 -8 -1 -8 5s2 8 16 8c9 0 19 0 22 1c5 2 6 0 6 -7c0 -9 -6 -13 -8 -5c-1 3 -4 3 -8 2zM643 218c-10 -6 -15 -20 -7 -20c2 0 3 -2 2 -4s-6 -3 -9 -3c-6 0 -8 3 -8 36l-1 37h13c15 0 25 -8 25 -21
s-4 -20 -15 -25zM631 235c3 -12 8 -15 15 -7c10 10 3 28 -11 28c-7 0 -7 -4 -4 -21zM722 283c-10 4 -20 11 -23 16c-7 10 -11 10 -14 1c-1 -4 -7 -10 -13 -13c-13 -6 -35 -2 -45 9c-5 6 -8 6 -13 4c-12 -7 -26 -4 -37 7c-9 10 -10 13 -10 36c0 20 -2 26 -5 26
c-8 0 -13 -17 -13 -40c0 -21 -3 -27 -17 -30c-5 0 -8 -5 -9 -12c-6 -27 -21 -38 -43 -31c-13 5 -29 22 -32 35c-2 7 -4 8 -16 6c-12 -1 -17 0 -24 7l-10 8l-7 -9c-5 -8 -10 -10 -20 -10h-12v-20c0 -25 -9 -39 -27 -39c-7 0 -17 4 -22 8c-6 4 -12 15 -15 26
c-6 19 -6 30 -4 170c0 18 -1 32 -3 33c-5 2 -19 -27 -24 -49c-2 -10 -5 -47 -6 -82l-2 -63l-15 2c-8 1 -16 4 -19 6c-2 3 -4 26 -6 59c-2 60 -6 76 -17 76c-20 0 -40 -34 -40 -67c0 -23 7 -34 25 -37c26 -5 0 -15 -28 -11c-12 2 -20 6 -29 15c-12 12 -13 14 -12 36
c2 27 12 44 34 58c26 18 65 16 84 -3c9 -9 13 -6 13 9c0 3 2 14 5 24c14 45 51 52 70 14c6 -13 7 -22 6 -102c-1 -92 0 -107 9 -107c12 0 16 40 5 59c-14 22 -7 58 12 70c7 5 14 6 26 5c9 -1 16 -1 16 1c0 5 11 6 23 3l14 -3l1 -36c1 -56 8 -43 11 23c1 32 1 59 0 60
c0 0 -12 2 -26 3c-20 1 -29 0 -43 -6c-20 -9 -39 -8 -31 1c9 10 43 18 67 15c13 -1 26 -3 30 -4c8 -2 9 0 13 22c5 25 7 27 28 22c8 -3 8 -4 6 -30l-3 -26h10c8 0 9 1 11 14c7 45 45 76 79 66c17 -5 26 -15 28 -33c2 -20 -8 -37 -32 -49c-11 -5 -24 -9 -29 -9
c-9 0 -10 -2 -11 -16c-1 -8 -1 -20 0 -27v-11l11 10c9 9 13 11 21 9c19 -4 27 -16 31 -47c5 -35 12 -35 14 0c2 22 3 25 14 35c11 9 14 11 27 9c8 -1 18 -3 21 -4c4 -2 7 0 8 5c2 8 11 10 26 4l10 -4l-3 -36c-2 -31 -1 -38 4 -46c11 -17 29 -11 45 16c7 12 9 21 10 37
c0 24 -7 34 -25 39s-14 10 11 11c51 3 75 -40 46 -85c-12 -19 -28 -30 -53 -35c-18 -3 -22 -3 -37 2zM551 464c-13 -39 -12 -42 11 -30c25 13 37 35 29 56c-7 23 -29 9 -40 -26zM386 318c6 12 8 49 2 53c-11 7 -21 -19 -17 -48c3 -18 8 -20 15 -5zM496 275
c10 -15 13 -5 11 30c-1 18 -4 50 -5 71s-3 40 -6 41c-12 8 -13 3 -13 -41c0 -50 5 -88 13 -101zM672 303c7 13 9 49 3 57c-5 7 -5 7 -11 -3c-8 -11 -11 -31 -8 -48c2 -14 10 -17 16 -6zM697 252c-16 7 -25 4 -25 -8c0 -10 9 -13 13 -6c4 6 9 3 9 -6c0 -7 -1 -8 -10 -6
c-11 2 -12 2 -12 -11c0 -12 1 -13 9 -13c4 0 10 1 12 3c3 3 4 2 6 -3c1 -6 0 -8 -9 -8c-7 0 -15 -1 -20 -2c-6 -2 -7 0 -7 35v37h11c6 0 15 0 19 1c7 3 9 2 7 -6c0 -4 -2 -8 -3 -7zM84 58h-7l-12 39h8l5 -20c1 -4 2 -9 3 -13c1 4 3 9 4 13l7 20h6l6 -20c1 -4 2 -9 3 -13
c1 4 2 9 3 13l6 20h7l-13 -39h-6l-6 19c-1 4 -3 8 -4 12c-1 -4 -2 -8 -3 -13zM154 58h-7l-12 39h8l5 -20c1 -4 2 -9 3 -13c1 4 2 9 4 13l6 20h6l7 -20c1 -4 2 -9 3 -13c1 4 2 9 3 13l6 20h7l-13 -39h-6l-6 19c-2 4 -3 8 -4 12c-1 -4 -2 -8 -4 -13zM224 58h-7l-12 39h7l6 -20
c1 -4 2 -9 3 -13c1 4 2 9 3 13l7 20h6l6 -20c2 -4 3 -9 4 -13c1 4 2 9 3 13l6 20h7l-13 -39h-6l-6 19c-2 4 -3 8 -4 12c-1 -4 -2 -8 -4 -13zM279 57c-3 0 -5 2 -5 5s2 5 5 5c2 0 4 -2 4 -5s-1 -5 -4 -5zM335 58h-8v22c0 7 -2 13 -9 13c-5 0 -9 -4 -10 -8c0 -1 -1 -2 -1 -3
v-24h-7v28v11h6l1 -6c2 3 7 8 13 8s15 -4 15 -18v-23zM351 68c0 9 9 15 24 15c0 4 -1 10 -9 10c-4 0 -7 -1 -10 -3l-2 5c4 2 8 4 13 4c12 0 15 -9 15 -17v-15c0 -3 0 -6 1 -9h-7v4c-3 -3 -7 -5 -12 -5c-9 0 -13 5 -13 11zM376 78c-9 0 -17 -1 -17 -9c0 -5 3 -7 6 -7
c5 0 9 3 10 6c0 2 1 2 1 3v7zM421 92h-10v-22c0 -5 1 -8 5 -8c2 0 4 1 4 1l1 -5c-2 -1 -4 -1 -7 -1s-6 1 -8 3c-1 2 -3 5 -3 10v22h-6v5h6v10l8 2v-12h10v-5zM471 58h-7v22c0 7 -2 13 -9 13c-5 0 -8 -4 -10 -8v-3v-24h-8v58h8v-25c1 2 3 4 5 5s5 3 8 3c5 0 13 -4 13 -18v-23
zM504 99c12 0 15 -9 15 -17v-15c0 -3 1 -6 1 -9h-6l-1 4h-1c-2 -3 -6 -5 -12 -5c-7 0 -12 5 -12 11c0 9 9 15 24 15c0 4 -1 10 -9 10c-4 0 -7 -1 -10 -3l-2 5c3 2 8 4 13 4zM512 71v7c-7 0 -16 -1 -16 -9c0 -5 3 -7 6 -7c6 0 9 3 10 6v3zM541 107l6 2v-12h11v-5h-11v-22
c0 -5 2 -8 6 -8c2 0 3 1 4 1l1 -5c-2 -1 -4 -1 -7 -1s-6 1 -8 3s-2 5 -2 10v22h-7v5h7v10zM578 49c3 1 5 4 6 8c1 1 1 1 1 2v2l-15 36h7l10 -23c0 -3 1 -6 2 -8c1 2 2 5 2 8l9 23h7l-11 -28c-5 -14 -8 -20 -13 -25c-4 -3 -7 -5 -9 -5l-2 6c2 1 4 2 6 4zM629 41h-7v44
c0 4 0 9 -1 12h7l1 -6c3 5 8 8 14 8c9 0 16 -9 16 -21c0 -14 -8 -21 -18 -21c-4 0 -9 2 -12 6v-22zM629 80v-6v-3c2 -5 6 -9 11 -9c8 0 12 6 12 15s-4 16 -11 16c-5 0 -10 -4 -11 -10c-1 0 -1 -1 -1 -3zM709 79v-3h-28c0 -9 7 -14 14 -14c5 0 8 1 11 2l1 -5
c-2 -1 -7 -2 -13 -2c-12 0 -20 8 -20 20s7 22 19 22c13 0 16 -12 16 -20zM681 81h21c0 5 -2 12 -10 12c-7 0 -10 -7 -11 -12zM734 62c0 -3 -2 -5 -5 -5s-5 2 -5 5s2 5 5 5s5 -2 5 -5zM769 93c-9 0 -14 -7 -14 -16s6 -15 14 -15c4 0 7 2 9 2l1 -5c-1 -1 -6 -2 -11 -2
c-12 0 -20 8 -20 20s8 21 21 21c4 0 9 -1 10 -2l-1 -5c-2 0 -5 2 -9 2zM831 78c0 -15 -10 -21 -20 -21s-18 8 -18 20c0 14 8 22 20 22c11 0 18 -9 18 -21zM800 77c0 -9 5 -15 12 -15s12 6 12 15c0 7 -4 16 -12 16s-12 -8 -12 -16zM906 58h-7v22c0 8 -3 13 -9 13
c-4 0 -8 -4 -9 -7v-4v-24h-7v24c0 6 -3 11 -8 11s-8 -4 -9 -8c-1 -1 -1 -2 -1 -3v-24h-7v28v11h6v-6c3 4 6 8 13 8c5 0 10 -4 11 -9c2 3 3 4 5 6c2 1 5 3 9 3c5 0 13 -4 13 -18v-23z" />
    <glyph glyph-name="slash" unicode="/" horiz-adv-x="351" 
d="M238 695h58l-54 -168c-21 -67 -52 -121 -71 -181c-19 -59 -25 -116 -44 -176l-53 -167h-58l53 165c19 60 50 117 70 177c19 61 26 123 46 183z" />
    <glyph glyph-name="zero" unicode="0" horiz-adv-x="964" 
d="M29 642h19c11 0 18 -6 18 -16s-7 -16 -18 -16h-9v-11h-10v43zM56 626c0 5 -3 8 -9 8h-8v-15h8c6 0 9 2 9 7zM119 634h-22v-10h19v-8h-19v-9h22v-8h-32v43h32v-8zM178 626c0 -7 -3 -11 -9 -13l9 -14h-10l-8 12h-9v-12h-9v43h18c11 0 18 -6 18 -16zM159 619c6 0 9 2 9 7
s-3 8 -9 8h-8v-15h8zM214 606c5 0 8 2 8 4c0 9 -24 3 -24 19c0 7 5 13 17 13c6 0 11 -1 15 -3l-3 -8c-4 2 -8 3 -12 3c-6 0 -8 -2 -8 -4c0 -8 25 -3 25 -19c0 -7 -6 -13 -19 -13c-6 0 -13 2 -16 5l3 7c3 -2 9 -4 14 -4zM250 620c0 13 10 22 23 22s23 -9 23 -22
s-10 -22 -23 -22s-23 9 -23 22zM286 620c0 8 -6 14 -13 14c-8 0 -13 -6 -13 -14s5 -13 13 -13c7 0 13 5 13 13zM326 642l21 -26v26h9v-43h-8l-21 26v-26h-9v43h8zM375 599l19 43h9l19 -43h-10l-4 9h-20l-3 -9h-10zM405 616l-7 16l-6 -16h13zM441 642h9v-35h21v-8h-30v43z
M522 642h10v-24c0 -8 3 -11 9 -11s9 3 9 11v24h10v-25c0 -12 -7 -19 -19 -19s-19 7 -19 19v25zM598 606c6 0 8 2 8 4c0 9 -24 3 -24 19c0 7 5 13 17 13c6 0 11 -1 15 -3l-3 -8c-4 2 -8 3 -12 3c-5 0 -8 -2 -8 -4c0 -8 24 -3 24 -19c0 -7 -5 -13 -17 -13c-7 0 -13 2 -17 5
l3 7c4 -2 9 -4 14 -4zM669 634h-23v-10h20v-8h-20v-9h23v-8h-32v43h32v-8zM720 620c0 13 10 22 23 22s23 -9 23 -22s-10 -22 -23 -22s-23 9 -23 22zM756 620c0 8 -6 14 -13 14c-8 0 -13 -6 -13 -14s5 -13 13 -13c7 0 13 5 13 13zM796 642l21 -26v26h9v-43h-8l-21 26v-26h-9
v43h8zM851 642h9v-35h21v-8h-30v43zM917 599h-10v15l-16 28h10l12 -20l10 20h10l-16 -28v-15zM37 138v-1h-11l-2 -10h-1l4 22h14l-1 -2h-12l-1 -9h10zM43 133c0 6 4 10 9 10c4 0 7 -2 7 -6c0 -6 -4 -10 -9 -10s-7 3 -7 6zM57 137c0 3 -2 5 -6 5s-7 -4 -7 -9c0 -3 3 -4 6 -4
c4 0 7 3 7 8zM67 143h1v-3c1 2 3 3 6 3v-2v0c-4 0 -6 -1 -7 -6l-2 -8h-1zM101 147c-6 0 -10 -5 -10 -11c0 -4 2 -7 7 -7c3 0 6 0 7 2l1 -1c-2 -2 -5 -3 -8 -3c-6 0 -9 3 -9 9c0 7 5 13 12 13c3 0 6 -2 8 -3l-2 -2c-1 2 -3 3 -6 3zM127 137c0 -6 -4 -10 -9 -10
c-4 0 -7 3 -7 6c0 6 4 10 9 10c4 0 7 -2 7 -6zM118 129c4 0 7 3 7 8c0 3 -2 5 -5 5c-4 0 -7 -4 -7 -9c0 -3 2 -4 5 -4zM135 143h2l-1 -3c2 2 4 3 6 3c3 0 5 -1 5 -3c2 2 4 3 7 3s5 -2 5 -5v-1l-2 -10h-1l2 10v1c0 2 -2 4 -4 4c-4 0 -6 -2 -7 -6l-2 -9h-1l2 10v1
c0 2 -1 4 -4 4s-6 -2 -7 -6l-1 -9h-2zM188 143c3 0 5 -2 5 -5v-1l-2 -10h-1l2 10v1c0 2 -1 4 -4 4s-6 -2 -7 -6l-1 -9h-2l2 10v1c0 2 -2 4 -5 4s-5 -2 -6 -6l-1 -9h-2l3 16h2l-1 -3c1 2 4 3 6 3c3 0 5 -1 6 -3c1 2 3 3 6 3zM215 135h-14v-2c0 -3 2 -4 6 -4c2 0 4 0 5 1l1 -1
c-1 -1 -4 -2 -6 -2c-4 0 -7 2 -7 6c0 6 3 10 8 10c4 0 7 -2 7 -6v-2zM208 142c-3 0 -6 -2 -7 -6h12v1c0 3 -2 5 -5 5zM223 143h2l-1 -3c2 2 3 3 6 3v-2v0c-4 0 -6 -1 -7 -6l-1 -8h-2zM242 142c-4 0 -7 -4 -7 -9c0 -3 3 -4 6 -4c2 0 4 0 5 1h1c-2 -2 -4 -3 -6 -3
c-5 0 -7 3 -7 6c0 6 4 10 8 10c3 0 5 -1 6 -3h-1c-1 1 -2 2 -5 2zM259 148c0 -1 0 -1 -2 -1c0 0 -1 0 -1 1s1 1 2 1s1 0 1 -1zM253 127l3 16h1l-3 -16h-1zM277 127h-1v3c-1 -2 -3 -3 -6 -3c-4 0 -7 2 -7 6c0 6 3 10 9 10c3 0 5 -2 6 -4l1 4h1zM270 129c4 0 7 3 7 8
c0 3 -2 5 -5 5c-4 0 -7 -4 -7 -9c0 -3 1 -4 5 -4zM287 127h-1l4 23h2zM295 123h-1l1 4v1c0 1 0 2 1 2s1 -1 1 -1v-2zM324 134h-6l-1 -7h-2l5 22h7c4 0 7 -3 7 -6c0 -6 -4 -9 -10 -9zM321 147l-3 -12h6c5 0 8 3 8 8c0 3 -2 4 -5 4h-6zM340 127h-2l5 23h1zM363 135h-13v-2
c0 -3 2 -4 6 -4c2 0 4 0 5 1l1 -1c-2 -1 -4 -2 -6 -2c-5 0 -8 2 -8 6c0 6 4 10 9 10c4 0 7 -2 7 -6c0 -1 0 -2 -1 -2zM357 142c-4 0 -6 -2 -7 -6h12v1c0 3 -2 5 -5 5zM384 143h2l-3 -16h-2l1 3c-2 -2 -4 -3 -6 -3c-5 0 -7 2 -7 6c0 6 4 10 8 10c3 0 6 -2 6 -4zM376 129
c4 0 7 3 7 8c0 3 -2 5 -6 5s-7 -4 -7 -9c0 -3 2 -4 6 -4zM395 129c4 0 6 1 6 3c0 4 -9 1 -9 6c0 3 2 5 6 5c2 0 4 0 5 -2v-1c-1 1 -3 2 -5 2c-3 0 -5 -2 -5 -4c0 -4 9 -1 9 -6c0 -3 -2 -5 -7 -5c-2 0 -4 1 -6 2l2 1c1 -1 3 -1 4 -1zM423 135h-14v-2c0 -3 2 -4 6 -4
c2 0 4 0 5 1l1 -1c-1 -1 -4 -2 -6 -2c-4 0 -7 2 -7 6c0 6 3 10 8 10c4 0 7 -2 7 -6v-2zM416 142c-3 0 -5 -2 -7 -6h12v1c0 3 -2 5 -5 5zM446 127h-1l-6 22h2l5 -20l12 20h1zM467 148c0 -1 -1 -1 -2 -1c0 0 -1 0 -1 1s1 1 1 1c1 0 2 0 2 -1zM461 127l3 16h1l-3 -16h-1z
M478 142c-3 0 -5 -2 -5 -4c0 -4 9 -1 9 -6c0 -3 -3 -5 -7 -5c-2 0 -5 1 -6 2l1 1c1 -1 3 -1 6 -1s4 1 4 3c0 4 -9 1 -9 6c0 3 3 5 7 5c2 0 4 0 5 -2l-1 -1c-1 1 -3 2 -4 2zM488 127l3 16h2l-4 -16h-1zM494 148c0 -1 -1 -1 -1 -1c-1 0 -2 0 -2 1s1 1 2 1c0 0 1 0 1 -1z
M502 146h1v-3h5v-2h-5l-2 -9c-1 -1 -1 -1 -1 -2s2 -2 3 -2s2 1 2 1l1 -1c-1 -1 -2 -1 -3 -1c-3 0 -4 1 -4 3v2l2 9h-2v2h3v3zM942 573v-3h-913v3h913zM942 671v-3h-913v3h913zM942 681v-2h-913v2h913zM30 25v2h913v-2h-913zM30 36v2h913v-2h-913zM517 135h426v-2h-426v2z
M603 212c-2 0 -4 -3 -4 -7s2 -7 4 -7s3 -2 2 -4c-2 -2 -6 -3 -11 -3c-8 0 -9 1 -7 10c1 7 0 11 -3 15c-4 2 -7 9 -7 15c0 8 2 10 8 10s6 -1 5 -10c-2 -11 -2 -12 4 -11s7 5 7 24c-1 19 1 22 5 20c5 -1 6 -5 6 -18c0 -20 -4 -34 -9 -34zM569 255c-5 -2 -6 -7 -6 -27
c0 -15 2 -27 4 -28c6 -4 3 -9 -5 -9s-8 0 -7 31c1 30 1 31 -6 29c-6 -2 -8 -1 -8 5s2 8 16 8c9 0 19 0 22 1c5 2 6 0 6 -7c0 -9 -6 -13 -8 -5c-1 3 -4 3 -8 2zM643 218c-10 -6 -15 -20 -7 -20c2 0 3 -2 2 -4s-6 -3 -9 -3c-6 0 -8 3 -8 36l-1 37h13c15 0 25 -8 25 -21
s-4 -20 -15 -25zM631 235c3 -12 8 -15 15 -7c10 10 3 28 -11 28c-7 0 -7 -4 -4 -21zM722 283c-10 4 -20 11 -23 16c-7 10 -11 10 -14 1c-1 -4 -7 -10 -13 -13c-13 -6 -35 -2 -45 9c-5 6 -8 6 -13 4c-12 -7 -26 -4 -37 7c-9 10 -10 13 -10 36c0 20 -2 26 -5 26
c-8 0 -13 -17 -13 -40c0 -21 -3 -27 -17 -30c-5 0 -8 -5 -9 -12c-6 -27 -21 -38 -43 -31c-13 5 -29 22 -32 35c-2 7 -4 8 -16 6c-12 -1 -17 0 -24 7l-10 8l-7 -9c-5 -8 -10 -10 -20 -10h-12v-20c0 -25 -9 -39 -27 -39c-7 0 -17 4 -22 8c-6 4 -12 15 -15 26
c-6 19 -6 30 -4 170c0 18 -1 32 -3 33c-5 2 -19 -27 -24 -49c-2 -10 -5 -47 -6 -82l-2 -63l-15 2c-8 1 -16 4 -19 6c-2 3 -4 26 -6 59c-2 60 -6 76 -17 76c-20 0 -40 -34 -40 -67c0 -23 7 -34 25 -37c26 -5 0 -15 -28 -11c-12 2 -20 6 -29 15c-12 12 -13 14 -12 36
c2 27 12 44 34 58c26 18 65 16 84 -3c9 -9 13 -6 13 9c0 3 2 14 5 24c14 45 51 52 70 14c6 -13 7 -22 6 -102c-1 -92 0 -107 9 -107c12 0 16 40 5 59c-14 22 -7 58 12 70c7 5 14 6 26 5c9 -1 16 -1 16 1c0 5 11 6 23 3l14 -3l1 -36c1 -56 8 -43 11 23c1 32 1 59 0 60
c0 0 -12 2 -26 3c-20 1 -29 0 -43 -6c-20 -9 -39 -8 -31 1c9 10 43 18 67 15c13 -1 26 -3 30 -4c8 -2 9 0 13 22c5 25 7 27 28 22c8 -3 8 -4 6 -30l-3 -26h10c8 0 9 1 11 14c7 45 45 76 79 66c17 -5 26 -15 28 -33c2 -20 -8 -37 -32 -49c-11 -5 -24 -9 -29 -9
c-9 0 -10 -2 -11 -16c-1 -8 -1 -20 0 -27v-11l11 10c9 9 13 11 21 9c19 -4 27 -16 31 -47c5 -35 12 -35 14 0c2 22 3 25 14 35c11 9 14 11 27 9c8 -1 18 -3 21 -4c4 -2 7 0 8 5c2 8 11 10 26 4l10 -4l-3 -36c-2 -31 -1 -38 4 -46c11 -17 29 -11 45 16c7 12 9 21 10 37
c0 24 -7 34 -25 39s-14 10 11 11c51 3 75 -40 46 -85c-12 -19 -28 -30 -53 -35c-18 -3 -22 -3 -37 2zM551 464c-13 -39 -12 -42 11 -30c25 13 37 35 29 56c-7 23 -29 9 -40 -26zM386 318c6 12 8 49 2 53c-11 7 -21 -19 -17 -48c3 -18 8 -20 15 -5zM496 275
c10 -15 13 -5 11 30c-1 18 -4 50 -5 71s-3 40 -6 41c-12 8 -13 3 -13 -41c0 -50 5 -88 13 -101zM672 303c7 13 9 49 3 57c-5 7 -5 7 -11 -3c-8 -11 -11 -31 -8 -48c2 -14 10 -17 16 -6zM697 252c-16 7 -25 4 -25 -8c0 -10 9 -13 13 -6c4 6 9 3 9 -6c0 -7 -1 -8 -10 -6
c-11 2 -12 2 -12 -11c0 -12 1 -13 9 -13c4 0 10 1 12 3c3 3 4 2 6 -3c1 -6 0 -8 -9 -8c-7 0 -15 -1 -20 -2c-6 -2 -7 0 -7 35v37h11c6 0 15 0 19 1c7 3 9 2 7 -6c0 -4 -2 -8 -3 -7zM84 58h-7l-12 39h8l5 -20c1 -4 2 -9 3 -13c1 4 3 9 4 13l7 20h6l6 -20c1 -4 2 -9 3 -13
c1 4 2 9 3 13l6 20h7l-13 -39h-6l-6 19c-1 4 -3 8 -4 12c-1 -4 -2 -8 -3 -13zM154 58h-7l-12 39h8l5 -20c1 -4 2 -9 3 -13c1 4 2 9 4 13l6 20h6l7 -20c1 -4 2 -9 3 -13c1 4 2 9 3 13l6 20h7l-13 -39h-6l-6 19c-2 4 -3 8 -4 12c-1 -4 -2 -8 -4 -13zM224 58h-7l-12 39h7l6 -20
c1 -4 2 -9 3 -13c1 4 2 9 3 13l7 20h6l6 -20c2 -4 3 -9 4 -13c1 4 2 9 3 13l6 20h7l-13 -39h-6l-6 19c-2 4 -3 8 -4 12c-1 -4 -2 -8 -4 -13zM279 57c-3 0 -5 2 -5 5s2 5 5 5c2 0 4 -2 4 -5s-1 -5 -4 -5zM335 58h-8v22c0 7 -2 13 -9 13c-5 0 -9 -4 -10 -8c0 -1 -1 -2 -1 -3
v-24h-7v28v11h6l1 -6c2 3 7 8 13 8s15 -4 15 -18v-23zM351 68c0 9 9 15 24 15c0 4 -1 10 -9 10c-4 0 -7 -1 -10 -3l-2 5c4 2 8 4 13 4c12 0 15 -9 15 -17v-15c0 -3 0 -6 1 -9h-7v4c-3 -3 -7 -5 -12 -5c-9 0 -13 5 -13 11zM376 78c-9 0 -17 -1 -17 -9c0 -5 3 -7 6 -7
c5 0 9 3 10 6c0 2 1 2 1 3v7zM421 92h-10v-22c0 -5 1 -8 5 -8c2 0 4 1 4 1l1 -5c-2 -1 -4 -1 -7 -1s-6 1 -8 3c-1 2 -3 5 -3 10v22h-6v5h6v10l8 2v-12h10v-5zM471 58h-7v22c0 7 -2 13 -9 13c-5 0 -8 -4 -10 -8v-3v-24h-8v58h8v-25c1 2 3 4 5 5s5 3 8 3c5 0 13 -4 13 -18v-23
zM504 99c12 0 15 -9 15 -17v-15c0 -3 1 -6 1 -9h-6l-1 4h-1c-2 -3 -6 -5 -12 -5c-7 0 -12 5 -12 11c0 9 9 15 24 15c0 4 -1 10 -9 10c-4 0 -7 -1 -10 -3l-2 5c3 2 8 4 13 4zM512 71v7c-7 0 -16 -1 -16 -9c0 -5 3 -7 6 -7c6 0 9 3 10 6v3zM541 107l6 2v-12h11v-5h-11v-22
c0 -5 2 -8 6 -8c2 0 3 1 4 1l1 -5c-2 -1 -4 -1 -7 -1s-6 1 -8 3s-2 5 -2 10v22h-7v5h7v10zM578 49c3 1 5 4 6 8c1 1 1 1 1 2v2l-15 36h7l10 -23c0 -3 1 -6 2 -8c1 2 2 5 2 8l9 23h7l-11 -28c-5 -14 -8 -20 -13 -25c-4 -3 -7 -5 -9 -5l-2 6c2 1 4 2 6 4zM629 41h-7v44
c0 4 0 9 -1 12h7l1 -6c3 5 8 8 14 8c9 0 16 -9 16 -21c0 -14 -8 -21 -18 -21c-4 0 -9 2 -12 6v-22zM629 80v-6v-3c2 -5 6 -9 11 -9c8 0 12 6 12 15s-4 16 -11 16c-5 0 -10 -4 -11 -10c-1 0 -1 -1 -1 -3zM709 79v-3h-28c0 -9 7 -14 14 -14c5 0 8 1 11 2l1 -5
c-2 -1 -7 -2 -13 -2c-12 0 -20 8 -20 20s7 22 19 22c13 0 16 -12 16 -20zM681 81h21c0 5 -2 12 -10 12c-7 0 -10 -7 -11 -12zM734 62c0 -3 -2 -5 -5 -5s-5 2 -5 5s2 5 5 5s5 -2 5 -5zM769 93c-9 0 -14 -7 -14 -16s6 -15 14 -15c4 0 7 2 9 2l1 -5c-1 -1 -6 -2 -11 -2
c-12 0 -20 8 -20 20s8 21 21 21c4 0 9 -1 10 -2l-1 -5c-2 0 -5 2 -9 2zM831 78c0 -15 -10 -21 -20 -21s-18 8 -18 20c0 14 8 22 20 22c11 0 18 -9 18 -21zM800 77c0 -9 5 -15 12 -15s12 6 12 15c0 7 -4 16 -12 16s-12 -8 -12 -16zM906 58h-7v22c0 8 -3 13 -9 13
c-4 0 -8 -4 -9 -7v-4v-24h-7v24c0 6 -3 11 -8 11s-8 -4 -9 -8c-1 -1 -1 -2 -1 -3v-24h-7v28v11h6v-6c3 4 6 8 13 8c5 0 10 -4 11 -9c2 3 3 4 5 6c2 1 5 3 9 3c5 0 13 -4 13 -18v-23z" />
    <glyph glyph-name="one" unicode="1" horiz-adv-x="964" 
d="M29 642h19c11 0 18 -6 18 -16s-7 -16 -18 -16h-9v-11h-10v43zM56 626c0 5 -3 8 -9 8h-8v-15h8c6 0 9 2 9 7zM119 634h-22v-10h19v-8h-19v-9h22v-8h-32v43h32v-8zM178 626c0 -7 -3 -11 -9 -13l9 -14h-10l-8 12h-9v-12h-9v43h18c11 0 18 -6 18 -16zM159 619c6 0 9 2 9 7
s-3 8 -9 8h-8v-15h8zM214 606c5 0 8 2 8 4c0 9 -24 3 -24 19c0 7 5 13 17 13c6 0 11 -1 15 -3l-3 -8c-4 2 -8 3 -12 3c-6 0 -8 -2 -8 -4c0 -8 25 -3 25 -19c0 -7 -6 -13 -19 -13c-6 0 -13 2 -16 5l3 7c3 -2 9 -4 14 -4zM250 620c0 13 10 22 23 22s23 -9 23 -22
s-10 -22 -23 -22s-23 9 -23 22zM286 620c0 8 -6 14 -13 14c-8 0 -13 -6 -13 -14s5 -13 13 -13c7 0 13 5 13 13zM326 642l21 -26v26h9v-43h-8l-21 26v-26h-9v43h8zM375 599l19 43h9l19 -43h-10l-4 9h-20l-3 -9h-10zM405 616l-7 16l-6 -16h13zM441 642h9v-35h21v-8h-30v43z
M522 642h10v-24c0 -8 3 -11 9 -11s9 3 9 11v24h10v-25c0 -12 -7 -19 -19 -19s-19 7 -19 19v25zM598 606c6 0 8 2 8 4c0 9 -24 3 -24 19c0 7 5 13 17 13c6 0 11 -1 15 -3l-3 -8c-4 2 -8 3 -12 3c-5 0 -8 -2 -8 -4c0 -8 24 -3 24 -19c0 -7 -5 -13 -17 -13c-7 0 -13 2 -17 5
l3 7c4 -2 9 -4 14 -4zM669 634h-23v-10h20v-8h-20v-9h23v-8h-32v43h32v-8zM720 620c0 13 10 22 23 22s23 -9 23 -22s-10 -22 -23 -22s-23 9 -23 22zM756 620c0 8 -6 14 -13 14c-8 0 -13 -6 -13 -14s5 -13 13 -13c7 0 13 5 13 13zM796 642l21 -26v26h9v-43h-8l-21 26v-26h-9
v43h8zM851 642h9v-35h21v-8h-30v43zM917 599h-10v15l-16 28h10l12 -20l10 20h10l-16 -28v-15zM37 138v-1h-11l-2 -10h-1l4 22h14l-1 -2h-12l-1 -9h10zM43 133c0 6 4 10 9 10c4 0 7 -2 7 -6c0 -6 -4 -10 -9 -10s-7 3 -7 6zM57 137c0 3 -2 5 -6 5s-7 -4 -7 -9c0 -3 3 -4 6 -4
c4 0 7 3 7 8zM67 143h1v-3c1 2 3 3 6 3v-2v0c-4 0 -6 -1 -7 -6l-2 -8h-1zM101 147c-6 0 -10 -5 -10 -11c0 -4 2 -7 7 -7c3 0 6 0 7 2l1 -1c-2 -2 -5 -3 -8 -3c-6 0 -9 3 -9 9c0 7 5 13 12 13c3 0 6 -2 8 -3l-2 -2c-1 2 -3 3 -6 3zM127 137c0 -6 -4 -10 -9 -10
c-4 0 -7 3 -7 6c0 6 4 10 9 10c4 0 7 -2 7 -6zM118 129c4 0 7 3 7 8c0 3 -2 5 -5 5c-4 0 -7 -4 -7 -9c0 -3 2 -4 5 -4zM135 143h2l-1 -3c2 2 4 3 6 3c3 0 5 -1 5 -3c2 2 4 3 7 3s5 -2 5 -5v-1l-2 -10h-1l2 10v1c0 2 -2 4 -4 4c-4 0 -6 -2 -7 -6l-2 -9h-1l2 10v1
c0 2 -1 4 -4 4s-6 -2 -7 -6l-1 -9h-2zM188 143c3 0 5 -2 5 -5v-1l-2 -10h-1l2 10v1c0 2 -1 4 -4 4s-6 -2 -7 -6l-1 -9h-2l2 10v1c0 2 -2 4 -5 4s-5 -2 -6 -6l-1 -9h-2l3 16h2l-1 -3c1 2 4 3 6 3c3 0 5 -1 6 -3c1 2 3 3 6 3zM215 135h-14v-2c0 -3 2 -4 6 -4c2 0 4 0 5 1l1 -1
c-1 -1 -4 -2 -6 -2c-4 0 -7 2 -7 6c0 6 3 10 8 10c4 0 7 -2 7 -6v-2zM208 142c-3 0 -6 -2 -7 -6h12v1c0 3 -2 5 -5 5zM223 143h2l-1 -3c2 2 3 3 6 3v-2v0c-4 0 -6 -1 -7 -6l-1 -8h-2zM242 142c-4 0 -7 -4 -7 -9c0 -3 3 -4 6 -4c2 0 4 0 5 1h1c-2 -2 -4 -3 -6 -3
c-5 0 -7 3 -7 6c0 6 4 10 8 10c3 0 5 -1 6 -3h-1c-1 1 -2 2 -5 2zM259 148c0 -1 0 -1 -2 -1c0 0 -1 0 -1 1s1 1 2 1s1 0 1 -1zM253 127l3 16h1l-3 -16h-1zM277 127h-1v3c-1 -2 -3 -3 -6 -3c-4 0 -7 2 -7 6c0 6 3 10 9 10c3 0 5 -2 6 -4l1 4h1zM270 129c4 0 7 3 7 8
c0 3 -2 5 -5 5c-4 0 -7 -4 -7 -9c0 -3 1 -4 5 -4zM287 127h-1l4 23h2zM295 123h-1l1 4v1c0 1 0 2 1 2s1 -1 1 -1v-2zM324 134h-6l-1 -7h-2l5 22h7c4 0 7 -3 7 -6c0 -6 -4 -9 -10 -9zM321 147l-3 -12h6c5 0 8 3 8 8c0 3 -2 4 -5 4h-6zM340 127h-2l5 23h1zM363 135h-13v-2
c0 -3 2 -4 6 -4c2 0 4 0 5 1l1 -1c-2 -1 -4 -2 -6 -2c-5 0 -8 2 -8 6c0 6 4 10 9 10c4 0 7 -2 7 -6c0 -1 0 -2 -1 -2zM357 142c-4 0 -6 -2 -7 -6h12v1c0 3 -2 5 -5 5zM384 143h2l-3 -16h-2l1 3c-2 -2 -4 -3 -6 -3c-5 0 -7 2 -7 6c0 6 4 10 8 10c3 0 6 -2 6 -4zM376 129
c4 0 7 3 7 8c0 3 -2 5 -6 5s-7 -4 -7 -9c0 -3 2 -4 6 -4zM395 129c4 0 6 1 6 3c0 4 -9 1 -9 6c0 3 2 5 6 5c2 0 4 0 5 -2v-1c-1 1 -3 2 -5 2c-3 0 -5 -2 -5 -4c0 -4 9 -1 9 -6c0 -3 -2 -5 -7 -5c-2 0 -4 1 -6 2l2 1c1 -1 3 -1 4 -1zM423 135h-14v-2c0 -3 2 -4 6 -4
c2 0 4 0 5 1l1 -1c-1 -1 -4 -2 -6 -2c-4 0 -7 2 -7 6c0 6 3 10 8 10c4 0 7 -2 7 -6v-2zM416 142c-3 0 -5 -2 -7 -6h12v1c0 3 -2 5 -5 5zM446 127h-1l-6 22h2l5 -20l12 20h1zM467 148c0 -1 -1 -1 -2 -1c0 0 -1 0 -1 1s1 1 1 1c1 0 2 0 2 -1zM461 127l3 16h1l-3 -16h-1z
M478 142c-3 0 -5 -2 -5 -4c0 -4 9 -1 9 -6c0 -3 -3 -5 -7 -5c-2 0 -5 1 -6 2l1 1c1 -1 3 -1 6 -1s4 1 4 3c0 4 -9 1 -9 6c0 3 3 5 7 5c2 0 4 0 5 -2l-1 -1c-1 1 -3 2 -4 2zM488 127l3 16h2l-4 -16h-1zM494 148c0 -1 -1 -1 -1 -1c-1 0 -2 0 -2 1s1 1 2 1c0 0 1 0 1 -1z
M502 146h1v-3h5v-2h-5l-2 -9c-1 -1 -1 -1 -1 -2s2 -2 3 -2s2 1 2 1l1 -1c-1 -1 -2 -1 -3 -1c-3 0 -4 1 -4 3v2l2 9h-2v2h3v3zM942 573v-3h-913v3h913zM942 671v-3h-913v3h913zM942 681v-2h-913v2h913zM30 25v2h913v-2h-913zM30 36v2h913v-2h-913zM517 135h426v-2h-426v2z
M603 212c-2 0 -4 -3 -4 -7s2 -7 4 -7s3 -2 2 -4c-2 -2 -6 -3 -11 -3c-8 0 -9 1 -7 10c1 7 0 11 -3 15c-4 2 -7 9 -7 15c0 8 2 10 8 10s6 -1 5 -10c-2 -11 -2 -12 4 -11s7 5 7 24c-1 19 1 22 5 20c5 -1 6 -5 6 -18c0 -20 -4 -34 -9 -34zM569 255c-5 -2 -6 -7 -6 -27
c0 -15 2 -27 4 -28c6 -4 3 -9 -5 -9s-8 0 -7 31c1 30 1 31 -6 29c-6 -2 -8 -1 -8 5s2 8 16 8c9 0 19 0 22 1c5 2 6 0 6 -7c0 -9 -6 -13 -8 -5c-1 3 -4 3 -8 2zM643 218c-10 -6 -15 -20 -7 -20c2 0 3 -2 2 -4s-6 -3 -9 -3c-6 0 -8 3 -8 36l-1 37h13c15 0 25 -8 25 -21
s-4 -20 -15 -25zM631 235c3 -12 8 -15 15 -7c10 10 3 28 -11 28c-7 0 -7 -4 -4 -21zM722 283c-10 4 -20 11 -23 16c-7 10 -11 10 -14 1c-1 -4 -7 -10 -13 -13c-13 -6 -35 -2 -45 9c-5 6 -8 6 -13 4c-12 -7 -26 -4 -37 7c-9 10 -10 13 -10 36c0 20 -2 26 -5 26
c-8 0 -13 -17 -13 -40c0 -21 -3 -27 -17 -30c-5 0 -8 -5 -9 -12c-6 -27 -21 -38 -43 -31c-13 5 -29 22 -32 35c-2 7 -4 8 -16 6c-12 -1 -17 0 -24 7l-10 8l-7 -9c-5 -8 -10 -10 -20 -10h-12v-20c0 -25 -9 -39 -27 -39c-7 0 -17 4 -22 8c-6 4 -12 15 -15 26
c-6 19 -6 30 -4 170c0 18 -1 32 -3 33c-5 2 -19 -27 -24 -49c-2 -10 -5 -47 -6 -82l-2 -63l-15 2c-8 1 -16 4 -19 6c-2 3 -4 26 -6 59c-2 60 -6 76 -17 76c-20 0 -40 -34 -40 -67c0 -23 7 -34 25 -37c26 -5 0 -15 -28 -11c-12 2 -20 6 -29 15c-12 12 -13 14 -12 36
c2 27 12 44 34 58c26 18 65 16 84 -3c9 -9 13 -6 13 9c0 3 2 14 5 24c14 45 51 52 70 14c6 -13 7 -22 6 -102c-1 -92 0 -107 9 -107c12 0 16 40 5 59c-14 22 -7 58 12 70c7 5 14 6 26 5c9 -1 16 -1 16 1c0 5 11 6 23 3l14 -3l1 -36c1 -56 8 -43 11 23c1 32 1 59 0 60
c0 0 -12 2 -26 3c-20 1 -29 0 -43 -6c-20 -9 -39 -8 -31 1c9 10 43 18 67 15c13 -1 26 -3 30 -4c8 -2 9 0 13 22c5 25 7 27 28 22c8 -3 8 -4 6 -30l-3 -26h10c8 0 9 1 11 14c7 45 45 76 79 66c17 -5 26 -15 28 -33c2 -20 -8 -37 -32 -49c-11 -5 -24 -9 -29 -9
c-9 0 -10 -2 -11 -16c-1 -8 -1 -20 0 -27v-11l11 10c9 9 13 11 21 9c19 -4 27 -16 31 -47c5 -35 12 -35 14 0c2 22 3 25 14 35c11 9 14 11 27 9c8 -1 18 -3 21 -4c4 -2 7 0 8 5c2 8 11 10 26 4l10 -4l-3 -36c-2 -31 -1 -38 4 -46c11 -17 29 -11 45 16c7 12 9 21 10 37
c0 24 -7 34 -25 39s-14 10 11 11c51 3 75 -40 46 -85c-12 -19 -28 -30 -53 -35c-18 -3 -22 -3 -37 2zM551 464c-13 -39 -12 -42 11 -30c25 13 37 35 29 56c-7 23 -29 9 -40 -26zM386 318c6 12 8 49 2 53c-11 7 -21 -19 -17 -48c3 -18 8 -20 15 -5zM496 275
c10 -15 13 -5 11 30c-1 18 -4 50 -5 71s-3 40 -6 41c-12 8 -13 3 -13 -41c0 -50 5 -88 13 -101zM672 303c7 13 9 49 3 57c-5 7 -5 7 -11 -3c-8 -11 -11 -31 -8 -48c2 -14 10 -17 16 -6zM697 252c-16 7 -25 4 -25 -8c0 -10 9 -13 13 -6c4 6 9 3 9 -6c0 -7 -1 -8 -10 -6
c-11 2 -12 2 -12 -11c0 -12 1 -13 9 -13c4 0 10 1 12 3c3 3 4 2 6 -3c1 -6 0 -8 -9 -8c-7 0 -15 -1 -20 -2c-6 -2 -7 0 -7 35v37h11c6 0 15 0 19 1c7 3 9 2 7 -6c0 -4 -2 -8 -3 -7zM84 58h-7l-12 39h8l5 -20c1 -4 2 -9 3 -13c1 4 3 9 4 13l7 20h6l6 -20c1 -4 2 -9 3 -13
c1 4 2 9 3 13l6 20h7l-13 -39h-6l-6 19c-1 4 -3 8 -4 12c-1 -4 -2 -8 -3 -13zM154 58h-7l-12 39h8l5 -20c1 -4 2 -9 3 -13c1 4 2 9 4 13l6 20h6l7 -20c1 -4 2 -9 3 -13c1 4 2 9 3 13l6 20h7l-13 -39h-6l-6 19c-2 4 -3 8 -4 12c-1 -4 -2 -8 -4 -13zM224 58h-7l-12 39h7l6 -20
c1 -4 2 -9 3 -13c1 4 2 9 3 13l7 20h6l6 -20c2 -4 3 -9 4 -13c1 4 2 9 3 13l6 20h7l-13 -39h-6l-6 19c-2 4 -3 8 -4 12c-1 -4 -2 -8 -4 -13zM279 57c-3 0 -5 2 -5 5s2 5 5 5c2 0 4 -2 4 -5s-1 -5 -4 -5zM335 58h-8v22c0 7 -2 13 -9 13c-5 0 -9 -4 -10 -8c0 -1 -1 -2 -1 -3
v-24h-7v28v11h6l1 -6c2 3 7 8 13 8s15 -4 15 -18v-23zM351 68c0 9 9 15 24 15c0 4 -1 10 -9 10c-4 0 -7 -1 -10 -3l-2 5c4 2 8 4 13 4c12 0 15 -9 15 -17v-15c0 -3 0 -6 1 -9h-7v4c-3 -3 -7 -5 -12 -5c-9 0 -13 5 -13 11zM376 78c-9 0 -17 -1 -17 -9c0 -5 3 -7 6 -7
c5 0 9 3 10 6c0 2 1 2 1 3v7zM421 92h-10v-22c0 -5 1 -8 5 -8c2 0 4 1 4 1l1 -5c-2 -1 -4 -1 -7 -1s-6 1 -8 3c-1 2 -3 5 -3 10v22h-6v5h6v10l8 2v-12h10v-5zM471 58h-7v22c0 7 -2 13 -9 13c-5 0 -8 -4 -10 -8v-3v-24h-8v58h8v-25c1 2 3 4 5 5s5 3 8 3c5 0 13 -4 13 -18v-23
zM504 99c12 0 15 -9 15 -17v-15c0 -3 1 -6 1 -9h-6l-1 4h-1c-2 -3 -6 -5 -12 -5c-7 0 -12 5 -12 11c0 9 9 15 24 15c0 4 -1 10 -9 10c-4 0 -7 -1 -10 -3l-2 5c3 2 8 4 13 4zM512 71v7c-7 0 -16 -1 -16 -9c0 -5 3 -7 6 -7c6 0 9 3 10 6v3zM541 107l6 2v-12h11v-5h-11v-22
c0 -5 2 -8 6 -8c2 0 3 1 4 1l1 -5c-2 -1 -4 -1 -7 -1s-6 1 -8 3s-2 5 -2 10v22h-7v5h7v10zM578 49c3 1 5 4 6 8c1 1 1 1 1 2v2l-15 36h7l10 -23c0 -3 1 -6 2 -8c1 2 2 5 2 8l9 23h7l-11 -28c-5 -14 -8 -20 -13 -25c-4 -3 -7 -5 -9 -5l-2 6c2 1 4 2 6 4zM629 41h-7v44
c0 4 0 9 -1 12h7l1 -6c3 5 8 8 14 8c9 0 16 -9 16 -21c0 -14 -8 -21 -18 -21c-4 0 -9 2 -12 6v-22zM629 80v-6v-3c2 -5 6 -9 11 -9c8 0 12 6 12 15s-4 16 -11 16c-5 0 -10 -4 -11 -10c-1 0 -1 -1 -1 -3zM709 79v-3h-28c0 -9 7 -14 14 -14c5 0 8 1 11 2l1 -5
c-2 -1 -7 -2 -13 -2c-12 0 -20 8 -20 20s7 22 19 22c13 0 16 -12 16 -20zM681 81h21c0 5 -2 12 -10 12c-7 0 -10 -7 -11 -12zM734 62c0 -3 -2 -5 -5 -5s-5 2 -5 5s2 5 5 5s5 -2 5 -5zM769 93c-9 0 -14 -7 -14 -16s6 -15 14 -15c4 0 7 2 9 2l1 -5c-1 -1 -6 -2 -11 -2
c-12 0 -20 8 -20 20s8 21 21 21c4 0 9 -1 10 -2l-1 -5c-2 0 -5 2 -9 2zM831 78c0 -15 -10 -21 -20 -21s-18 8 -18 20c0 14 8 22 20 22c11 0 18 -9 18 -21zM800 77c0 -9 5 -15 12 -15s12 6 12 15c0 7 -4 16 -12 16s-12 -8 -12 -16zM906 58h-7v22c0 8 -3 13 -9 13
c-4 0 -8 -4 -9 -7v-4v-24h-7v24c0 6 -3 11 -8 11s-8 -4 -9 -8c-1 -1 -1 -2 -1 -3v-24h-7v28v11h6v-6c3 4 6 8 13 8c5 0 10 -4 11 -9c2 3 3 4 5 6c2 1 5 3 9 3c5 0 13 -4 13 -18v-23z" />
    <glyph glyph-name="two" unicode="2" horiz-adv-x="964" 
d="M29 642h19c11 0 18 -6 18 -16s-7 -16 -18 -16h-9v-11h-10v43zM56 626c0 5 -3 8 -9 8h-8v-15h8c6 0 9 2 9 7zM119 634h-22v-10h19v-8h-19v-9h22v-8h-32v43h32v-8zM178 626c0 -7 -3 -11 -9 -13l9 -14h-10l-8 12h-9v-12h-9v43h18c11 0 18 -6 18 -16zM159 619c6 0 9 2 9 7
s-3 8 -9 8h-8v-15h8zM214 606c5 0 8 2 8 4c0 9 -24 3 -24 19c0 7 5 13 17 13c6 0 11 -1 15 -3l-3 -8c-4 2 -8 3 -12 3c-6 0 -8 -2 -8 -4c0 -8 25 -3 25 -19c0 -7 -6 -13 -19 -13c-6 0 -13 2 -16 5l3 7c3 -2 9 -4 14 -4zM250 620c0 13 10 22 23 22s23 -9 23 -22
s-10 -22 -23 -22s-23 9 -23 22zM286 620c0 8 -6 14 -13 14c-8 0 -13 -6 -13 -14s5 -13 13 -13c7 0 13 5 13 13zM326 642l21 -26v26h9v-43h-8l-21 26v-26h-9v43h8zM375 599l19 43h9l19 -43h-10l-4 9h-20l-3 -9h-10zM405 616l-7 16l-6 -16h13zM441 642h9v-35h21v-8h-30v43z
M522 642h10v-24c0 -8 3 -11 9 -11s9 3 9 11v24h10v-25c0 -12 -7 -19 -19 -19s-19 7 -19 19v25zM598 606c6 0 8 2 8 4c0 9 -24 3 -24 19c0 7 5 13 17 13c6 0 11 -1 15 -3l-3 -8c-4 2 -8 3 -12 3c-5 0 -8 -2 -8 -4c0 -8 24 -3 24 -19c0 -7 -5 -13 -17 -13c-7 0 -13 2 -17 5
l3 7c4 -2 9 -4 14 -4zM669 634h-23v-10h20v-8h-20v-9h23v-8h-32v43h32v-8zM720 620c0 13 10 22 23 22s23 -9 23 -22s-10 -22 -23 -22s-23 9 -23 22zM756 620c0 8 -6 14 -13 14c-8 0 -13 -6 -13 -14s5 -13 13 -13c7 0 13 5 13 13zM796 642l21 -26v26h9v-43h-8l-21 26v-26h-9
v43h8zM851 642h9v-35h21v-8h-30v43zM917 599h-10v15l-16 28h10l12 -20l10 20h10l-16 -28v-15zM37 138v-1h-11l-2 -10h-1l4 22h14l-1 -2h-12l-1 -9h10zM43 133c0 6 4 10 9 10c4 0 7 -2 7 -6c0 -6 -4 -10 -9 -10s-7 3 -7 6zM57 137c0 3 -2 5 -6 5s-7 -4 -7 -9c0 -3 3 -4 6 -4
c4 0 7 3 7 8zM67 143h1v-3c1 2 3 3 6 3v-2v0c-4 0 -6 -1 -7 -6l-2 -8h-1zM101 147c-6 0 -10 -5 -10 -11c0 -4 2 -7 7 -7c3 0 6 0 7 2l1 -1c-2 -2 -5 -3 -8 -3c-6 0 -9 3 -9 9c0 7 5 13 12 13c3 0 6 -2 8 -3l-2 -2c-1 2 -3 3 -6 3zM127 137c0 -6 -4 -10 -9 -10
c-4 0 -7 3 -7 6c0 6 4 10 9 10c4 0 7 -2 7 -6zM118 129c4 0 7 3 7 8c0 3 -2 5 -5 5c-4 0 -7 -4 -7 -9c0 -3 2 -4 5 -4zM135 143h2l-1 -3c2 2 4 3 6 3c3 0 5 -1 5 -3c2 2 4 3 7 3s5 -2 5 -5v-1l-2 -10h-1l2 10v1c0 2 -2 4 -4 4c-4 0 -6 -2 -7 -6l-2 -9h-1l2 10v1
c0 2 -1 4 -4 4s-6 -2 -7 -6l-1 -9h-2zM188 143c3 0 5 -2 5 -5v-1l-2 -10h-1l2 10v1c0 2 -1 4 -4 4s-6 -2 -7 -6l-1 -9h-2l2 10v1c0 2 -2 4 -5 4s-5 -2 -6 -6l-1 -9h-2l3 16h2l-1 -3c1 2 4 3 6 3c3 0 5 -1 6 -3c1 2 3 3 6 3zM215 135h-14v-2c0 -3 2 -4 6 -4c2 0 4 0 5 1l1 -1
c-1 -1 -4 -2 -6 -2c-4 0 -7 2 -7 6c0 6 3 10 8 10c4 0 7 -2 7 -6v-2zM208 142c-3 0 -6 -2 -7 -6h12v1c0 3 -2 5 -5 5zM223 143h2l-1 -3c2 2 3 3 6 3v-2v0c-4 0 -6 -1 -7 -6l-1 -8h-2zM242 142c-4 0 -7 -4 -7 -9c0 -3 3 -4 6 -4c2 0 4 0 5 1h1c-2 -2 -4 -3 -6 -3
c-5 0 -7 3 -7 6c0 6 4 10 8 10c3 0 5 -1 6 -3h-1c-1 1 -2 2 -5 2zM259 148c0 -1 0 -1 -2 -1c0 0 -1 0 -1 1s1 1 2 1s1 0 1 -1zM253 127l3 16h1l-3 -16h-1zM277 127h-1v3c-1 -2 -3 -3 -6 -3c-4 0 -7 2 -7 6c0 6 3 10 9 10c3 0 5 -2 6 -4l1 4h1zM270 129c4 0 7 3 7 8
c0 3 -2 5 -5 5c-4 0 -7 -4 -7 -9c0 -3 1 -4 5 -4zM287 127h-1l4 23h2zM295 123h-1l1 4v1c0 1 0 2 1 2s1 -1 1 -1v-2zM324 134h-6l-1 -7h-2l5 22h7c4 0 7 -3 7 -6c0 -6 -4 -9 -10 -9zM321 147l-3 -12h6c5 0 8 3 8 8c0 3 -2 4 -5 4h-6zM340 127h-2l5 23h1zM363 135h-13v-2
c0 -3 2 -4 6 -4c2 0 4 0 5 1l1 -1c-2 -1 -4 -2 -6 -2c-5 0 -8 2 -8 6c0 6 4 10 9 10c4 0 7 -2 7 -6c0 -1 0 -2 -1 -2zM357 142c-4 0 -6 -2 -7 -6h12v1c0 3 -2 5 -5 5zM384 143h2l-3 -16h-2l1 3c-2 -2 -4 -3 -6 -3c-5 0 -7 2 -7 6c0 6 4 10 8 10c3 0 6 -2 6 -4zM376 129
c4 0 7 3 7 8c0 3 -2 5 -6 5s-7 -4 -7 -9c0 -3 2 -4 6 -4zM395 129c4 0 6 1 6 3c0 4 -9 1 -9 6c0 3 2 5 6 5c2 0 4 0 5 -2v-1c-1 1 -3 2 -5 2c-3 0 -5 -2 -5 -4c0 -4 9 -1 9 -6c0 -3 -2 -5 -7 -5c-2 0 -4 1 -6 2l2 1c1 -1 3 -1 4 -1zM423 135h-14v-2c0 -3 2 -4 6 -4
c2 0 4 0 5 1l1 -1c-1 -1 -4 -2 -6 -2c-4 0 -7 2 -7 6c0 6 3 10 8 10c4 0 7 -2 7 -6v-2zM416 142c-3 0 -5 -2 -7 -6h12v1c0 3 -2 5 -5 5zM446 127h-1l-6 22h2l5 -20l12 20h1zM467 148c0 -1 -1 -1 -2 -1c0 0 -1 0 -1 1s1 1 1 1c1 0 2 0 2 -1zM461 127l3 16h1l-3 -16h-1z
M478 142c-3 0 -5 -2 -5 -4c0 -4 9 -1 9 -6c0 -3 -3 -5 -7 -5c-2 0 -5 1 -6 2l1 1c1 -1 3 -1 6 -1s4 1 4 3c0 4 -9 1 -9 6c0 3 3 5 7 5c2 0 4 0 5 -2l-1 -1c-1 1 -3 2 -4 2zM488 127l3 16h2l-4 -16h-1zM494 148c0 -1 -1 -1 -1 -1c-1 0 -2 0 -2 1s1 1 2 1c0 0 1 0 1 -1z
M502 146h1v-3h5v-2h-5l-2 -9c-1 -1 -1 -1 -1 -2s2 -2 3 -2s2 1 2 1l1 -1c-1 -1 -2 -1 -3 -1c-3 0 -4 1 -4 3v2l2 9h-2v2h3v3zM942 573v-3h-913v3h913zM942 671v-3h-913v3h913zM942 681v-2h-913v2h913zM30 25v2h913v-2h-913zM30 36v2h913v-2h-913zM517 135h426v-2h-426v2z
M603 212c-2 0 -4 -3 -4 -7s2 -7 4 -7s3 -2 2 -4c-2 -2 -6 -3 -11 -3c-8 0 -9 1 -7 10c1 7 0 11 -3 15c-4 2 -7 9 -7 15c0 8 2 10 8 10s6 -1 5 -10c-2 -11 -2 -12 4 -11s7 5 7 24c-1 19 1 22 5 20c5 -1 6 -5 6 -18c0 -20 -4 -34 -9 -34zM569 255c-5 -2 -6 -7 -6 -27
c0 -15 2 -27 4 -28c6 -4 3 -9 -5 -9s-8 0 -7 31c1 30 1 31 -6 29c-6 -2 -8 -1 -8 5s2 8 16 8c9 0 19 0 22 1c5 2 6 0 6 -7c0 -9 -6 -13 -8 -5c-1 3 -4 3 -8 2zM643 218c-10 -6 -15 -20 -7 -20c2 0 3 -2 2 -4s-6 -3 -9 -3c-6 0 -8 3 -8 36l-1 37h13c15 0 25 -8 25 -21
s-4 -20 -15 -25zM631 235c3 -12 8 -15 15 -7c10 10 3 28 -11 28c-7 0 -7 -4 -4 -21zM722 283c-10 4 -20 11 -23 16c-7 10 -11 10 -14 1c-1 -4 -7 -10 -13 -13c-13 -6 -35 -2 -45 9c-5 6 -8 6 -13 4c-12 -7 -26 -4 -37 7c-9 10 -10 13 -10 36c0 20 -2 26 -5 26
c-8 0 -13 -17 -13 -40c0 -21 -3 -27 -17 -30c-5 0 -8 -5 -9 -12c-6 -27 -21 -38 -43 -31c-13 5 -29 22 -32 35c-2 7 -4 8 -16 6c-12 -1 -17 0 -24 7l-10 8l-7 -9c-5 -8 -10 -10 -20 -10h-12v-20c0 -25 -9 -39 -27 -39c-7 0 -17 4 -22 8c-6 4 -12 15 -15 26
c-6 19 -6 30 -4 170c0 18 -1 32 -3 33c-5 2 -19 -27 -24 -49c-2 -10 -5 -47 -6 -82l-2 -63l-15 2c-8 1 -16 4 -19 6c-2 3 -4 26 -6 59c-2 60 -6 76 -17 76c-20 0 -40 -34 -40 -67c0 -23 7 -34 25 -37c26 -5 0 -15 -28 -11c-12 2 -20 6 -29 15c-12 12 -13 14 -12 36
c2 27 12 44 34 58c26 18 65 16 84 -3c9 -9 13 -6 13 9c0 3 2 14 5 24c14 45 51 52 70 14c6 -13 7 -22 6 -102c-1 -92 0 -107 9 -107c12 0 16 40 5 59c-14 22 -7 58 12 70c7 5 14 6 26 5c9 -1 16 -1 16 1c0 5 11 6 23 3l14 -3l1 -36c1 -56 8 -43 11 23c1 32 1 59 0 60
c0 0 -12 2 -26 3c-20 1 -29 0 -43 -6c-20 -9 -39 -8 -31 1c9 10 43 18 67 15c13 -1 26 -3 30 -4c8 -2 9 0 13 22c5 25 7 27 28 22c8 -3 8 -4 6 -30l-3 -26h10c8 0 9 1 11 14c7 45 45 76 79 66c17 -5 26 -15 28 -33c2 -20 -8 -37 -32 -49c-11 -5 -24 -9 -29 -9
c-9 0 -10 -2 -11 -16c-1 -8 -1 -20 0 -27v-11l11 10c9 9 13 11 21 9c19 -4 27 -16 31 -47c5 -35 12 -35 14 0c2 22 3 25 14 35c11 9 14 11 27 9c8 -1 18 -3 21 -4c4 -2 7 0 8 5c2 8 11 10 26 4l10 -4l-3 -36c-2 -31 -1 -38 4 -46c11 -17 29 -11 45 16c7 12 9 21 10 37
c0 24 -7 34 -25 39s-14 10 11 11c51 3 75 -40 46 -85c-12 -19 -28 -30 -53 -35c-18 -3 -22 -3 -37 2zM551 464c-13 -39 -12 -42 11 -30c25 13 37 35 29 56c-7 23 -29 9 -40 -26zM386 318c6 12 8 49 2 53c-11 7 -21 -19 -17 -48c3 -18 8 -20 15 -5zM496 275
c10 -15 13 -5 11 30c-1 18 -4 50 -5 71s-3 40 -6 41c-12 8 -13 3 -13 -41c0 -50 5 -88 13 -101zM672 303c7 13 9 49 3 57c-5 7 -5 7 -11 -3c-8 -11 -11 -31 -8 -48c2 -14 10 -17 16 -6zM697 252c-16 7 -25 4 -25 -8c0 -10 9 -13 13 -6c4 6 9 3 9 -6c0 -7 -1 -8 -10 -6
c-11 2 -12 2 -12 -11c0 -12 1 -13 9 -13c4 0 10 1 12 3c3 3 4 2 6 -3c1 -6 0 -8 -9 -8c-7 0 -15 -1 -20 -2c-6 -2 -7 0 -7 35v37h11c6 0 15 0 19 1c7 3 9 2 7 -6c0 -4 -2 -8 -3 -7zM84 58h-7l-12 39h8l5 -20c1 -4 2 -9 3 -13c1 4 3 9 4 13l7 20h6l6 -20c1 -4 2 -9 3 -13
c1 4 2 9 3 13l6 20h7l-13 -39h-6l-6 19c-1 4 -3 8 -4 12c-1 -4 -2 -8 -3 -13zM154 58h-7l-12 39h8l5 -20c1 -4 2 -9 3 -13c1 4 2 9 4 13l6 20h6l7 -20c1 -4 2 -9 3 -13c1 4 2 9 3 13l6 20h7l-13 -39h-6l-6 19c-2 4 -3 8 -4 12c-1 -4 -2 -8 -4 -13zM224 58h-7l-12 39h7l6 -20
c1 -4 2 -9 3 -13c1 4 2 9 3 13l7 20h6l6 -20c2 -4 3 -9 4 -13c1 4 2 9 3 13l6 20h7l-13 -39h-6l-6 19c-2 4 -3 8 -4 12c-1 -4 -2 -8 -4 -13zM279 57c-3 0 -5 2 -5 5s2 5 5 5c2 0 4 -2 4 -5s-1 -5 -4 -5zM335 58h-8v22c0 7 -2 13 -9 13c-5 0 -9 -4 -10 -8c0 -1 -1 -2 -1 -3
v-24h-7v28v11h6l1 -6c2 3 7 8 13 8s15 -4 15 -18v-23zM351 68c0 9 9 15 24 15c0 4 -1 10 -9 10c-4 0 -7 -1 -10 -3l-2 5c4 2 8 4 13 4c12 0 15 -9 15 -17v-15c0 -3 0 -6 1 -9h-7v4c-3 -3 -7 -5 -12 -5c-9 0 -13 5 -13 11zM376 78c-9 0 -17 -1 -17 -9c0 -5 3 -7 6 -7
c5 0 9 3 10 6c0 2 1 2 1 3v7zM421 92h-10v-22c0 -5 1 -8 5 -8c2 0 4 1 4 1l1 -5c-2 -1 -4 -1 -7 -1s-6 1 -8 3c-1 2 -3 5 -3 10v22h-6v5h6v10l8 2v-12h10v-5zM471 58h-7v22c0 7 -2 13 -9 13c-5 0 -8 -4 -10 -8v-3v-24h-8v58h8v-25c1 2 3 4 5 5s5 3 8 3c5 0 13 -4 13 -18v-23
zM504 99c12 0 15 -9 15 -17v-15c0 -3 1 -6 1 -9h-6l-1 4h-1c-2 -3 -6 -5 -12 -5c-7 0 -12 5 -12 11c0 9 9 15 24 15c0 4 -1 10 -9 10c-4 0 -7 -1 -10 -3l-2 5c3 2 8 4 13 4zM512 71v7c-7 0 -16 -1 -16 -9c0 -5 3 -7 6 -7c6 0 9 3 10 6v3zM541 107l6 2v-12h11v-5h-11v-22
c0 -5 2 -8 6 -8c2 0 3 1 4 1l1 -5c-2 -1 -4 -1 -7 -1s-6 1 -8 3s-2 5 -2 10v22h-7v5h7v10zM578 49c3 1 5 4 6 8c1 1 1 1 1 2v2l-15 36h7l10 -23c0 -3 1 -6 2 -8c1 2 2 5 2 8l9 23h7l-11 -28c-5 -14 -8 -20 -13 -25c-4 -3 -7 -5 -9 -5l-2 6c2 1 4 2 6 4zM629 41h-7v44
c0 4 0 9 -1 12h7l1 -6c3 5 8 8 14 8c9 0 16 -9 16 -21c0 -14 -8 -21 -18 -21c-4 0 -9 2 -12 6v-22zM629 80v-6v-3c2 -5 6 -9 11 -9c8 0 12 6 12 15s-4 16 -11 16c-5 0 -10 -4 -11 -10c-1 0 -1 -1 -1 -3zM709 79v-3h-28c0 -9 7 -14 14 -14c5 0 8 1 11 2l1 -5
c-2 -1 -7 -2 -13 -2c-12 0 -20 8 -20 20s7 22 19 22c13 0 16 -12 16 -20zM681 81h21c0 5 -2 12 -10 12c-7 0 -10 -7 -11 -12zM734 62c0 -3 -2 -5 -5 -5s-5 2 -5 5s2 5 5 5s5 -2 5 -5zM769 93c-9 0 -14 -7 -14 -16s6 -15 14 -15c4 0 7 2 9 2l1 -5c-1 -1 -6 -2 -11 -2
c-12 0 -20 8 -20 20s8 21 21 21c4 0 9 -1 10 -2l-1 -5c-2 0 -5 2 -9 2zM831 78c0 -15 -10 -21 -20 -21s-18 8 -18 20c0 14 8 22 20 22c11 0 18 -9 18 -21zM800 77c0 -9 5 -15 12 -15s12 6 12 15c0 7 -4 16 -12 16s-12 -8 -12 -16zM906 58h-7v22c0 8 -3 13 -9 13
c-4 0 -8 -4 -9 -7v-4v-24h-7v24c0 6 -3 11 -8 11s-8 -4 -9 -8c-1 -1 -1 -2 -1 -3v-24h-7v28v11h6v-6c3 4 6 8 13 8c5 0 10 -4 11 -9c2 3 3 4 5 6c2 1 5 3 9 3c5 0 13 -4 13 -18v-23z" />
    <glyph glyph-name="three" unicode="3" horiz-adv-x="964" 
d="M29 642h19c11 0 18 -6 18 -16s-7 -16 -18 -16h-9v-11h-10v43zM56 626c0 5 -3 8 -9 8h-8v-15h8c6 0 9 2 9 7zM119 634h-22v-10h19v-8h-19v-9h22v-8h-32v43h32v-8zM178 626c0 -7 -3 -11 -9 -13l9 -14h-10l-8 12h-9v-12h-9v43h18c11 0 18 -6 18 -16zM159 619c6 0 9 2 9 7
s-3 8 -9 8h-8v-15h8zM214 606c5 0 8 2 8 4c0 9 -24 3 -24 19c0 7 5 13 17 13c6 0 11 -1 15 -3l-3 -8c-4 2 -8 3 -12 3c-6 0 -8 -2 -8 -4c0 -8 25 -3 25 -19c0 -7 -6 -13 -19 -13c-6 0 -13 2 -16 5l3 7c3 -2 9 -4 14 -4zM250 620c0 13 10 22 23 22s23 -9 23 -22
s-10 -22 -23 -22s-23 9 -23 22zM286 620c0 8 -6 14 -13 14c-8 0 -13 -6 -13 -14s5 -13 13 -13c7 0 13 5 13 13zM326 642l21 -26v26h9v-43h-8l-21 26v-26h-9v43h8zM375 599l19 43h9l19 -43h-10l-4 9h-20l-3 -9h-10zM405 616l-7 16l-6 -16h13zM441 642h9v-35h21v-8h-30v43z
M522 642h10v-24c0 -8 3 -11 9 -11s9 3 9 11v24h10v-25c0 -12 -7 -19 -19 -19s-19 7 -19 19v25zM598 606c6 0 8 2 8 4c0 9 -24 3 -24 19c0 7 5 13 17 13c6 0 11 -1 15 -3l-3 -8c-4 2 -8 3 -12 3c-5 0 -8 -2 -8 -4c0 -8 24 -3 24 -19c0 -7 -5 -13 -17 -13c-7 0 -13 2 -17 5
l3 7c4 -2 9 -4 14 -4zM669 634h-23v-10h20v-8h-20v-9h23v-8h-32v43h32v-8zM720 620c0 13 10 22 23 22s23 -9 23 -22s-10 -22 -23 -22s-23 9 -23 22zM756 620c0 8 -6 14 -13 14c-8 0 -13 -6 -13 -14s5 -13 13 -13c7 0 13 5 13 13zM796 642l21 -26v26h9v-43h-8l-21 26v-26h-9
v43h8zM851 642h9v-35h21v-8h-30v43zM917 599h-10v15l-16 28h10l12 -20l10 20h10l-16 -28v-15zM37 138v-1h-11l-2 -10h-1l4 22h14l-1 -2h-12l-1 -9h10zM43 133c0 6 4 10 9 10c4 0 7 -2 7 -6c0 -6 -4 -10 -9 -10s-7 3 -7 6zM57 137c0 3 -2 5 -6 5s-7 -4 -7 -9c0 -3 3 -4 6 -4
c4 0 7 3 7 8zM67 143h1v-3c1 2 3 3 6 3v-2v0c-4 0 -6 -1 -7 -6l-2 -8h-1zM101 147c-6 0 -10 -5 -10 -11c0 -4 2 -7 7 -7c3 0 6 0 7 2l1 -1c-2 -2 -5 -3 -8 -3c-6 0 -9 3 -9 9c0 7 5 13 12 13c3 0 6 -2 8 -3l-2 -2c-1 2 -3 3 -6 3zM127 137c0 -6 -4 -10 -9 -10
c-4 0 -7 3 -7 6c0 6 4 10 9 10c4 0 7 -2 7 -6zM118 129c4 0 7 3 7 8c0 3 -2 5 -5 5c-4 0 -7 -4 -7 -9c0 -3 2 -4 5 -4zM135 143h2l-1 -3c2 2 4 3 6 3c3 0 5 -1 5 -3c2 2 4 3 7 3s5 -2 5 -5v-1l-2 -10h-1l2 10v1c0 2 -2 4 -4 4c-4 0 -6 -2 -7 -6l-2 -9h-1l2 10v1
c0 2 -1 4 -4 4s-6 -2 -7 -6l-1 -9h-2zM188 143c3 0 5 -2 5 -5v-1l-2 -10h-1l2 10v1c0 2 -1 4 -4 4s-6 -2 -7 -6l-1 -9h-2l2 10v1c0 2 -2 4 -5 4s-5 -2 -6 -6l-1 -9h-2l3 16h2l-1 -3c1 2 4 3 6 3c3 0 5 -1 6 -3c1 2 3 3 6 3zM215 135h-14v-2c0 -3 2 -4 6 -4c2 0 4 0 5 1l1 -1
c-1 -1 -4 -2 -6 -2c-4 0 -7 2 -7 6c0 6 3 10 8 10c4 0 7 -2 7 -6v-2zM208 142c-3 0 -6 -2 -7 -6h12v1c0 3 -2 5 -5 5zM223 143h2l-1 -3c2 2 3 3 6 3v-2v0c-4 0 -6 -1 -7 -6l-1 -8h-2zM242 142c-4 0 -7 -4 -7 -9c0 -3 3 -4 6 -4c2 0 4 0 5 1h1c-2 -2 -4 -3 -6 -3
c-5 0 -7 3 -7 6c0 6 4 10 8 10c3 0 5 -1 6 -3h-1c-1 1 -2 2 -5 2zM259 148c0 -1 0 -1 -2 -1c0 0 -1 0 -1 1s1 1 2 1s1 0 1 -1zM253 127l3 16h1l-3 -16h-1zM277 127h-1v3c-1 -2 -3 -3 -6 -3c-4 0 -7 2 -7 6c0 6 3 10 9 10c3 0 5 -2 6 -4l1 4h1zM270 129c4 0 7 3 7 8
c0 3 -2 5 -5 5c-4 0 -7 -4 -7 -9c0 -3 1 -4 5 -4zM287 127h-1l4 23h2zM295 123h-1l1 4v1c0 1 0 2 1 2s1 -1 1 -1v-2zM324 134h-6l-1 -7h-2l5 22h7c4 0 7 -3 7 -6c0 -6 -4 -9 -10 -9zM321 147l-3 -12h6c5 0 8 3 8 8c0 3 -2 4 -5 4h-6zM340 127h-2l5 23h1zM363 135h-13v-2
c0 -3 2 -4 6 -4c2 0 4 0 5 1l1 -1c-2 -1 -4 -2 -6 -2c-5 0 -8 2 -8 6c0 6 4 10 9 10c4 0 7 -2 7 -6c0 -1 0 -2 -1 -2zM357 142c-4 0 -6 -2 -7 -6h12v1c0 3 -2 5 -5 5zM384 143h2l-3 -16h-2l1 3c-2 -2 -4 -3 -6 -3c-5 0 -7 2 -7 6c0 6 4 10 8 10c3 0 6 -2 6 -4zM376 129
c4 0 7 3 7 8c0 3 -2 5 -6 5s-7 -4 -7 -9c0 -3 2 -4 6 -4zM395 129c4 0 6 1 6 3c0 4 -9 1 -9 6c0 3 2 5 6 5c2 0 4 0 5 -2v-1c-1 1 -3 2 -5 2c-3 0 -5 -2 -5 -4c0 -4 9 -1 9 -6c0 -3 -2 -5 -7 -5c-2 0 -4 1 -6 2l2 1c1 -1 3 -1 4 -1zM423 135h-14v-2c0 -3 2 -4 6 -4
c2 0 4 0 5 1l1 -1c-1 -1 -4 -2 -6 -2c-4 0 -7 2 -7 6c0 6 3 10 8 10c4 0 7 -2 7 -6v-2zM416 142c-3 0 -5 -2 -7 -6h12v1c0 3 -2 5 -5 5zM446 127h-1l-6 22h2l5 -20l12 20h1zM467 148c0 -1 -1 -1 -2 -1c0 0 -1 0 -1 1s1 1 1 1c1 0 2 0 2 -1zM461 127l3 16h1l-3 -16h-1z
M478 142c-3 0 -5 -2 -5 -4c0 -4 9 -1 9 -6c0 -3 -3 -5 -7 -5c-2 0 -5 1 -6 2l1 1c1 -1 3 -1 6 -1s4 1 4 3c0 4 -9 1 -9 6c0 3 3 5 7 5c2 0 4 0 5 -2l-1 -1c-1 1 -3 2 -4 2zM488 127l3 16h2l-4 -16h-1zM494 148c0 -1 -1 -1 -1 -1c-1 0 -2 0 -2 1s1 1 2 1c0 0 1 0 1 -1z
M502 146h1v-3h5v-2h-5l-2 -9c-1 -1 -1 -1 -1 -2s2 -2 3 -2s2 1 2 1l1 -1c-1 -1 -2 -1 -3 -1c-3 0 -4 1 -4 3v2l2 9h-2v2h3v3zM942 573v-3h-913v3h913zM942 671v-3h-913v3h913zM942 681v-2h-913v2h913zM30 25v2h913v-2h-913zM30 36v2h913v-2h-913zM517 135h426v-2h-426v2z
M603 212c-2 0 -4 -3 -4 -7s2 -7 4 -7s3 -2 2 -4c-2 -2 -6 -3 -11 -3c-8 0 -9 1 -7 10c1 7 0 11 -3 15c-4 2 -7 9 -7 15c0 8 2 10 8 10s6 -1 5 -10c-2 -11 -2 -12 4 -11s7 5 7 24c-1 19 1 22 5 20c5 -1 6 -5 6 -18c0 -20 -4 -34 -9 -34zM569 255c-5 -2 -6 -7 -6 -27
c0 -15 2 -27 4 -28c6 -4 3 -9 -5 -9s-8 0 -7 31c1 30 1 31 -6 29c-6 -2 -8 -1 -8 5s2 8 16 8c9 0 19 0 22 1c5 2 6 0 6 -7c0 -9 -6 -13 -8 -5c-1 3 -4 3 -8 2zM643 218c-10 -6 -15 -20 -7 -20c2 0 3 -2 2 -4s-6 -3 -9 -3c-6 0 -8 3 -8 36l-1 37h13c15 0 25 -8 25 -21
s-4 -20 -15 -25zM631 235c3 -12 8 -15 15 -7c10 10 3 28 -11 28c-7 0 -7 -4 -4 -21zM722 283c-10 4 -20 11 -23 16c-7 10 -11 10 -14 1c-1 -4 -7 -10 -13 -13c-13 -6 -35 -2 -45 9c-5 6 -8 6 -13 4c-12 -7 -26 -4 -37 7c-9 10 -10 13 -10 36c0 20 -2 26 -5 26
c-8 0 -13 -17 -13 -40c0 -21 -3 -27 -17 -30c-5 0 -8 -5 -9 -12c-6 -27 -21 -38 -43 -31c-13 5 -29 22 -32 35c-2 7 -4 8 -16 6c-12 -1 -17 0 -24 7l-10 8l-7 -9c-5 -8 -10 -10 -20 -10h-12v-20c0 -25 -9 -39 -27 -39c-7 0 -17 4 -22 8c-6 4 -12 15 -15 26
c-6 19 -6 30 -4 170c0 18 -1 32 -3 33c-5 2 -19 -27 -24 -49c-2 -10 -5 -47 -6 -82l-2 -63l-15 2c-8 1 -16 4 -19 6c-2 3 -4 26 -6 59c-2 60 -6 76 -17 76c-20 0 -40 -34 -40 -67c0 -23 7 -34 25 -37c26 -5 0 -15 -28 -11c-12 2 -20 6 -29 15c-12 12 -13 14 -12 36
c2 27 12 44 34 58c26 18 65 16 84 -3c9 -9 13 -6 13 9c0 3 2 14 5 24c14 45 51 52 70 14c6 -13 7 -22 6 -102c-1 -92 0 -107 9 -107c12 0 16 40 5 59c-14 22 -7 58 12 70c7 5 14 6 26 5c9 -1 16 -1 16 1c0 5 11 6 23 3l14 -3l1 -36c1 -56 8 -43 11 23c1 32 1 59 0 60
c0 0 -12 2 -26 3c-20 1 -29 0 -43 -6c-20 -9 -39 -8 -31 1c9 10 43 18 67 15c13 -1 26 -3 30 -4c8 -2 9 0 13 22c5 25 7 27 28 22c8 -3 8 -4 6 -30l-3 -26h10c8 0 9 1 11 14c7 45 45 76 79 66c17 -5 26 -15 28 -33c2 -20 -8 -37 -32 -49c-11 -5 -24 -9 -29 -9
c-9 0 -10 -2 -11 -16c-1 -8 -1 -20 0 -27v-11l11 10c9 9 13 11 21 9c19 -4 27 -16 31 -47c5 -35 12 -35 14 0c2 22 3 25 14 35c11 9 14 11 27 9c8 -1 18 -3 21 -4c4 -2 7 0 8 5c2 8 11 10 26 4l10 -4l-3 -36c-2 -31 -1 -38 4 -46c11 -17 29 -11 45 16c7 12 9 21 10 37
c0 24 -7 34 -25 39s-14 10 11 11c51 3 75 -40 46 -85c-12 -19 -28 -30 -53 -35c-18 -3 -22 -3 -37 2zM551 464c-13 -39 -12 -42 11 -30c25 13 37 35 29 56c-7 23 -29 9 -40 -26zM386 318c6 12 8 49 2 53c-11 7 -21 -19 -17 -48c3 -18 8 -20 15 -5zM496 275
c10 -15 13 -5 11 30c-1 18 -4 50 -5 71s-3 40 -6 41c-12 8 -13 3 -13 -41c0 -50 5 -88 13 -101zM672 303c7 13 9 49 3 57c-5 7 -5 7 -11 -3c-8 -11 -11 -31 -8 -48c2 -14 10 -17 16 -6zM697 252c-16 7 -25 4 -25 -8c0 -10 9 -13 13 -6c4 6 9 3 9 -6c0 -7 -1 -8 -10 -6
c-11 2 -12 2 -12 -11c0 -12 1 -13 9 -13c4 0 10 1 12 3c3 3 4 2 6 -3c1 -6 0 -8 -9 -8c-7 0 -15 -1 -20 -2c-6 -2 -7 0 -7 35v37h11c6 0 15 0 19 1c7 3 9 2 7 -6c0 -4 -2 -8 -3 -7zM84 58h-7l-12 39h8l5 -20c1 -4 2 -9 3 -13c1 4 3 9 4 13l7 20h6l6 -20c1 -4 2 -9 3 -13
c1 4 2 9 3 13l6 20h7l-13 -39h-6l-6 19c-1 4 -3 8 -4 12c-1 -4 -2 -8 -3 -13zM154 58h-7l-12 39h8l5 -20c1 -4 2 -9 3 -13c1 4 2 9 4 13l6 20h6l7 -20c1 -4 2 -9 3 -13c1 4 2 9 3 13l6 20h7l-13 -39h-6l-6 19c-2 4 -3 8 -4 12c-1 -4 -2 -8 -4 -13zM224 58h-7l-12 39h7l6 -20
c1 -4 2 -9 3 -13c1 4 2 9 3 13l7 20h6l6 -20c2 -4 3 -9 4 -13c1 4 2 9 3 13l6 20h7l-13 -39h-6l-6 19c-2 4 -3 8 -4 12c-1 -4 -2 -8 -4 -13zM279 57c-3 0 -5 2 -5 5s2 5 5 5c2 0 4 -2 4 -5s-1 -5 -4 -5zM335 58h-8v22c0 7 -2 13 -9 13c-5 0 -9 -4 -10 -8c0 -1 -1 -2 -1 -3
v-24h-7v28v11h6l1 -6c2 3 7 8 13 8s15 -4 15 -18v-23zM351 68c0 9 9 15 24 15c0 4 -1 10 -9 10c-4 0 -7 -1 -10 -3l-2 5c4 2 8 4 13 4c12 0 15 -9 15 -17v-15c0 -3 0 -6 1 -9h-7v4c-3 -3 -7 -5 -12 -5c-9 0 -13 5 -13 11zM376 78c-9 0 -17 -1 -17 -9c0 -5 3 -7 6 -7
c5 0 9 3 10 6c0 2 1 2 1 3v7zM421 92h-10v-22c0 -5 1 -8 5 -8c2 0 4 1 4 1l1 -5c-2 -1 -4 -1 -7 -1s-6 1 -8 3c-1 2 -3 5 -3 10v22h-6v5h6v10l8 2v-12h10v-5zM471 58h-7v22c0 7 -2 13 -9 13c-5 0 -8 -4 -10 -8v-3v-24h-8v58h8v-25c1 2 3 4 5 5s5 3 8 3c5 0 13 -4 13 -18v-23
zM504 99c12 0 15 -9 15 -17v-15c0 -3 1 -6 1 -9h-6l-1 4h-1c-2 -3 -6 -5 -12 -5c-7 0 -12 5 -12 11c0 9 9 15 24 15c0 4 -1 10 -9 10c-4 0 -7 -1 -10 -3l-2 5c3 2 8 4 13 4zM512 71v7c-7 0 -16 -1 -16 -9c0 -5 3 -7 6 -7c6 0 9 3 10 6v3zM541 107l6 2v-12h11v-5h-11v-22
c0 -5 2 -8 6 -8c2 0 3 1 4 1l1 -5c-2 -1 -4 -1 -7 -1s-6 1 -8 3s-2 5 -2 10v22h-7v5h7v10zM578 49c3 1 5 4 6 8c1 1 1 1 1 2v2l-15 36h7l10 -23c0 -3 1 -6 2 -8c1 2 2 5 2 8l9 23h7l-11 -28c-5 -14 -8 -20 -13 -25c-4 -3 -7 -5 -9 -5l-2 6c2 1 4 2 6 4zM629 41h-7v44
c0 4 0 9 -1 12h7l1 -6c3 5 8 8 14 8c9 0 16 -9 16 -21c0 -14 -8 -21 -18 -21c-4 0 -9 2 -12 6v-22zM629 80v-6v-3c2 -5 6 -9 11 -9c8 0 12 6 12 15s-4 16 -11 16c-5 0 -10 -4 -11 -10c-1 0 -1 -1 -1 -3zM709 79v-3h-28c0 -9 7 -14 14 -14c5 0 8 1 11 2l1 -5
c-2 -1 -7 -2 -13 -2c-12 0 -20 8 -20 20s7 22 19 22c13 0 16 -12 16 -20zM681 81h21c0 5 -2 12 -10 12c-7 0 -10 -7 -11 -12zM734 62c0 -3 -2 -5 -5 -5s-5 2 -5 5s2 5 5 5s5 -2 5 -5zM769 93c-9 0 -14 -7 -14 -16s6 -15 14 -15c4 0 7 2 9 2l1 -5c-1 -1 -6 -2 -11 -2
c-12 0 -20 8 -20 20s8 21 21 21c4 0 9 -1 10 -2l-1 -5c-2 0 -5 2 -9 2zM831 78c0 -15 -10 -21 -20 -21s-18 8 -18 20c0 14 8 22 20 22c11 0 18 -9 18 -21zM800 77c0 -9 5 -15 12 -15s12 6 12 15c0 7 -4 16 -12 16s-12 -8 -12 -16zM906 58h-7v22c0 8 -3 13 -9 13
c-4 0 -8 -4 -9 -7v-4v-24h-7v24c0 6 -3 11 -8 11s-8 -4 -9 -8c-1 -1 -1 -2 -1 -3v-24h-7v28v11h6v-6c3 4 6 8 13 8c5 0 10 -4 11 -9c2 3 3 4 5 6c2 1 5 3 9 3c5 0 13 -4 13 -18v-23z" />
    <glyph glyph-name="four" unicode="4" horiz-adv-x="964" 
d="M29 642h19c11 0 18 -6 18 -16s-7 -16 -18 -16h-9v-11h-10v43zM56 626c0 5 -3 8 -9 8h-8v-15h8c6 0 9 2 9 7zM119 634h-22v-10h19v-8h-19v-9h22v-8h-32v43h32v-8zM178 626c0 -7 -3 -11 -9 -13l9 -14h-10l-8 12h-9v-12h-9v43h18c11 0 18 -6 18 -16zM159 619c6 0 9 2 9 7
s-3 8 -9 8h-8v-15h8zM214 606c5 0 8 2 8 4c0 9 -24 3 -24 19c0 7 5 13 17 13c6 0 11 -1 15 -3l-3 -8c-4 2 -8 3 -12 3c-6 0 -8 -2 -8 -4c0 -8 25 -3 25 -19c0 -7 -6 -13 -19 -13c-6 0 -13 2 -16 5l3 7c3 -2 9 -4 14 -4zM250 620c0 13 10 22 23 22s23 -9 23 -22
s-10 -22 -23 -22s-23 9 -23 22zM286 620c0 8 -6 14 -13 14c-8 0 -13 -6 -13 -14s5 -13 13 -13c7 0 13 5 13 13zM326 642l21 -26v26h9v-43h-8l-21 26v-26h-9v43h8zM375 599l19 43h9l19 -43h-10l-4 9h-20l-3 -9h-10zM405 616l-7 16l-6 -16h13zM441 642h9v-35h21v-8h-30v43z
M522 642h10v-24c0 -8 3 -11 9 -11s9 3 9 11v24h10v-25c0 -12 -7 -19 -19 -19s-19 7 -19 19v25zM598 606c6 0 8 2 8 4c0 9 -24 3 -24 19c0 7 5 13 17 13c6 0 11 -1 15 -3l-3 -8c-4 2 -8 3 -12 3c-5 0 -8 -2 -8 -4c0 -8 24 -3 24 -19c0 -7 -5 -13 -17 -13c-7 0 -13 2 -17 5
l3 7c4 -2 9 -4 14 -4zM669 634h-23v-10h20v-8h-20v-9h23v-8h-32v43h32v-8zM720 620c0 13 10 22 23 22s23 -9 23 -22s-10 -22 -23 -22s-23 9 -23 22zM756 620c0 8 -6 14 -13 14c-8 0 -13 -6 -13 -14s5 -13 13 -13c7 0 13 5 13 13zM796 642l21 -26v26h9v-43h-8l-21 26v-26h-9
v43h8zM851 642h9v-35h21v-8h-30v43zM917 599h-10v15l-16 28h10l12 -20l10 20h10l-16 -28v-15zM37 138v-1h-11l-2 -10h-1l4 22h14l-1 -2h-12l-1 -9h10zM43 133c0 6 4 10 9 10c4 0 7 -2 7 -6c0 -6 -4 -10 -9 -10s-7 3 -7 6zM57 137c0 3 -2 5 -6 5s-7 -4 -7 -9c0 -3 3 -4 6 -4
c4 0 7 3 7 8zM67 143h1v-3c1 2 3 3 6 3v-2v0c-4 0 -6 -1 -7 -6l-2 -8h-1zM101 147c-6 0 -10 -5 -10 -11c0 -4 2 -7 7 -7c3 0 6 0 7 2l1 -1c-2 -2 -5 -3 -8 -3c-6 0 -9 3 -9 9c0 7 5 13 12 13c3 0 6 -2 8 -3l-2 -2c-1 2 -3 3 -6 3zM127 137c0 -6 -4 -10 -9 -10
c-4 0 -7 3 -7 6c0 6 4 10 9 10c4 0 7 -2 7 -6zM118 129c4 0 7 3 7 8c0 3 -2 5 -5 5c-4 0 -7 -4 -7 -9c0 -3 2 -4 5 -4zM135 143h2l-1 -3c2 2 4 3 6 3c3 0 5 -1 5 -3c2 2 4 3 7 3s5 -2 5 -5v-1l-2 -10h-1l2 10v1c0 2 -2 4 -4 4c-4 0 -6 -2 -7 -6l-2 -9h-1l2 10v1
c0 2 -1 4 -4 4s-6 -2 -7 -6l-1 -9h-2zM188 143c3 0 5 -2 5 -5v-1l-2 -10h-1l2 10v1c0 2 -1 4 -4 4s-6 -2 -7 -6l-1 -9h-2l2 10v1c0 2 -2 4 -5 4s-5 -2 -6 -6l-1 -9h-2l3 16h2l-1 -3c1 2 4 3 6 3c3 0 5 -1 6 -3c1 2 3 3 6 3zM215 135h-14v-2c0 -3 2 -4 6 -4c2 0 4 0 5 1l1 -1
c-1 -1 -4 -2 -6 -2c-4 0 -7 2 -7 6c0 6 3 10 8 10c4 0 7 -2 7 -6v-2zM208 142c-3 0 -6 -2 -7 -6h12v1c0 3 -2 5 -5 5zM223 143h2l-1 -3c2 2 3 3 6 3v-2v0c-4 0 -6 -1 -7 -6l-1 -8h-2zM242 142c-4 0 -7 -4 -7 -9c0 -3 3 -4 6 -4c2 0 4 0 5 1h1c-2 -2 -4 -3 -6 -3
c-5 0 -7 3 -7 6c0 6 4 10 8 10c3 0 5 -1 6 -3h-1c-1 1 -2 2 -5 2zM259 148c0 -1 0 -1 -2 -1c0 0 -1 0 -1 1s1 1 2 1s1 0 1 -1zM253 127l3 16h1l-3 -16h-1zM277 127h-1v3c-1 -2 -3 -3 -6 -3c-4 0 -7 2 -7 6c0 6 3 10 9 10c3 0 5 -2 6 -4l1 4h1zM270 129c4 0 7 3 7 8
c0 3 -2 5 -5 5c-4 0 -7 -4 -7 -9c0 -3 1 -4 5 -4zM287 127h-1l4 23h2zM295 123h-1l1 4v1c0 1 0 2 1 2s1 -1 1 -1v-2zM324 134h-6l-1 -7h-2l5 22h7c4 0 7 -3 7 -6c0 -6 -4 -9 -10 -9zM321 147l-3 -12h6c5 0 8 3 8 8c0 3 -2 4 -5 4h-6zM340 127h-2l5 23h1zM363 135h-13v-2
c0 -3 2 -4 6 -4c2 0 4 0 5 1l1 -1c-2 -1 -4 -2 -6 -2c-5 0 -8 2 -8 6c0 6 4 10 9 10c4 0 7 -2 7 -6c0 -1 0 -2 -1 -2zM357 142c-4 0 -6 -2 -7 -6h12v1c0 3 -2 5 -5 5zM384 143h2l-3 -16h-2l1 3c-2 -2 -4 -3 -6 -3c-5 0 -7 2 -7 6c0 6 4 10 8 10c3 0 6 -2 6 -4zM376 129
c4 0 7 3 7 8c0 3 -2 5 -6 5s-7 -4 -7 -9c0 -3 2 -4 6 -4zM395 129c4 0 6 1 6 3c0 4 -9 1 -9 6c0 3 2 5 6 5c2 0 4 0 5 -2v-1c-1 1 -3 2 -5 2c-3 0 -5 -2 -5 -4c0 -4 9 -1 9 -6c0 -3 -2 -5 -7 -5c-2 0 -4 1 -6 2l2 1c1 -1 3 -1 4 -1zM423 135h-14v-2c0 -3 2 -4 6 -4
c2 0 4 0 5 1l1 -1c-1 -1 -4 -2 -6 -2c-4 0 -7 2 -7 6c0 6 3 10 8 10c4 0 7 -2 7 -6v-2zM416 142c-3 0 -5 -2 -7 -6h12v1c0 3 -2 5 -5 5zM446 127h-1l-6 22h2l5 -20l12 20h1zM467 148c0 -1 -1 -1 -2 -1c0 0 -1 0 -1 1s1 1 1 1c1 0 2 0 2 -1zM461 127l3 16h1l-3 -16h-1z
M478 142c-3 0 -5 -2 -5 -4c0 -4 9 -1 9 -6c0 -3 -3 -5 -7 -5c-2 0 -5 1 -6 2l1 1c1 -1 3 -1 6 -1s4 1 4 3c0 4 -9 1 -9 6c0 3 3 5 7 5c2 0 4 0 5 -2l-1 -1c-1 1 -3 2 -4 2zM488 127l3 16h2l-4 -16h-1zM494 148c0 -1 -1 -1 -1 -1c-1 0 -2 0 -2 1s1 1 2 1c0 0 1 0 1 -1z
M502 146h1v-3h5v-2h-5l-2 -9c-1 -1 -1 -1 -1 -2s2 -2 3 -2s2 1 2 1l1 -1c-1 -1 -2 -1 -3 -1c-3 0 -4 1 -4 3v2l2 9h-2v2h3v3zM942 573v-3h-913v3h913zM942 671v-3h-913v3h913zM942 681v-2h-913v2h913zM30 25v2h913v-2h-913zM30 36v2h913v-2h-913zM517 135h426v-2h-426v2z
M603 212c-2 0 -4 -3 -4 -7s2 -7 4 -7s3 -2 2 -4c-2 -2 -6 -3 -11 -3c-8 0 -9 1 -7 10c1 7 0 11 -3 15c-4 2 -7 9 -7 15c0 8 2 10 8 10s6 -1 5 -10c-2 -11 -2 -12 4 -11s7 5 7 24c-1 19 1 22 5 20c5 -1 6 -5 6 -18c0 -20 -4 -34 -9 -34zM569 255c-5 -2 -6 -7 -6 -27
c0 -15 2 -27 4 -28c6 -4 3 -9 -5 -9s-8 0 -7 31c1 30 1 31 -6 29c-6 -2 -8 -1 -8 5s2 8 16 8c9 0 19 0 22 1c5 2 6 0 6 -7c0 -9 -6 -13 -8 -5c-1 3 -4 3 -8 2zM643 218c-10 -6 -15 -20 -7 -20c2 0 3 -2 2 -4s-6 -3 -9 -3c-6 0 -8 3 -8 36l-1 37h13c15 0 25 -8 25 -21
s-4 -20 -15 -25zM631 235c3 -12 8 -15 15 -7c10 10 3 28 -11 28c-7 0 -7 -4 -4 -21zM722 283c-10 4 -20 11 -23 16c-7 10 -11 10 -14 1c-1 -4 -7 -10 -13 -13c-13 -6 -35 -2 -45 9c-5 6 -8 6 -13 4c-12 -7 -26 -4 -37 7c-9 10 -10 13 -10 36c0 20 -2 26 -5 26
c-8 0 -13 -17 -13 -40c0 -21 -3 -27 -17 -30c-5 0 -8 -5 -9 -12c-6 -27 -21 -38 -43 -31c-13 5 -29 22 -32 35c-2 7 -4 8 -16 6c-12 -1 -17 0 -24 7l-10 8l-7 -9c-5 -8 -10 -10 -20 -10h-12v-20c0 -25 -9 -39 -27 -39c-7 0 -17 4 -22 8c-6 4 -12 15 -15 26
c-6 19 -6 30 -4 170c0 18 -1 32 -3 33c-5 2 -19 -27 -24 -49c-2 -10 -5 -47 -6 -82l-2 -63l-15 2c-8 1 -16 4 -19 6c-2 3 -4 26 -6 59c-2 60 -6 76 -17 76c-20 0 -40 -34 -40 -67c0 -23 7 -34 25 -37c26 -5 0 -15 -28 -11c-12 2 -20 6 -29 15c-12 12 -13 14 -12 36
c2 27 12 44 34 58c26 18 65 16 84 -3c9 -9 13 -6 13 9c0 3 2 14 5 24c14 45 51 52 70 14c6 -13 7 -22 6 -102c-1 -92 0 -107 9 -107c12 0 16 40 5 59c-14 22 -7 58 12 70c7 5 14 6 26 5c9 -1 16 -1 16 1c0 5 11 6 23 3l14 -3l1 -36c1 -56 8 -43 11 23c1 32 1 59 0 60
c0 0 -12 2 -26 3c-20 1 -29 0 -43 -6c-20 -9 -39 -8 -31 1c9 10 43 18 67 15c13 -1 26 -3 30 -4c8 -2 9 0 13 22c5 25 7 27 28 22c8 -3 8 -4 6 -30l-3 -26h10c8 0 9 1 11 14c7 45 45 76 79 66c17 -5 26 -15 28 -33c2 -20 -8 -37 -32 -49c-11 -5 -24 -9 -29 -9
c-9 0 -10 -2 -11 -16c-1 -8 -1 -20 0 -27v-11l11 10c9 9 13 11 21 9c19 -4 27 -16 31 -47c5 -35 12 -35 14 0c2 22 3 25 14 35c11 9 14 11 27 9c8 -1 18 -3 21 -4c4 -2 7 0 8 5c2 8 11 10 26 4l10 -4l-3 -36c-2 -31 -1 -38 4 -46c11 -17 29 -11 45 16c7 12 9 21 10 37
c0 24 -7 34 -25 39s-14 10 11 11c51 3 75 -40 46 -85c-12 -19 -28 -30 -53 -35c-18 -3 -22 -3 -37 2zM551 464c-13 -39 -12 -42 11 -30c25 13 37 35 29 56c-7 23 -29 9 -40 -26zM386 318c6 12 8 49 2 53c-11 7 -21 -19 -17 -48c3 -18 8 -20 15 -5zM496 275
c10 -15 13 -5 11 30c-1 18 -4 50 -5 71s-3 40 -6 41c-12 8 -13 3 -13 -41c0 -50 5 -88 13 -101zM672 303c7 13 9 49 3 57c-5 7 -5 7 -11 -3c-8 -11 -11 -31 -8 -48c2 -14 10 -17 16 -6zM697 252c-16 7 -25 4 -25 -8c0 -10 9 -13 13 -6c4 6 9 3 9 -6c0 -7 -1 -8 -10 -6
c-11 2 -12 2 -12 -11c0 -12 1 -13 9 -13c4 0 10 1 12 3c3 3 4 2 6 -3c1 -6 0 -8 -9 -8c-7 0 -15 -1 -20 -2c-6 -2 -7 0 -7 35v37h11c6 0 15 0 19 1c7 3 9 2 7 -6c0 -4 -2 -8 -3 -7zM84 58h-7l-12 39h8l5 -20c1 -4 2 -9 3 -13c1 4 3 9 4 13l7 20h6l6 -20c1 -4 2 -9 3 -13
c1 4 2 9 3 13l6 20h7l-13 -39h-6l-6 19c-1 4 -3 8 -4 12c-1 -4 -2 -8 -3 -13zM154 58h-7l-12 39h8l5 -20c1 -4 2 -9 3 -13c1 4 2 9 4 13l6 20h6l7 -20c1 -4 2 -9 3 -13c1 4 2 9 3 13l6 20h7l-13 -39h-6l-6 19c-2 4 -3 8 -4 12c-1 -4 -2 -8 -4 -13zM224 58h-7l-12 39h7l6 -20
c1 -4 2 -9 3 -13c1 4 2 9 3 13l7 20h6l6 -20c2 -4 3 -9 4 -13c1 4 2 9 3 13l6 20h7l-13 -39h-6l-6 19c-2 4 -3 8 -4 12c-1 -4 -2 -8 -4 -13zM279 57c-3 0 -5 2 -5 5s2 5 5 5c2 0 4 -2 4 -5s-1 -5 -4 -5zM335 58h-8v22c0 7 -2 13 -9 13c-5 0 -9 -4 -10 -8c0 -1 -1 -2 -1 -3
v-24h-7v28v11h6l1 -6c2 3 7 8 13 8s15 -4 15 -18v-23zM351 68c0 9 9 15 24 15c0 4 -1 10 -9 10c-4 0 -7 -1 -10 -3l-2 5c4 2 8 4 13 4c12 0 15 -9 15 -17v-15c0 -3 0 -6 1 -9h-7v4c-3 -3 -7 -5 -12 -5c-9 0 -13 5 -13 11zM376 78c-9 0 -17 -1 -17 -9c0 -5 3 -7 6 -7
c5 0 9 3 10 6c0 2 1 2 1 3v7zM421 92h-10v-22c0 -5 1 -8 5 -8c2 0 4 1 4 1l1 -5c-2 -1 -4 -1 -7 -1s-6 1 -8 3c-1 2 -3 5 -3 10v22h-6v5h6v10l8 2v-12h10v-5zM471 58h-7v22c0 7 -2 13 -9 13c-5 0 -8 -4 -10 -8v-3v-24h-8v58h8v-25c1 2 3 4 5 5s5 3 8 3c5 0 13 -4 13 -18v-23
zM504 99c12 0 15 -9 15 -17v-15c0 -3 1 -6 1 -9h-6l-1 4h-1c-2 -3 -6 -5 -12 -5c-7 0 -12 5 -12 11c0 9 9 15 24 15c0 4 -1 10 -9 10c-4 0 -7 -1 -10 -3l-2 5c3 2 8 4 13 4zM512 71v7c-7 0 -16 -1 -16 -9c0 -5 3 -7 6 -7c6 0 9 3 10 6v3zM541 107l6 2v-12h11v-5h-11v-22
c0 -5 2 -8 6 -8c2 0 3 1 4 1l1 -5c-2 -1 -4 -1 -7 -1s-6 1 -8 3s-2 5 -2 10v22h-7v5h7v10zM578 49c3 1 5 4 6 8c1 1 1 1 1 2v2l-15 36h7l10 -23c0 -3 1 -6 2 -8c1 2 2 5 2 8l9 23h7l-11 -28c-5 -14 -8 -20 -13 -25c-4 -3 -7 -5 -9 -5l-2 6c2 1 4 2 6 4zM629 41h-7v44
c0 4 0 9 -1 12h7l1 -6c3 5 8 8 14 8c9 0 16 -9 16 -21c0 -14 -8 -21 -18 -21c-4 0 -9 2 -12 6v-22zM629 80v-6v-3c2 -5 6 -9 11 -9c8 0 12 6 12 15s-4 16 -11 16c-5 0 -10 -4 -11 -10c-1 0 -1 -1 -1 -3zM709 79v-3h-28c0 -9 7 -14 14 -14c5 0 8 1 11 2l1 -5
c-2 -1 -7 -2 -13 -2c-12 0 -20 8 -20 20s7 22 19 22c13 0 16 -12 16 -20zM681 81h21c0 5 -2 12 -10 12c-7 0 -10 -7 -11 -12zM734 62c0 -3 -2 -5 -5 -5s-5 2 -5 5s2 5 5 5s5 -2 5 -5zM769 93c-9 0 -14 -7 -14 -16s6 -15 14 -15c4 0 7 2 9 2l1 -5c-1 -1 -6 -2 -11 -2
c-12 0 -20 8 -20 20s8 21 21 21c4 0 9 -1 10 -2l-1 -5c-2 0 -5 2 -9 2zM831 78c0 -15 -10 -21 -20 -21s-18 8 -18 20c0 14 8 22 20 22c11 0 18 -9 18 -21zM800 77c0 -9 5 -15 12 -15s12 6 12 15c0 7 -4 16 -12 16s-12 -8 -12 -16zM906 58h-7v22c0 8 -3 13 -9 13
c-4 0 -8 -4 -9 -7v-4v-24h-7v24c0 6 -3 11 -8 11s-8 -4 -9 -8c-1 -1 -1 -2 -1 -3v-24h-7v28v11h6v-6c3 4 6 8 13 8c5 0 10 -4 11 -9c2 3 3 4 5 6c2 1 5 3 9 3c5 0 13 -4 13 -18v-23z" />
    <glyph glyph-name="five" unicode="5" horiz-adv-x="964" 
d="M29 642h19c11 0 18 -6 18 -16s-7 -16 -18 -16h-9v-11h-10v43zM56 626c0 5 -3 8 -9 8h-8v-15h8c6 0 9 2 9 7zM119 634h-22v-10h19v-8h-19v-9h22v-8h-32v43h32v-8zM178 626c0 -7 -3 -11 -9 -13l9 -14h-10l-8 12h-9v-12h-9v43h18c11 0 18 -6 18 -16zM159 619c6 0 9 2 9 7
s-3 8 -9 8h-8v-15h8zM214 606c5 0 8 2 8 4c0 9 -24 3 -24 19c0 7 5 13 17 13c6 0 11 -1 15 -3l-3 -8c-4 2 -8 3 -12 3c-6 0 -8 -2 -8 -4c0 -8 25 -3 25 -19c0 -7 -6 -13 -19 -13c-6 0 -13 2 -16 5l3 7c3 -2 9 -4 14 -4zM250 620c0 13 10 22 23 22s23 -9 23 -22
s-10 -22 -23 -22s-23 9 -23 22zM286 620c0 8 -6 14 -13 14c-8 0 -13 -6 -13 -14s5 -13 13 -13c7 0 13 5 13 13zM326 642l21 -26v26h9v-43h-8l-21 26v-26h-9v43h8zM375 599l19 43h9l19 -43h-10l-4 9h-20l-3 -9h-10zM405 616l-7 16l-6 -16h13zM441 642h9v-35h21v-8h-30v43z
M522 642h10v-24c0 -8 3 -11 9 -11s9 3 9 11v24h10v-25c0 -12 -7 -19 -19 -19s-19 7 -19 19v25zM598 606c6 0 8 2 8 4c0 9 -24 3 -24 19c0 7 5 13 17 13c6 0 11 -1 15 -3l-3 -8c-4 2 -8 3 -12 3c-5 0 -8 -2 -8 -4c0 -8 24 -3 24 -19c0 -7 -5 -13 -17 -13c-7 0 -13 2 -17 5
l3 7c4 -2 9 -4 14 -4zM669 634h-23v-10h20v-8h-20v-9h23v-8h-32v43h32v-8zM720 620c0 13 10 22 23 22s23 -9 23 -22s-10 -22 -23 -22s-23 9 -23 22zM756 620c0 8 -6 14 -13 14c-8 0 -13 -6 -13 -14s5 -13 13 -13c7 0 13 5 13 13zM796 642l21 -26v26h9v-43h-8l-21 26v-26h-9
v43h8zM851 642h9v-35h21v-8h-30v43zM917 599h-10v15l-16 28h10l12 -20l10 20h10l-16 -28v-15zM37 138v-1h-11l-2 -10h-1l4 22h14l-1 -2h-12l-1 -9h10zM43 133c0 6 4 10 9 10c4 0 7 -2 7 -6c0 -6 -4 -10 -9 -10s-7 3 -7 6zM57 137c0 3 -2 5 -6 5s-7 -4 -7 -9c0 -3 3 -4 6 -4
c4 0 7 3 7 8zM67 143h1v-3c1 2 3 3 6 3v-2v0c-4 0 -6 -1 -7 -6l-2 -8h-1zM101 147c-6 0 -10 -5 -10 -11c0 -4 2 -7 7 -7c3 0 6 0 7 2l1 -1c-2 -2 -5 -3 -8 -3c-6 0 -9 3 -9 9c0 7 5 13 12 13c3 0 6 -2 8 -3l-2 -2c-1 2 -3 3 -6 3zM127 137c0 -6 -4 -10 -9 -10
c-4 0 -7 3 -7 6c0 6 4 10 9 10c4 0 7 -2 7 -6zM118 129c4 0 7 3 7 8c0 3 -2 5 -5 5c-4 0 -7 -4 -7 -9c0 -3 2 -4 5 -4zM135 143h2l-1 -3c2 2 4 3 6 3c3 0 5 -1 5 -3c2 2 4 3 7 3s5 -2 5 -5v-1l-2 -10h-1l2 10v1c0 2 -2 4 -4 4c-4 0 -6 -2 -7 -6l-2 -9h-1l2 10v1
c0 2 -1 4 -4 4s-6 -2 -7 -6l-1 -9h-2zM188 143c3 0 5 -2 5 -5v-1l-2 -10h-1l2 10v1c0 2 -1 4 -4 4s-6 -2 -7 -6l-1 -9h-2l2 10v1c0 2 -2 4 -5 4s-5 -2 -6 -6l-1 -9h-2l3 16h2l-1 -3c1 2 4 3 6 3c3 0 5 -1 6 -3c1 2 3 3 6 3zM215 135h-14v-2c0 -3 2 -4 6 -4c2 0 4 0 5 1l1 -1
c-1 -1 -4 -2 -6 -2c-4 0 -7 2 -7 6c0 6 3 10 8 10c4 0 7 -2 7 -6v-2zM208 142c-3 0 -6 -2 -7 -6h12v1c0 3 -2 5 -5 5zM223 143h2l-1 -3c2 2 3 3 6 3v-2v0c-4 0 -6 -1 -7 -6l-1 -8h-2zM242 142c-4 0 -7 -4 -7 -9c0 -3 3 -4 6 -4c2 0 4 0 5 1h1c-2 -2 -4 -3 -6 -3
c-5 0 -7 3 -7 6c0 6 4 10 8 10c3 0 5 -1 6 -3h-1c-1 1 -2 2 -5 2zM259 148c0 -1 0 -1 -2 -1c0 0 -1 0 -1 1s1 1 2 1s1 0 1 -1zM253 127l3 16h1l-3 -16h-1zM277 127h-1v3c-1 -2 -3 -3 -6 -3c-4 0 -7 2 -7 6c0 6 3 10 9 10c3 0 5 -2 6 -4l1 4h1zM270 129c4 0 7 3 7 8
c0 3 -2 5 -5 5c-4 0 -7 -4 -7 -9c0 -3 1 -4 5 -4zM287 127h-1l4 23h2zM295 123h-1l1 4v1c0 1 0 2 1 2s1 -1 1 -1v-2zM324 134h-6l-1 -7h-2l5 22h7c4 0 7 -3 7 -6c0 -6 -4 -9 -10 -9zM321 147l-3 -12h6c5 0 8 3 8 8c0 3 -2 4 -5 4h-6zM340 127h-2l5 23h1zM363 135h-13v-2
c0 -3 2 -4 6 -4c2 0 4 0 5 1l1 -1c-2 -1 -4 -2 -6 -2c-5 0 -8 2 -8 6c0 6 4 10 9 10c4 0 7 -2 7 -6c0 -1 0 -2 -1 -2zM357 142c-4 0 -6 -2 -7 -6h12v1c0 3 -2 5 -5 5zM384 143h2l-3 -16h-2l1 3c-2 -2 -4 -3 -6 -3c-5 0 -7 2 -7 6c0 6 4 10 8 10c3 0 6 -2 6 -4zM376 129
c4 0 7 3 7 8c0 3 -2 5 -6 5s-7 -4 -7 -9c0 -3 2 -4 6 -4zM395 129c4 0 6 1 6 3c0 4 -9 1 -9 6c0 3 2 5 6 5c2 0 4 0 5 -2v-1c-1 1 -3 2 -5 2c-3 0 -5 -2 -5 -4c0 -4 9 -1 9 -6c0 -3 -2 -5 -7 -5c-2 0 -4 1 -6 2l2 1c1 -1 3 -1 4 -1zM423 135h-14v-2c0 -3 2 -4 6 -4
c2 0 4 0 5 1l1 -1c-1 -1 -4 -2 -6 -2c-4 0 -7 2 -7 6c0 6 3 10 8 10c4 0 7 -2 7 -6v-2zM416 142c-3 0 -5 -2 -7 -6h12v1c0 3 -2 5 -5 5zM446 127h-1l-6 22h2l5 -20l12 20h1zM467 148c0 -1 -1 -1 -2 -1c0 0 -1 0 -1 1s1 1 1 1c1 0 2 0 2 -1zM461 127l3 16h1l-3 -16h-1z
M478 142c-3 0 -5 -2 -5 -4c0 -4 9 -1 9 -6c0 -3 -3 -5 -7 -5c-2 0 -5 1 -6 2l1 1c1 -1 3 -1 6 -1s4 1 4 3c0 4 -9 1 -9 6c0 3 3 5 7 5c2 0 4 0 5 -2l-1 -1c-1 1 -3 2 -4 2zM488 127l3 16h2l-4 -16h-1zM494 148c0 -1 -1 -1 -1 -1c-1 0 -2 0 -2 1s1 1 2 1c0 0 1 0 1 -1z
M502 146h1v-3h5v-2h-5l-2 -9c-1 -1 -1 -1 -1 -2s2 -2 3 -2s2 1 2 1l1 -1c-1 -1 -2 -1 -3 -1c-3 0 -4 1 -4 3v2l2 9h-2v2h3v3zM942 573v-3h-913v3h913zM942 671v-3h-913v3h913zM942 681v-2h-913v2h913zM30 25v2h913v-2h-913zM30 36v2h913v-2h-913zM517 135h426v-2h-426v2z
M603 212c-2 0 -4 -3 -4 -7s2 -7 4 -7s3 -2 2 -4c-2 -2 -6 -3 -11 -3c-8 0 -9 1 -7 10c1 7 0 11 -3 15c-4 2 -7 9 -7 15c0 8 2 10 8 10s6 -1 5 -10c-2 -11 -2 -12 4 -11s7 5 7 24c-1 19 1 22 5 20c5 -1 6 -5 6 -18c0 -20 -4 -34 -9 -34zM569 255c-5 -2 -6 -7 -6 -27
c0 -15 2 -27 4 -28c6 -4 3 -9 -5 -9s-8 0 -7 31c1 30 1 31 -6 29c-6 -2 -8 -1 -8 5s2 8 16 8c9 0 19 0 22 1c5 2 6 0 6 -7c0 -9 -6 -13 -8 -5c-1 3 -4 3 -8 2zM643 218c-10 -6 -15 -20 -7 -20c2 0 3 -2 2 -4s-6 -3 -9 -3c-6 0 -8 3 -8 36l-1 37h13c15 0 25 -8 25 -21
s-4 -20 -15 -25zM631 235c3 -12 8 -15 15 -7c10 10 3 28 -11 28c-7 0 -7 -4 -4 -21zM722 283c-10 4 -20 11 -23 16c-7 10 -11 10 -14 1c-1 -4 -7 -10 -13 -13c-13 -6 -35 -2 -45 9c-5 6 -8 6 -13 4c-12 -7 -26 -4 -37 7c-9 10 -10 13 -10 36c0 20 -2 26 -5 26
c-8 0 -13 -17 -13 -40c0 -21 -3 -27 -17 -30c-5 0 -8 -5 -9 -12c-6 -27 -21 -38 -43 -31c-13 5 -29 22 -32 35c-2 7 -4 8 -16 6c-12 -1 -17 0 -24 7l-10 8l-7 -9c-5 -8 -10 -10 -20 -10h-12v-20c0 -25 -9 -39 -27 -39c-7 0 -17 4 -22 8c-6 4 -12 15 -15 26
c-6 19 -6 30 -4 170c0 18 -1 32 -3 33c-5 2 -19 -27 -24 -49c-2 -10 -5 -47 -6 -82l-2 -63l-15 2c-8 1 -16 4 -19 6c-2 3 -4 26 -6 59c-2 60 -6 76 -17 76c-20 0 -40 -34 -40 -67c0 -23 7 -34 25 -37c26 -5 0 -15 -28 -11c-12 2 -20 6 -29 15c-12 12 -13 14 -12 36
c2 27 12 44 34 58c26 18 65 16 84 -3c9 -9 13 -6 13 9c0 3 2 14 5 24c14 45 51 52 70 14c6 -13 7 -22 6 -102c-1 -92 0 -107 9 -107c12 0 16 40 5 59c-14 22 -7 58 12 70c7 5 14 6 26 5c9 -1 16 -1 16 1c0 5 11 6 23 3l14 -3l1 -36c1 -56 8 -43 11 23c1 32 1 59 0 60
c0 0 -12 2 -26 3c-20 1 -29 0 -43 -6c-20 -9 -39 -8 -31 1c9 10 43 18 67 15c13 -1 26 -3 30 -4c8 -2 9 0 13 22c5 25 7 27 28 22c8 -3 8 -4 6 -30l-3 -26h10c8 0 9 1 11 14c7 45 45 76 79 66c17 -5 26 -15 28 -33c2 -20 -8 -37 -32 -49c-11 -5 -24 -9 -29 -9
c-9 0 -10 -2 -11 -16c-1 -8 -1 -20 0 -27v-11l11 10c9 9 13 11 21 9c19 -4 27 -16 31 -47c5 -35 12 -35 14 0c2 22 3 25 14 35c11 9 14 11 27 9c8 -1 18 -3 21 -4c4 -2 7 0 8 5c2 8 11 10 26 4l10 -4l-3 -36c-2 -31 -1 -38 4 -46c11 -17 29 -11 45 16c7 12 9 21 10 37
c0 24 -7 34 -25 39s-14 10 11 11c51 3 75 -40 46 -85c-12 -19 -28 -30 -53 -35c-18 -3 -22 -3 -37 2zM551 464c-13 -39 -12 -42 11 -30c25 13 37 35 29 56c-7 23 -29 9 -40 -26zM386 318c6 12 8 49 2 53c-11 7 -21 -19 -17 -48c3 -18 8 -20 15 -5zM496 275
c10 -15 13 -5 11 30c-1 18 -4 50 -5 71s-3 40 -6 41c-12 8 -13 3 -13 -41c0 -50 5 -88 13 -101zM672 303c7 13 9 49 3 57c-5 7 -5 7 -11 -3c-8 -11 -11 -31 -8 -48c2 -14 10 -17 16 -6zM697 252c-16 7 -25 4 -25 -8c0 -10 9 -13 13 -6c4 6 9 3 9 -6c0 -7 -1 -8 -10 -6
c-11 2 -12 2 -12 -11c0 -12 1 -13 9 -13c4 0 10 1 12 3c3 3 4 2 6 -3c1 -6 0 -8 -9 -8c-7 0 -15 -1 -20 -2c-6 -2 -7 0 -7 35v37h11c6 0 15 0 19 1c7 3 9 2 7 -6c0 -4 -2 -8 -3 -7zM84 58h-7l-12 39h8l5 -20c1 -4 2 -9 3 -13c1 4 3 9 4 13l7 20h6l6 -20c1 -4 2 -9 3 -13
c1 4 2 9 3 13l6 20h7l-13 -39h-6l-6 19c-1 4 -3 8 -4 12c-1 -4 -2 -8 -3 -13zM154 58h-7l-12 39h8l5 -20c1 -4 2 -9 3 -13c1 4 2 9 4 13l6 20h6l7 -20c1 -4 2 -9 3 -13c1 4 2 9 3 13l6 20h7l-13 -39h-6l-6 19c-2 4 -3 8 -4 12c-1 -4 -2 -8 -4 -13zM224 58h-7l-12 39h7l6 -20
c1 -4 2 -9 3 -13c1 4 2 9 3 13l7 20h6l6 -20c2 -4 3 -9 4 -13c1 4 2 9 3 13l6 20h7l-13 -39h-6l-6 19c-2 4 -3 8 -4 12c-1 -4 -2 -8 -4 -13zM279 57c-3 0 -5 2 -5 5s2 5 5 5c2 0 4 -2 4 -5s-1 -5 -4 -5zM335 58h-8v22c0 7 -2 13 -9 13c-5 0 -9 -4 -10 -8c0 -1 -1 -2 -1 -3
v-24h-7v28v11h6l1 -6c2 3 7 8 13 8s15 -4 15 -18v-23zM351 68c0 9 9 15 24 15c0 4 -1 10 -9 10c-4 0 -7 -1 -10 -3l-2 5c4 2 8 4 13 4c12 0 15 -9 15 -17v-15c0 -3 0 -6 1 -9h-7v4c-3 -3 -7 -5 -12 -5c-9 0 -13 5 -13 11zM376 78c-9 0 -17 -1 -17 -9c0 -5 3 -7 6 -7
c5 0 9 3 10 6c0 2 1 2 1 3v7zM421 92h-10v-22c0 -5 1 -8 5 -8c2 0 4 1 4 1l1 -5c-2 -1 -4 -1 -7 -1s-6 1 -8 3c-1 2 -3 5 -3 10v22h-6v5h6v10l8 2v-12h10v-5zM471 58h-7v22c0 7 -2 13 -9 13c-5 0 -8 -4 -10 -8v-3v-24h-8v58h8v-25c1 2 3 4 5 5s5 3 8 3c5 0 13 -4 13 -18v-23
zM504 99c12 0 15 -9 15 -17v-15c0 -3 1 -6 1 -9h-6l-1 4h-1c-2 -3 -6 -5 -12 -5c-7 0 -12 5 -12 11c0 9 9 15 24 15c0 4 -1 10 -9 10c-4 0 -7 -1 -10 -3l-2 5c3 2 8 4 13 4zM512 71v7c-7 0 -16 -1 -16 -9c0 -5 3 -7 6 -7c6 0 9 3 10 6v3zM541 107l6 2v-12h11v-5h-11v-22
c0 -5 2 -8 6 -8c2 0 3 1 4 1l1 -5c-2 -1 -4 -1 -7 -1s-6 1 -8 3s-2 5 -2 10v22h-7v5h7v10zM578 49c3 1 5 4 6 8c1 1 1 1 1 2v2l-15 36h7l10 -23c0 -3 1 -6 2 -8c1 2 2 5 2 8l9 23h7l-11 -28c-5 -14 -8 -20 -13 -25c-4 -3 -7 -5 -9 -5l-2 6c2 1 4 2 6 4zM629 41h-7v44
c0 4 0 9 -1 12h7l1 -6c3 5 8 8 14 8c9 0 16 -9 16 -21c0 -14 -8 -21 -18 -21c-4 0 -9 2 -12 6v-22zM629 80v-6v-3c2 -5 6 -9 11 -9c8 0 12 6 12 15s-4 16 -11 16c-5 0 -10 -4 -11 -10c-1 0 -1 -1 -1 -3zM709 79v-3h-28c0 -9 7 -14 14 -14c5 0 8 1 11 2l1 -5
c-2 -1 -7 -2 -13 -2c-12 0 -20 8 -20 20s7 22 19 22c13 0 16 -12 16 -20zM681 81h21c0 5 -2 12 -10 12c-7 0 -10 -7 -11 -12zM734 62c0 -3 -2 -5 -5 -5s-5 2 -5 5s2 5 5 5s5 -2 5 -5zM769 93c-9 0 -14 -7 -14 -16s6 -15 14 -15c4 0 7 2 9 2l1 -5c-1 -1 -6 -2 -11 -2
c-12 0 -20 8 -20 20s8 21 21 21c4 0 9 -1 10 -2l-1 -5c-2 0 -5 2 -9 2zM831 78c0 -15 -10 -21 -20 -21s-18 8 -18 20c0 14 8 22 20 22c11 0 18 -9 18 -21zM800 77c0 -9 5 -15 12 -15s12 6 12 15c0 7 -4 16 -12 16s-12 -8 -12 -16zM906 58h-7v22c0 8 -3 13 -9 13
c-4 0 -8 -4 -9 -7v-4v-24h-7v24c0 6 -3 11 -8 11s-8 -4 -9 -8c-1 -1 -1 -2 -1 -3v-24h-7v28v11h6v-6c3 4 6 8 13 8c5 0 10 -4 11 -9c2 3 3 4 5 6c2 1 5 3 9 3c5 0 13 -4 13 -18v-23z" />
    <glyph glyph-name="six" unicode="6" horiz-adv-x="964" 
d="M29 642h19c11 0 18 -6 18 -16s-7 -16 -18 -16h-9v-11h-10v43zM56 626c0 5 -3 8 -9 8h-8v-15h8c6 0 9 2 9 7zM119 634h-22v-10h19v-8h-19v-9h22v-8h-32v43h32v-8zM178 626c0 -7 -3 -11 -9 -13l9 -14h-10l-8 12h-9v-12h-9v43h18c11 0 18 -6 18 -16zM159 619c6 0 9 2 9 7
s-3 8 -9 8h-8v-15h8zM214 606c5 0 8 2 8 4c0 9 -24 3 -24 19c0 7 5 13 17 13c6 0 11 -1 15 -3l-3 -8c-4 2 -8 3 -12 3c-6 0 -8 -2 -8 -4c0 -8 25 -3 25 -19c0 -7 -6 -13 -19 -13c-6 0 -13 2 -16 5l3 7c3 -2 9 -4 14 -4zM250 620c0 13 10 22 23 22s23 -9 23 -22
s-10 -22 -23 -22s-23 9 -23 22zM286 620c0 8 -6 14 -13 14c-8 0 -13 -6 -13 -14s5 -13 13 -13c7 0 13 5 13 13zM326 642l21 -26v26h9v-43h-8l-21 26v-26h-9v43h8zM375 599l19 43h9l19 -43h-10l-4 9h-20l-3 -9h-10zM405 616l-7 16l-6 -16h13zM441 642h9v-35h21v-8h-30v43z
M522 642h10v-24c0 -8 3 -11 9 -11s9 3 9 11v24h10v-25c0 -12 -7 -19 -19 -19s-19 7 -19 19v25zM598 606c6 0 8 2 8 4c0 9 -24 3 -24 19c0 7 5 13 17 13c6 0 11 -1 15 -3l-3 -8c-4 2 -8 3 -12 3c-5 0 -8 -2 -8 -4c0 -8 24 -3 24 -19c0 -7 -5 -13 -17 -13c-7 0 -13 2 -17 5
l3 7c4 -2 9 -4 14 -4zM669 634h-23v-10h20v-8h-20v-9h23v-8h-32v43h32v-8zM720 620c0 13 10 22 23 22s23 -9 23 -22s-10 -22 -23 -22s-23 9 -23 22zM756 620c0 8 -6 14 -13 14c-8 0 -13 -6 -13 -14s5 -13 13 -13c7 0 13 5 13 13zM796 642l21 -26v26h9v-43h-8l-21 26v-26h-9
v43h8zM851 642h9v-35h21v-8h-30v43zM917 599h-10v15l-16 28h10l12 -20l10 20h10l-16 -28v-15zM37 138v-1h-11l-2 -10h-1l4 22h14l-1 -2h-12l-1 -9h10zM43 133c0 6 4 10 9 10c4 0 7 -2 7 -6c0 -6 -4 -10 -9 -10s-7 3 -7 6zM57 137c0 3 -2 5 -6 5s-7 -4 -7 -9c0 -3 3 -4 6 -4
c4 0 7 3 7 8zM67 143h1v-3c1 2 3 3 6 3v-2v0c-4 0 -6 -1 -7 -6l-2 -8h-1zM101 147c-6 0 -10 -5 -10 -11c0 -4 2 -7 7 -7c3 0 6 0 7 2l1 -1c-2 -2 -5 -3 -8 -3c-6 0 -9 3 -9 9c0 7 5 13 12 13c3 0 6 -2 8 -3l-2 -2c-1 2 -3 3 -6 3zM127 137c0 -6 -4 -10 -9 -10
c-4 0 -7 3 -7 6c0 6 4 10 9 10c4 0 7 -2 7 -6zM118 129c4 0 7 3 7 8c0 3 -2 5 -5 5c-4 0 -7 -4 -7 -9c0 -3 2 -4 5 -4zM135 143h2l-1 -3c2 2 4 3 6 3c3 0 5 -1 5 -3c2 2 4 3 7 3s5 -2 5 -5v-1l-2 -10h-1l2 10v1c0 2 -2 4 -4 4c-4 0 -6 -2 -7 -6l-2 -9h-1l2 10v1
c0 2 -1 4 -4 4s-6 -2 -7 -6l-1 -9h-2zM188 143c3 0 5 -2 5 -5v-1l-2 -10h-1l2 10v1c0 2 -1 4 -4 4s-6 -2 -7 -6l-1 -9h-2l2 10v1c0 2 -2 4 -5 4s-5 -2 -6 -6l-1 -9h-2l3 16h2l-1 -3c1 2 4 3 6 3c3 0 5 -1 6 -3c1 2 3 3 6 3zM215 135h-14v-2c0 -3 2 -4 6 -4c2 0 4 0 5 1l1 -1
c-1 -1 -4 -2 -6 -2c-4 0 -7 2 -7 6c0 6 3 10 8 10c4 0 7 -2 7 -6v-2zM208 142c-3 0 -6 -2 -7 -6h12v1c0 3 -2 5 -5 5zM223 143h2l-1 -3c2 2 3 3 6 3v-2v0c-4 0 -6 -1 -7 -6l-1 -8h-2zM242 142c-4 0 -7 -4 -7 -9c0 -3 3 -4 6 -4c2 0 4 0 5 1h1c-2 -2 -4 -3 -6 -3
c-5 0 -7 3 -7 6c0 6 4 10 8 10c3 0 5 -1 6 -3h-1c-1 1 -2 2 -5 2zM259 148c0 -1 0 -1 -2 -1c0 0 -1 0 -1 1s1 1 2 1s1 0 1 -1zM253 127l3 16h1l-3 -16h-1zM277 127h-1v3c-1 -2 -3 -3 -6 -3c-4 0 -7 2 -7 6c0 6 3 10 9 10c3 0 5 -2 6 -4l1 4h1zM270 129c4 0 7 3 7 8
c0 3 -2 5 -5 5c-4 0 -7 -4 -7 -9c0 -3 1 -4 5 -4zM287 127h-1l4 23h2zM295 123h-1l1 4v1c0 1 0 2 1 2s1 -1 1 -1v-2zM324 134h-6l-1 -7h-2l5 22h7c4 0 7 -3 7 -6c0 -6 -4 -9 -10 -9zM321 147l-3 -12h6c5 0 8 3 8 8c0 3 -2 4 -5 4h-6zM340 127h-2l5 23h1zM363 135h-13v-2
c0 -3 2 -4 6 -4c2 0 4 0 5 1l1 -1c-2 -1 -4 -2 -6 -2c-5 0 -8 2 -8 6c0 6 4 10 9 10c4 0 7 -2 7 -6c0 -1 0 -2 -1 -2zM357 142c-4 0 -6 -2 -7 -6h12v1c0 3 -2 5 -5 5zM384 143h2l-3 -16h-2l1 3c-2 -2 -4 -3 -6 -3c-5 0 -7 2 -7 6c0 6 4 10 8 10c3 0 6 -2 6 -4zM376 129
c4 0 7 3 7 8c0 3 -2 5 -6 5s-7 -4 -7 -9c0 -3 2 -4 6 -4zM395 129c4 0 6 1 6 3c0 4 -9 1 -9 6c0 3 2 5 6 5c2 0 4 0 5 -2v-1c-1 1 -3 2 -5 2c-3 0 -5 -2 -5 -4c0 -4 9 -1 9 -6c0 -3 -2 -5 -7 -5c-2 0 -4 1 -6 2l2 1c1 -1 3 -1 4 -1zM423 135h-14v-2c0 -3 2 -4 6 -4
c2 0 4 0 5 1l1 -1c-1 -1 -4 -2 -6 -2c-4 0 -7 2 -7 6c0 6 3 10 8 10c4 0 7 -2 7 -6v-2zM416 142c-3 0 -5 -2 -7 -6h12v1c0 3 -2 5 -5 5zM446 127h-1l-6 22h2l5 -20l12 20h1zM467 148c0 -1 -1 -1 -2 -1c0 0 -1 0 -1 1s1 1 1 1c1 0 2 0 2 -1zM461 127l3 16h1l-3 -16h-1z
M478 142c-3 0 -5 -2 -5 -4c0 -4 9 -1 9 -6c0 -3 -3 -5 -7 -5c-2 0 -5 1 -6 2l1 1c1 -1 3 -1 6 -1s4 1 4 3c0 4 -9 1 -9 6c0 3 3 5 7 5c2 0 4 0 5 -2l-1 -1c-1 1 -3 2 -4 2zM488 127l3 16h2l-4 -16h-1zM494 148c0 -1 -1 -1 -1 -1c-1 0 -2 0 -2 1s1 1 2 1c0 0 1 0 1 -1z
M502 146h1v-3h5v-2h-5l-2 -9c-1 -1 -1 -1 -1 -2s2 -2 3 -2s2 1 2 1l1 -1c-1 -1 -2 -1 -3 -1c-3 0 -4 1 -4 3v2l2 9h-2v2h3v3zM942 573v-3h-913v3h913zM942 671v-3h-913v3h913zM942 681v-2h-913v2h913zM30 25v2h913v-2h-913zM30 36v2h913v-2h-913zM517 135h426v-2h-426v2z
M603 212c-2 0 -4 -3 -4 -7s2 -7 4 -7s3 -2 2 -4c-2 -2 -6 -3 -11 -3c-8 0 -9 1 -7 10c1 7 0 11 -3 15c-4 2 -7 9 -7 15c0 8 2 10 8 10s6 -1 5 -10c-2 -11 -2 -12 4 -11s7 5 7 24c-1 19 1 22 5 20c5 -1 6 -5 6 -18c0 -20 -4 -34 -9 -34zM569 255c-5 -2 -6 -7 -6 -27
c0 -15 2 -27 4 -28c6 -4 3 -9 -5 -9s-8 0 -7 31c1 30 1 31 -6 29c-6 -2 -8 -1 -8 5s2 8 16 8c9 0 19 0 22 1c5 2 6 0 6 -7c0 -9 -6 -13 -8 -5c-1 3 -4 3 -8 2zM643 218c-10 -6 -15 -20 -7 -20c2 0 3 -2 2 -4s-6 -3 -9 -3c-6 0 -8 3 -8 36l-1 37h13c15 0 25 -8 25 -21
s-4 -20 -15 -25zM631 235c3 -12 8 -15 15 -7c10 10 3 28 -11 28c-7 0 -7 -4 -4 -21zM722 283c-10 4 -20 11 -23 16c-7 10 -11 10 -14 1c-1 -4 -7 -10 -13 -13c-13 -6 -35 -2 -45 9c-5 6 -8 6 -13 4c-12 -7 -26 -4 -37 7c-9 10 -10 13 -10 36c0 20 -2 26 -5 26
c-8 0 -13 -17 -13 -40c0 -21 -3 -27 -17 -30c-5 0 -8 -5 -9 -12c-6 -27 -21 -38 -43 -31c-13 5 -29 22 -32 35c-2 7 -4 8 -16 6c-12 -1 -17 0 -24 7l-10 8l-7 -9c-5 -8 -10 -10 -20 -10h-12v-20c0 -25 -9 -39 -27 -39c-7 0 -17 4 -22 8c-6 4 -12 15 -15 26
c-6 19 -6 30 -4 170c0 18 -1 32 -3 33c-5 2 -19 -27 -24 -49c-2 -10 -5 -47 -6 -82l-2 -63l-15 2c-8 1 -16 4 -19 6c-2 3 -4 26 -6 59c-2 60 -6 76 -17 76c-20 0 -40 -34 -40 -67c0 -23 7 -34 25 -37c26 -5 0 -15 -28 -11c-12 2 -20 6 -29 15c-12 12 -13 14 -12 36
c2 27 12 44 34 58c26 18 65 16 84 -3c9 -9 13 -6 13 9c0 3 2 14 5 24c14 45 51 52 70 14c6 -13 7 -22 6 -102c-1 -92 0 -107 9 -107c12 0 16 40 5 59c-14 22 -7 58 12 70c7 5 14 6 26 5c9 -1 16 -1 16 1c0 5 11 6 23 3l14 -3l1 -36c1 -56 8 -43 11 23c1 32 1 59 0 60
c0 0 -12 2 -26 3c-20 1 -29 0 -43 -6c-20 -9 -39 -8 -31 1c9 10 43 18 67 15c13 -1 26 -3 30 -4c8 -2 9 0 13 22c5 25 7 27 28 22c8 -3 8 -4 6 -30l-3 -26h10c8 0 9 1 11 14c7 45 45 76 79 66c17 -5 26 -15 28 -33c2 -20 -8 -37 -32 -49c-11 -5 -24 -9 -29 -9
c-9 0 -10 -2 -11 -16c-1 -8 -1 -20 0 -27v-11l11 10c9 9 13 11 21 9c19 -4 27 -16 31 -47c5 -35 12 -35 14 0c2 22 3 25 14 35c11 9 14 11 27 9c8 -1 18 -3 21 -4c4 -2 7 0 8 5c2 8 11 10 26 4l10 -4l-3 -36c-2 -31 -1 -38 4 -46c11 -17 29 -11 45 16c7 12 9 21 10 37
c0 24 -7 34 -25 39s-14 10 11 11c51 3 75 -40 46 -85c-12 -19 -28 -30 -53 -35c-18 -3 -22 -3 -37 2zM551 464c-13 -39 -12 -42 11 -30c25 13 37 35 29 56c-7 23 -29 9 -40 -26zM386 318c6 12 8 49 2 53c-11 7 -21 -19 -17 -48c3 -18 8 -20 15 -5zM496 275
c10 -15 13 -5 11 30c-1 18 -4 50 -5 71s-3 40 -6 41c-12 8 -13 3 -13 -41c0 -50 5 -88 13 -101zM672 303c7 13 9 49 3 57c-5 7 -5 7 -11 -3c-8 -11 -11 -31 -8 -48c2 -14 10 -17 16 -6zM697 252c-16 7 -25 4 -25 -8c0 -10 9 -13 13 -6c4 6 9 3 9 -6c0 -7 -1 -8 -10 -6
c-11 2 -12 2 -12 -11c0 -12 1 -13 9 -13c4 0 10 1 12 3c3 3 4 2 6 -3c1 -6 0 -8 -9 -8c-7 0 -15 -1 -20 -2c-6 -2 -7 0 -7 35v37h11c6 0 15 0 19 1c7 3 9 2 7 -6c0 -4 -2 -8 -3 -7zM84 58h-7l-12 39h8l5 -20c1 -4 2 -9 3 -13c1 4 3 9 4 13l7 20h6l6 -20c1 -4 2 -9 3 -13
c1 4 2 9 3 13l6 20h7l-13 -39h-6l-6 19c-1 4 -3 8 -4 12c-1 -4 -2 -8 -3 -13zM154 58h-7l-12 39h8l5 -20c1 -4 2 -9 3 -13c1 4 2 9 4 13l6 20h6l7 -20c1 -4 2 -9 3 -13c1 4 2 9 3 13l6 20h7l-13 -39h-6l-6 19c-2 4 -3 8 -4 12c-1 -4 -2 -8 -4 -13zM224 58h-7l-12 39h7l6 -20
c1 -4 2 -9 3 -13c1 4 2 9 3 13l7 20h6l6 -20c2 -4 3 -9 4 -13c1 4 2 9 3 13l6 20h7l-13 -39h-6l-6 19c-2 4 -3 8 -4 12c-1 -4 -2 -8 -4 -13zM279 57c-3 0 -5 2 -5 5s2 5 5 5c2 0 4 -2 4 -5s-1 -5 -4 -5zM335 58h-8v22c0 7 -2 13 -9 13c-5 0 -9 -4 -10 -8c0 -1 -1 -2 -1 -3
v-24h-7v28v11h6l1 -6c2 3 7 8 13 8s15 -4 15 -18v-23zM351 68c0 9 9 15 24 15c0 4 -1 10 -9 10c-4 0 -7 -1 -10 -3l-2 5c4 2 8 4 13 4c12 0 15 -9 15 -17v-15c0 -3 0 -6 1 -9h-7v4c-3 -3 -7 -5 -12 -5c-9 0 -13 5 -13 11zM376 78c-9 0 -17 -1 -17 -9c0 -5 3 -7 6 -7
c5 0 9 3 10 6c0 2 1 2 1 3v7zM421 92h-10v-22c0 -5 1 -8 5 -8c2 0 4 1 4 1l1 -5c-2 -1 -4 -1 -7 -1s-6 1 -8 3c-1 2 -3 5 -3 10v22h-6v5h6v10l8 2v-12h10v-5zM471 58h-7v22c0 7 -2 13 -9 13c-5 0 -8 -4 -10 -8v-3v-24h-8v58h8v-25c1 2 3 4 5 5s5 3 8 3c5 0 13 -4 13 -18v-23
zM504 99c12 0 15 -9 15 -17v-15c0 -3 1 -6 1 -9h-6l-1 4h-1c-2 -3 -6 -5 -12 -5c-7 0 -12 5 -12 11c0 9 9 15 24 15c0 4 -1 10 -9 10c-4 0 -7 -1 -10 -3l-2 5c3 2 8 4 13 4zM512 71v7c-7 0 -16 -1 -16 -9c0 -5 3 -7 6 -7c6 0 9 3 10 6v3zM541 107l6 2v-12h11v-5h-11v-22
c0 -5 2 -8 6 -8c2 0 3 1 4 1l1 -5c-2 -1 -4 -1 -7 -1s-6 1 -8 3s-2 5 -2 10v22h-7v5h7v10zM578 49c3 1 5 4 6 8c1 1 1 1 1 2v2l-15 36h7l10 -23c0 -3 1 -6 2 -8c1 2 2 5 2 8l9 23h7l-11 -28c-5 -14 -8 -20 -13 -25c-4 -3 -7 -5 -9 -5l-2 6c2 1 4 2 6 4zM629 41h-7v44
c0 4 0 9 -1 12h7l1 -6c3 5 8 8 14 8c9 0 16 -9 16 -21c0 -14 -8 -21 -18 -21c-4 0 -9 2 -12 6v-22zM629 80v-6v-3c2 -5 6 -9 11 -9c8 0 12 6 12 15s-4 16 -11 16c-5 0 -10 -4 -11 -10c-1 0 -1 -1 -1 -3zM709 79v-3h-28c0 -9 7 -14 14 -14c5 0 8 1 11 2l1 -5
c-2 -1 -7 -2 -13 -2c-12 0 -20 8 -20 20s7 22 19 22c13 0 16 -12 16 -20zM681 81h21c0 5 -2 12 -10 12c-7 0 -10 -7 -11 -12zM734 62c0 -3 -2 -5 -5 -5s-5 2 -5 5s2 5 5 5s5 -2 5 -5zM769 93c-9 0 -14 -7 -14 -16s6 -15 14 -15c4 0 7 2 9 2l1 -5c-1 -1 -6 -2 -11 -2
c-12 0 -20 8 -20 20s8 21 21 21c4 0 9 -1 10 -2l-1 -5c-2 0 -5 2 -9 2zM831 78c0 -15 -10 -21 -20 -21s-18 8 -18 20c0 14 8 22 20 22c11 0 18 -9 18 -21zM800 77c0 -9 5 -15 12 -15s12 6 12 15c0 7 -4 16 -12 16s-12 -8 -12 -16zM906 58h-7v22c0 8 -3 13 -9 13
c-4 0 -8 -4 -9 -7v-4v-24h-7v24c0 6 -3 11 -8 11s-8 -4 -9 -8c-1 -1 -1 -2 -1 -3v-24h-7v28v11h6v-6c3 4 6 8 13 8c5 0 10 -4 11 -9c2 3 3 4 5 6c2 1 5 3 9 3c5 0 13 -4 13 -18v-23z" />
    <glyph glyph-name="seven" unicode="7" horiz-adv-x="964" 
d="M29 642h19c11 0 18 -6 18 -16s-7 -16 -18 -16h-9v-11h-10v43zM56 626c0 5 -3 8 -9 8h-8v-15h8c6 0 9 2 9 7zM119 634h-22v-10h19v-8h-19v-9h22v-8h-32v43h32v-8zM178 626c0 -7 -3 -11 -9 -13l9 -14h-10l-8 12h-9v-12h-9v43h18c11 0 18 -6 18 -16zM159 619c6 0 9 2 9 7
s-3 8 -9 8h-8v-15h8zM214 606c5 0 8 2 8 4c0 9 -24 3 -24 19c0 7 5 13 17 13c6 0 11 -1 15 -3l-3 -8c-4 2 -8 3 -12 3c-6 0 -8 -2 -8 -4c0 -8 25 -3 25 -19c0 -7 -6 -13 -19 -13c-6 0 -13 2 -16 5l3 7c3 -2 9 -4 14 -4zM250 620c0 13 10 22 23 22s23 -9 23 -22
s-10 -22 -23 -22s-23 9 -23 22zM286 620c0 8 -6 14 -13 14c-8 0 -13 -6 -13 -14s5 -13 13 -13c7 0 13 5 13 13zM326 642l21 -26v26h9v-43h-8l-21 26v-26h-9v43h8zM375 599l19 43h9l19 -43h-10l-4 9h-20l-3 -9h-10zM405 616l-7 16l-6 -16h13zM441 642h9v-35h21v-8h-30v43z
M522 642h10v-24c0 -8 3 -11 9 -11s9 3 9 11v24h10v-25c0 -12 -7 -19 -19 -19s-19 7 -19 19v25zM598 606c6 0 8 2 8 4c0 9 -24 3 -24 19c0 7 5 13 17 13c6 0 11 -1 15 -3l-3 -8c-4 2 -8 3 -12 3c-5 0 -8 -2 -8 -4c0 -8 24 -3 24 -19c0 -7 -5 -13 -17 -13c-7 0 -13 2 -17 5
l3 7c4 -2 9 -4 14 -4zM669 634h-23v-10h20v-8h-20v-9h23v-8h-32v43h32v-8zM720 620c0 13 10 22 23 22s23 -9 23 -22s-10 -22 -23 -22s-23 9 -23 22zM756 620c0 8 -6 14 -13 14c-8 0 -13 -6 -13 -14s5 -13 13 -13c7 0 13 5 13 13zM796 642l21 -26v26h9v-43h-8l-21 26v-26h-9
v43h8zM851 642h9v-35h21v-8h-30v43zM917 599h-10v15l-16 28h10l12 -20l10 20h10l-16 -28v-15zM37 138v-1h-11l-2 -10h-1l4 22h14l-1 -2h-12l-1 -9h10zM43 133c0 6 4 10 9 10c4 0 7 -2 7 -6c0 -6 -4 -10 -9 -10s-7 3 -7 6zM57 137c0 3 -2 5 -6 5s-7 -4 -7 -9c0 -3 3 -4 6 -4
c4 0 7 3 7 8zM67 143h1v-3c1 2 3 3 6 3v-2v0c-4 0 -6 -1 -7 -6l-2 -8h-1zM101 147c-6 0 -10 -5 -10 -11c0 -4 2 -7 7 -7c3 0 6 0 7 2l1 -1c-2 -2 -5 -3 -8 -3c-6 0 -9 3 -9 9c0 7 5 13 12 13c3 0 6 -2 8 -3l-2 -2c-1 2 -3 3 -6 3zM127 137c0 -6 -4 -10 -9 -10
c-4 0 -7 3 -7 6c0 6 4 10 9 10c4 0 7 -2 7 -6zM118 129c4 0 7 3 7 8c0 3 -2 5 -5 5c-4 0 -7 -4 -7 -9c0 -3 2 -4 5 -4zM135 143h2l-1 -3c2 2 4 3 6 3c3 0 5 -1 5 -3c2 2 4 3 7 3s5 -2 5 -5v-1l-2 -10h-1l2 10v1c0 2 -2 4 -4 4c-4 0 -6 -2 -7 -6l-2 -9h-1l2 10v1
c0 2 -1 4 -4 4s-6 -2 -7 -6l-1 -9h-2zM188 143c3 0 5 -2 5 -5v-1l-2 -10h-1l2 10v1c0 2 -1 4 -4 4s-6 -2 -7 -6l-1 -9h-2l2 10v1c0 2 -2 4 -5 4s-5 -2 -6 -6l-1 -9h-2l3 16h2l-1 -3c1 2 4 3 6 3c3 0 5 -1 6 -3c1 2 3 3 6 3zM215 135h-14v-2c0 -3 2 -4 6 -4c2 0 4 0 5 1l1 -1
c-1 -1 -4 -2 -6 -2c-4 0 -7 2 -7 6c0 6 3 10 8 10c4 0 7 -2 7 -6v-2zM208 142c-3 0 -6 -2 -7 -6h12v1c0 3 -2 5 -5 5zM223 143h2l-1 -3c2 2 3 3 6 3v-2v0c-4 0 -6 -1 -7 -6l-1 -8h-2zM242 142c-4 0 -7 -4 -7 -9c0 -3 3 -4 6 -4c2 0 4 0 5 1h1c-2 -2 -4 -3 -6 -3
c-5 0 -7 3 -7 6c0 6 4 10 8 10c3 0 5 -1 6 -3h-1c-1 1 -2 2 -5 2zM259 148c0 -1 0 -1 -2 -1c0 0 -1 0 -1 1s1 1 2 1s1 0 1 -1zM253 127l3 16h1l-3 -16h-1zM277 127h-1v3c-1 -2 -3 -3 -6 -3c-4 0 -7 2 -7 6c0 6 3 10 9 10c3 0 5 -2 6 -4l1 4h1zM270 129c4 0 7 3 7 8
c0 3 -2 5 -5 5c-4 0 -7 -4 -7 -9c0 -3 1 -4 5 -4zM287 127h-1l4 23h2zM295 123h-1l1 4v1c0 1 0 2 1 2s1 -1 1 -1v-2zM324 134h-6l-1 -7h-2l5 22h7c4 0 7 -3 7 -6c0 -6 -4 -9 -10 -9zM321 147l-3 -12h6c5 0 8 3 8 8c0 3 -2 4 -5 4h-6zM340 127h-2l5 23h1zM363 135h-13v-2
c0 -3 2 -4 6 -4c2 0 4 0 5 1l1 -1c-2 -1 -4 -2 -6 -2c-5 0 -8 2 -8 6c0 6 4 10 9 10c4 0 7 -2 7 -6c0 -1 0 -2 -1 -2zM357 142c-4 0 -6 -2 -7 -6h12v1c0 3 -2 5 -5 5zM384 143h2l-3 -16h-2l1 3c-2 -2 -4 -3 -6 -3c-5 0 -7 2 -7 6c0 6 4 10 8 10c3 0 6 -2 6 -4zM376 129
c4 0 7 3 7 8c0 3 -2 5 -6 5s-7 -4 -7 -9c0 -3 2 -4 6 -4zM395 129c4 0 6 1 6 3c0 4 -9 1 -9 6c0 3 2 5 6 5c2 0 4 0 5 -2v-1c-1 1 -3 2 -5 2c-3 0 -5 -2 -5 -4c0 -4 9 -1 9 -6c0 -3 -2 -5 -7 -5c-2 0 -4 1 -6 2l2 1c1 -1 3 -1 4 -1zM423 135h-14v-2c0 -3 2 -4 6 -4
c2 0 4 0 5 1l1 -1c-1 -1 -4 -2 -6 -2c-4 0 -7 2 -7 6c0 6 3 10 8 10c4 0 7 -2 7 -6v-2zM416 142c-3 0 -5 -2 -7 -6h12v1c0 3 -2 5 -5 5zM446 127h-1l-6 22h2l5 -20l12 20h1zM467 148c0 -1 -1 -1 -2 -1c0 0 -1 0 -1 1s1 1 1 1c1 0 2 0 2 -1zM461 127l3 16h1l-3 -16h-1z
M478 142c-3 0 -5 -2 -5 -4c0 -4 9 -1 9 -6c0 -3 -3 -5 -7 -5c-2 0 -5 1 -6 2l1 1c1 -1 3 -1 6 -1s4 1 4 3c0 4 -9 1 -9 6c0 3 3 5 7 5c2 0 4 0 5 -2l-1 -1c-1 1 -3 2 -4 2zM488 127l3 16h2l-4 -16h-1zM494 148c0 -1 -1 -1 -1 -1c-1 0 -2 0 -2 1s1 1 2 1c0 0 1 0 1 -1z
M502 146h1v-3h5v-2h-5l-2 -9c-1 -1 -1 -1 -1 -2s2 -2 3 -2s2 1 2 1l1 -1c-1 -1 -2 -1 -3 -1c-3 0 -4 1 -4 3v2l2 9h-2v2h3v3zM942 573v-3h-913v3h913zM942 671v-3h-913v3h913zM942 681v-2h-913v2h913zM30 25v2h913v-2h-913zM30 36v2h913v-2h-913zM517 135h426v-2h-426v2z
M603 212c-2 0 -4 -3 -4 -7s2 -7 4 -7s3 -2 2 -4c-2 -2 -6 -3 -11 -3c-8 0 -9 1 -7 10c1 7 0 11 -3 15c-4 2 -7 9 -7 15c0 8 2 10 8 10s6 -1 5 -10c-2 -11 -2 -12 4 -11s7 5 7 24c-1 19 1 22 5 20c5 -1 6 -5 6 -18c0 -20 -4 -34 -9 -34zM569 255c-5 -2 -6 -7 -6 -27
c0 -15 2 -27 4 -28c6 -4 3 -9 -5 -9s-8 0 -7 31c1 30 1 31 -6 29c-6 -2 -8 -1 -8 5s2 8 16 8c9 0 19 0 22 1c5 2 6 0 6 -7c0 -9 -6 -13 -8 -5c-1 3 -4 3 -8 2zM643 218c-10 -6 -15 -20 -7 -20c2 0 3 -2 2 -4s-6 -3 -9 -3c-6 0 -8 3 -8 36l-1 37h13c15 0 25 -8 25 -21
s-4 -20 -15 -25zM631 235c3 -12 8 -15 15 -7c10 10 3 28 -11 28c-7 0 -7 -4 -4 -21zM722 283c-10 4 -20 11 -23 16c-7 10 -11 10 -14 1c-1 -4 -7 -10 -13 -13c-13 -6 -35 -2 -45 9c-5 6 -8 6 -13 4c-12 -7 -26 -4 -37 7c-9 10 -10 13 -10 36c0 20 -2 26 -5 26
c-8 0 -13 -17 -13 -40c0 -21 -3 -27 -17 -30c-5 0 -8 -5 -9 -12c-6 -27 -21 -38 -43 -31c-13 5 -29 22 -32 35c-2 7 -4 8 -16 6c-12 -1 -17 0 -24 7l-10 8l-7 -9c-5 -8 -10 -10 -20 -10h-12v-20c0 -25 -9 -39 -27 -39c-7 0 -17 4 -22 8c-6 4 -12 15 -15 26
c-6 19 -6 30 -4 170c0 18 -1 32 -3 33c-5 2 -19 -27 -24 -49c-2 -10 -5 -47 -6 -82l-2 -63l-15 2c-8 1 -16 4 -19 6c-2 3 -4 26 -6 59c-2 60 -6 76 -17 76c-20 0 -40 -34 -40 -67c0 -23 7 -34 25 -37c26 -5 0 -15 -28 -11c-12 2 -20 6 -29 15c-12 12 -13 14 -12 36
c2 27 12 44 34 58c26 18 65 16 84 -3c9 -9 13 -6 13 9c0 3 2 14 5 24c14 45 51 52 70 14c6 -13 7 -22 6 -102c-1 -92 0 -107 9 -107c12 0 16 40 5 59c-14 22 -7 58 12 70c7 5 14 6 26 5c9 -1 16 -1 16 1c0 5 11 6 23 3l14 -3l1 -36c1 -56 8 -43 11 23c1 32 1 59 0 60
c0 0 -12 2 -26 3c-20 1 -29 0 -43 -6c-20 -9 -39 -8 -31 1c9 10 43 18 67 15c13 -1 26 -3 30 -4c8 -2 9 0 13 22c5 25 7 27 28 22c8 -3 8 -4 6 -30l-3 -26h10c8 0 9 1 11 14c7 45 45 76 79 66c17 -5 26 -15 28 -33c2 -20 -8 -37 -32 -49c-11 -5 -24 -9 -29 -9
c-9 0 -10 -2 -11 -16c-1 -8 -1 -20 0 -27v-11l11 10c9 9 13 11 21 9c19 -4 27 -16 31 -47c5 -35 12 -35 14 0c2 22 3 25 14 35c11 9 14 11 27 9c8 -1 18 -3 21 -4c4 -2 7 0 8 5c2 8 11 10 26 4l10 -4l-3 -36c-2 -31 -1 -38 4 -46c11 -17 29 -11 45 16c7 12 9 21 10 37
c0 24 -7 34 -25 39s-14 10 11 11c51 3 75 -40 46 -85c-12 -19 -28 -30 -53 -35c-18 -3 -22 -3 -37 2zM551 464c-13 -39 -12 -42 11 -30c25 13 37 35 29 56c-7 23 -29 9 -40 -26zM386 318c6 12 8 49 2 53c-11 7 -21 -19 -17 -48c3 -18 8 -20 15 -5zM496 275
c10 -15 13 -5 11 30c-1 18 -4 50 -5 71s-3 40 -6 41c-12 8 -13 3 -13 -41c0 -50 5 -88 13 -101zM672 303c7 13 9 49 3 57c-5 7 -5 7 -11 -3c-8 -11 -11 -31 -8 -48c2 -14 10 -17 16 -6zM697 252c-16 7 -25 4 -25 -8c0 -10 9 -13 13 -6c4 6 9 3 9 -6c0 -7 -1 -8 -10 -6
c-11 2 -12 2 -12 -11c0 -12 1 -13 9 -13c4 0 10 1 12 3c3 3 4 2 6 -3c1 -6 0 -8 -9 -8c-7 0 -15 -1 -20 -2c-6 -2 -7 0 -7 35v37h11c6 0 15 0 19 1c7 3 9 2 7 -6c0 -4 -2 -8 -3 -7zM84 58h-7l-12 39h8l5 -20c1 -4 2 -9 3 -13c1 4 3 9 4 13l7 20h6l6 -20c1 -4 2 -9 3 -13
c1 4 2 9 3 13l6 20h7l-13 -39h-6l-6 19c-1 4 -3 8 -4 12c-1 -4 -2 -8 -3 -13zM154 58h-7l-12 39h8l5 -20c1 -4 2 -9 3 -13c1 4 2 9 4 13l6 20h6l7 -20c1 -4 2 -9 3 -13c1 4 2 9 3 13l6 20h7l-13 -39h-6l-6 19c-2 4 -3 8 -4 12c-1 -4 -2 -8 -4 -13zM224 58h-7l-12 39h7l6 -20
c1 -4 2 -9 3 -13c1 4 2 9 3 13l7 20h6l6 -20c2 -4 3 -9 4 -13c1 4 2 9 3 13l6 20h7l-13 -39h-6l-6 19c-2 4 -3 8 -4 12c-1 -4 -2 -8 -4 -13zM279 57c-3 0 -5 2 -5 5s2 5 5 5c2 0 4 -2 4 -5s-1 -5 -4 -5zM335 58h-8v22c0 7 -2 13 -9 13c-5 0 -9 -4 -10 -8c0 -1 -1 -2 -1 -3
v-24h-7v28v11h6l1 -6c2 3 7 8 13 8s15 -4 15 -18v-23zM351 68c0 9 9 15 24 15c0 4 -1 10 -9 10c-4 0 -7 -1 -10 -3l-2 5c4 2 8 4 13 4c12 0 15 -9 15 -17v-15c0 -3 0 -6 1 -9h-7v4c-3 -3 -7 -5 -12 -5c-9 0 -13 5 -13 11zM376 78c-9 0 -17 -1 -17 -9c0 -5 3 -7 6 -7
c5 0 9 3 10 6c0 2 1 2 1 3v7zM421 92h-10v-22c0 -5 1 -8 5 -8c2 0 4 1 4 1l1 -5c-2 -1 -4 -1 -7 -1s-6 1 -8 3c-1 2 -3 5 -3 10v22h-6v5h6v10l8 2v-12h10v-5zM471 58h-7v22c0 7 -2 13 -9 13c-5 0 -8 -4 -10 -8v-3v-24h-8v58h8v-25c1 2 3 4 5 5s5 3 8 3c5 0 13 -4 13 -18v-23
zM504 99c12 0 15 -9 15 -17v-15c0 -3 1 -6 1 -9h-6l-1 4h-1c-2 -3 -6 -5 -12 -5c-7 0 -12 5 -12 11c0 9 9 15 24 15c0 4 -1 10 -9 10c-4 0 -7 -1 -10 -3l-2 5c3 2 8 4 13 4zM512 71v7c-7 0 -16 -1 -16 -9c0 -5 3 -7 6 -7c6 0 9 3 10 6v3zM541 107l6 2v-12h11v-5h-11v-22
c0 -5 2 -8 6 -8c2 0 3 1 4 1l1 -5c-2 -1 -4 -1 -7 -1s-6 1 -8 3s-2 5 -2 10v22h-7v5h7v10zM578 49c3 1 5 4 6 8c1 1 1 1 1 2v2l-15 36h7l10 -23c0 -3 1 -6 2 -8c1 2 2 5 2 8l9 23h7l-11 -28c-5 -14 -8 -20 -13 -25c-4 -3 -7 -5 -9 -5l-2 6c2 1 4 2 6 4zM629 41h-7v44
c0 4 0 9 -1 12h7l1 -6c3 5 8 8 14 8c9 0 16 -9 16 -21c0 -14 -8 -21 -18 -21c-4 0 -9 2 -12 6v-22zM629 80v-6v-3c2 -5 6 -9 11 -9c8 0 12 6 12 15s-4 16 -11 16c-5 0 -10 -4 -11 -10c-1 0 -1 -1 -1 -3zM709 79v-3h-28c0 -9 7 -14 14 -14c5 0 8 1 11 2l1 -5
c-2 -1 -7 -2 -13 -2c-12 0 -20 8 -20 20s7 22 19 22c13 0 16 -12 16 -20zM681 81h21c0 5 -2 12 -10 12c-7 0 -10 -7 -11 -12zM734 62c0 -3 -2 -5 -5 -5s-5 2 -5 5s2 5 5 5s5 -2 5 -5zM769 93c-9 0 -14 -7 -14 -16s6 -15 14 -15c4 0 7 2 9 2l1 -5c-1 -1 -6 -2 -11 -2
c-12 0 -20 8 -20 20s8 21 21 21c4 0 9 -1 10 -2l-1 -5c-2 0 -5 2 -9 2zM831 78c0 -15 -10 -21 -20 -21s-18 8 -18 20c0 14 8 22 20 22c11 0 18 -9 18 -21zM800 77c0 -9 5 -15 12 -15s12 6 12 15c0 7 -4 16 -12 16s-12 -8 -12 -16zM906 58h-7v22c0 8 -3 13 -9 13
c-4 0 -8 -4 -9 -7v-4v-24h-7v24c0 6 -3 11 -8 11s-8 -4 -9 -8c-1 -1 -1 -2 -1 -3v-24h-7v28v11h6v-6c3 4 6 8 13 8c5 0 10 -4 11 -9c2 3 3 4 5 6c2 1 5 3 9 3c5 0 13 -4 13 -18v-23z" />
    <glyph glyph-name="eight" unicode="8" horiz-adv-x="964" 
d="M29 642h19c11 0 18 -6 18 -16s-7 -16 -18 -16h-9v-11h-10v43zM56 626c0 5 -3 8 -9 8h-8v-15h8c6 0 9 2 9 7zM119 634h-22v-10h19v-8h-19v-9h22v-8h-32v43h32v-8zM178 626c0 -7 -3 -11 -9 -13l9 -14h-10l-8 12h-9v-12h-9v43h18c11 0 18 -6 18 -16zM159 619c6 0 9 2 9 7
s-3 8 -9 8h-8v-15h8zM214 606c5 0 8 2 8 4c0 9 -24 3 -24 19c0 7 5 13 17 13c6 0 11 -1 15 -3l-3 -8c-4 2 -8 3 -12 3c-6 0 -8 -2 -8 -4c0 -8 25 -3 25 -19c0 -7 -6 -13 -19 -13c-6 0 -13 2 -16 5l3 7c3 -2 9 -4 14 -4zM250 620c0 13 10 22 23 22s23 -9 23 -22
s-10 -22 -23 -22s-23 9 -23 22zM286 620c0 8 -6 14 -13 14c-8 0 -13 -6 -13 -14s5 -13 13 -13c7 0 13 5 13 13zM326 642l21 -26v26h9v-43h-8l-21 26v-26h-9v43h8zM375 599l19 43h9l19 -43h-10l-4 9h-20l-3 -9h-10zM405 616l-7 16l-6 -16h13zM441 642h9v-35h21v-8h-30v43z
M522 642h10v-24c0 -8 3 -11 9 -11s9 3 9 11v24h10v-25c0 -12 -7 -19 -19 -19s-19 7 -19 19v25zM598 606c6 0 8 2 8 4c0 9 -24 3 -24 19c0 7 5 13 17 13c6 0 11 -1 15 -3l-3 -8c-4 2 -8 3 -12 3c-5 0 -8 -2 -8 -4c0 -8 24 -3 24 -19c0 -7 -5 -13 -17 -13c-7 0 -13 2 -17 5
l3 7c4 -2 9 -4 14 -4zM669 634h-23v-10h20v-8h-20v-9h23v-8h-32v43h32v-8zM720 620c0 13 10 22 23 22s23 -9 23 -22s-10 -22 -23 -22s-23 9 -23 22zM756 620c0 8 -6 14 -13 14c-8 0 -13 -6 -13 -14s5 -13 13 -13c7 0 13 5 13 13zM796 642l21 -26v26h9v-43h-8l-21 26v-26h-9
v43h8zM851 642h9v-35h21v-8h-30v43zM917 599h-10v15l-16 28h10l12 -20l10 20h10l-16 -28v-15zM37 138v-1h-11l-2 -10h-1l4 22h14l-1 -2h-12l-1 -9h10zM43 133c0 6 4 10 9 10c4 0 7 -2 7 -6c0 -6 -4 -10 -9 -10s-7 3 -7 6zM57 137c0 3 -2 5 -6 5s-7 -4 -7 -9c0 -3 3 -4 6 -4
c4 0 7 3 7 8zM67 143h1v-3c1 2 3 3 6 3v-2v0c-4 0 -6 -1 -7 -6l-2 -8h-1zM101 147c-6 0 -10 -5 -10 -11c0 -4 2 -7 7 -7c3 0 6 0 7 2l1 -1c-2 -2 -5 -3 -8 -3c-6 0 -9 3 -9 9c0 7 5 13 12 13c3 0 6 -2 8 -3l-2 -2c-1 2 -3 3 -6 3zM127 137c0 -6 -4 -10 -9 -10
c-4 0 -7 3 -7 6c0 6 4 10 9 10c4 0 7 -2 7 -6zM118 129c4 0 7 3 7 8c0 3 -2 5 -5 5c-4 0 -7 -4 -7 -9c0 -3 2 -4 5 -4zM135 143h2l-1 -3c2 2 4 3 6 3c3 0 5 -1 5 -3c2 2 4 3 7 3s5 -2 5 -5v-1l-2 -10h-1l2 10v1c0 2 -2 4 -4 4c-4 0 -6 -2 -7 -6l-2 -9h-1l2 10v1
c0 2 -1 4 -4 4s-6 -2 -7 -6l-1 -9h-2zM188 143c3 0 5 -2 5 -5v-1l-2 -10h-1l2 10v1c0 2 -1 4 -4 4s-6 -2 -7 -6l-1 -9h-2l2 10v1c0 2 -2 4 -5 4s-5 -2 -6 -6l-1 -9h-2l3 16h2l-1 -3c1 2 4 3 6 3c3 0 5 -1 6 -3c1 2 3 3 6 3zM215 135h-14v-2c0 -3 2 -4 6 -4c2 0 4 0 5 1l1 -1
c-1 -1 -4 -2 -6 -2c-4 0 -7 2 -7 6c0 6 3 10 8 10c4 0 7 -2 7 -6v-2zM208 142c-3 0 -6 -2 -7 -6h12v1c0 3 -2 5 -5 5zM223 143h2l-1 -3c2 2 3 3 6 3v-2v0c-4 0 -6 -1 -7 -6l-1 -8h-2zM242 142c-4 0 -7 -4 -7 -9c0 -3 3 -4 6 -4c2 0 4 0 5 1h1c-2 -2 -4 -3 -6 -3
c-5 0 -7 3 -7 6c0 6 4 10 8 10c3 0 5 -1 6 -3h-1c-1 1 -2 2 -5 2zM259 148c0 -1 0 -1 -2 -1c0 0 -1 0 -1 1s1 1 2 1s1 0 1 -1zM253 127l3 16h1l-3 -16h-1zM277 127h-1v3c-1 -2 -3 -3 -6 -3c-4 0 -7 2 -7 6c0 6 3 10 9 10c3 0 5 -2 6 -4l1 4h1zM270 129c4 0 7 3 7 8
c0 3 -2 5 -5 5c-4 0 -7 -4 -7 -9c0 -3 1 -4 5 -4zM287 127h-1l4 23h2zM295 123h-1l1 4v1c0 1 0 2 1 2s1 -1 1 -1v-2zM324 134h-6l-1 -7h-2l5 22h7c4 0 7 -3 7 -6c0 -6 -4 -9 -10 -9zM321 147l-3 -12h6c5 0 8 3 8 8c0 3 -2 4 -5 4h-6zM340 127h-2l5 23h1zM363 135h-13v-2
c0 -3 2 -4 6 -4c2 0 4 0 5 1l1 -1c-2 -1 -4 -2 -6 -2c-5 0 -8 2 -8 6c0 6 4 10 9 10c4 0 7 -2 7 -6c0 -1 0 -2 -1 -2zM357 142c-4 0 -6 -2 -7 -6h12v1c0 3 -2 5 -5 5zM384 143h2l-3 -16h-2l1 3c-2 -2 -4 -3 -6 -3c-5 0 -7 2 -7 6c0 6 4 10 8 10c3 0 6 -2 6 -4zM376 129
c4 0 7 3 7 8c0 3 -2 5 -6 5s-7 -4 -7 -9c0 -3 2 -4 6 -4zM395 129c4 0 6 1 6 3c0 4 -9 1 -9 6c0 3 2 5 6 5c2 0 4 0 5 -2v-1c-1 1 -3 2 -5 2c-3 0 -5 -2 -5 -4c0 -4 9 -1 9 -6c0 -3 -2 -5 -7 -5c-2 0 -4 1 -6 2l2 1c1 -1 3 -1 4 -1zM423 135h-14v-2c0 -3 2 -4 6 -4
c2 0 4 0 5 1l1 -1c-1 -1 -4 -2 -6 -2c-4 0 -7 2 -7 6c0 6 3 10 8 10c4 0 7 -2 7 -6v-2zM416 142c-3 0 -5 -2 -7 -6h12v1c0 3 -2 5 -5 5zM446 127h-1l-6 22h2l5 -20l12 20h1zM467 148c0 -1 -1 -1 -2 -1c0 0 -1 0 -1 1s1 1 1 1c1 0 2 0 2 -1zM461 127l3 16h1l-3 -16h-1z
M478 142c-3 0 -5 -2 -5 -4c0 -4 9 -1 9 -6c0 -3 -3 -5 -7 -5c-2 0 -5 1 -6 2l1 1c1 -1 3 -1 6 -1s4 1 4 3c0 4 -9 1 -9 6c0 3 3 5 7 5c2 0 4 0 5 -2l-1 -1c-1 1 -3 2 -4 2zM488 127l3 16h2l-4 -16h-1zM494 148c0 -1 -1 -1 -1 -1c-1 0 -2 0 -2 1s1 1 2 1c0 0 1 0 1 -1z
M502 146h1v-3h5v-2h-5l-2 -9c-1 -1 -1 -1 -1 -2s2 -2 3 -2s2 1 2 1l1 -1c-1 -1 -2 -1 -3 -1c-3 0 -4 1 -4 3v2l2 9h-2v2h3v3zM942 573v-3h-913v3h913zM942 671v-3h-913v3h913zM942 681v-2h-913v2h913zM30 25v2h913v-2h-913zM30 36v2h913v-2h-913zM517 135h426v-2h-426v2z
M603 212c-2 0 -4 -3 -4 -7s2 -7 4 -7s3 -2 2 -4c-2 -2 -6 -3 -11 -3c-8 0 -9 1 -7 10c1 7 0 11 -3 15c-4 2 -7 9 -7 15c0 8 2 10 8 10s6 -1 5 -10c-2 -11 -2 -12 4 -11s7 5 7 24c-1 19 1 22 5 20c5 -1 6 -5 6 -18c0 -20 -4 -34 -9 -34zM569 255c-5 -2 -6 -7 -6 -27
c0 -15 2 -27 4 -28c6 -4 3 -9 -5 -9s-8 0 -7 31c1 30 1 31 -6 29c-6 -2 -8 -1 -8 5s2 8 16 8c9 0 19 0 22 1c5 2 6 0 6 -7c0 -9 -6 -13 -8 -5c-1 3 -4 3 -8 2zM643 218c-10 -6 -15 -20 -7 -20c2 0 3 -2 2 -4s-6 -3 -9 -3c-6 0 -8 3 -8 36l-1 37h13c15 0 25 -8 25 -21
s-4 -20 -15 -25zM631 235c3 -12 8 -15 15 -7c10 10 3 28 -11 28c-7 0 -7 -4 -4 -21zM722 283c-10 4 -20 11 -23 16c-7 10 -11 10 -14 1c-1 -4 -7 -10 -13 -13c-13 -6 -35 -2 -45 9c-5 6 -8 6 -13 4c-12 -7 -26 -4 -37 7c-9 10 -10 13 -10 36c0 20 -2 26 -5 26
c-8 0 -13 -17 -13 -40c0 -21 -3 -27 -17 -30c-5 0 -8 -5 -9 -12c-6 -27 -21 -38 -43 -31c-13 5 -29 22 -32 35c-2 7 -4 8 -16 6c-12 -1 -17 0 -24 7l-10 8l-7 -9c-5 -8 -10 -10 -20 -10h-12v-20c0 -25 -9 -39 -27 -39c-7 0 -17 4 -22 8c-6 4 -12 15 -15 26
c-6 19 -6 30 -4 170c0 18 -1 32 -3 33c-5 2 -19 -27 -24 -49c-2 -10 -5 -47 -6 -82l-2 -63l-15 2c-8 1 -16 4 -19 6c-2 3 -4 26 -6 59c-2 60 -6 76 -17 76c-20 0 -40 -34 -40 -67c0 -23 7 -34 25 -37c26 -5 0 -15 -28 -11c-12 2 -20 6 -29 15c-12 12 -13 14 -12 36
c2 27 12 44 34 58c26 18 65 16 84 -3c9 -9 13 -6 13 9c0 3 2 14 5 24c14 45 51 52 70 14c6 -13 7 -22 6 -102c-1 -92 0 -107 9 -107c12 0 16 40 5 59c-14 22 -7 58 12 70c7 5 14 6 26 5c9 -1 16 -1 16 1c0 5 11 6 23 3l14 -3l1 -36c1 -56 8 -43 11 23c1 32 1 59 0 60
c0 0 -12 2 -26 3c-20 1 -29 0 -43 -6c-20 -9 -39 -8 -31 1c9 10 43 18 67 15c13 -1 26 -3 30 -4c8 -2 9 0 13 22c5 25 7 27 28 22c8 -3 8 -4 6 -30l-3 -26h10c8 0 9 1 11 14c7 45 45 76 79 66c17 -5 26 -15 28 -33c2 -20 -8 -37 -32 -49c-11 -5 -24 -9 -29 -9
c-9 0 -10 -2 -11 -16c-1 -8 -1 -20 0 -27v-11l11 10c9 9 13 11 21 9c19 -4 27 -16 31 -47c5 -35 12 -35 14 0c2 22 3 25 14 35c11 9 14 11 27 9c8 -1 18 -3 21 -4c4 -2 7 0 8 5c2 8 11 10 26 4l10 -4l-3 -36c-2 -31 -1 -38 4 -46c11 -17 29 -11 45 16c7 12 9 21 10 37
c0 24 -7 34 -25 39s-14 10 11 11c51 3 75 -40 46 -85c-12 -19 -28 -30 -53 -35c-18 -3 -22 -3 -37 2zM551 464c-13 -39 -12 -42 11 -30c25 13 37 35 29 56c-7 23 -29 9 -40 -26zM386 318c6 12 8 49 2 53c-11 7 -21 -19 -17 -48c3 -18 8 -20 15 -5zM496 275
c10 -15 13 -5 11 30c-1 18 -4 50 -5 71s-3 40 -6 41c-12 8 -13 3 -13 -41c0 -50 5 -88 13 -101zM672 303c7 13 9 49 3 57c-5 7 -5 7 -11 -3c-8 -11 -11 -31 -8 -48c2 -14 10 -17 16 -6zM697 252c-16 7 -25 4 -25 -8c0 -10 9 -13 13 -6c4 6 9 3 9 -6c0 -7 -1 -8 -10 -6
c-11 2 -12 2 -12 -11c0 -12 1 -13 9 -13c4 0 10 1 12 3c3 3 4 2 6 -3c1 -6 0 -8 -9 -8c-7 0 -15 -1 -20 -2c-6 -2 -7 0 -7 35v37h11c6 0 15 0 19 1c7 3 9 2 7 -6c0 -4 -2 -8 -3 -7zM84 58h-7l-12 39h8l5 -20c1 -4 2 -9 3 -13c1 4 3 9 4 13l7 20h6l6 -20c1 -4 2 -9 3 -13
c1 4 2 9 3 13l6 20h7l-13 -39h-6l-6 19c-1 4 -3 8 -4 12c-1 -4 -2 -8 -3 -13zM154 58h-7l-12 39h8l5 -20c1 -4 2 -9 3 -13c1 4 2 9 4 13l6 20h6l7 -20c1 -4 2 -9 3 -13c1 4 2 9 3 13l6 20h7l-13 -39h-6l-6 19c-2 4 -3 8 -4 12c-1 -4 -2 -8 -4 -13zM224 58h-7l-12 39h7l6 -20
c1 -4 2 -9 3 -13c1 4 2 9 3 13l7 20h6l6 -20c2 -4 3 -9 4 -13c1 4 2 9 3 13l6 20h7l-13 -39h-6l-6 19c-2 4 -3 8 -4 12c-1 -4 -2 -8 -4 -13zM279 57c-3 0 -5 2 -5 5s2 5 5 5c2 0 4 -2 4 -5s-1 -5 -4 -5zM335 58h-8v22c0 7 -2 13 -9 13c-5 0 -9 -4 -10 -8c0 -1 -1 -2 -1 -3
v-24h-7v28v11h6l1 -6c2 3 7 8 13 8s15 -4 15 -18v-23zM351 68c0 9 9 15 24 15c0 4 -1 10 -9 10c-4 0 -7 -1 -10 -3l-2 5c4 2 8 4 13 4c12 0 15 -9 15 -17v-15c0 -3 0 -6 1 -9h-7v4c-3 -3 -7 -5 -12 -5c-9 0 -13 5 -13 11zM376 78c-9 0 -17 -1 -17 -9c0 -5 3 -7 6 -7
c5 0 9 3 10 6c0 2 1 2 1 3v7zM421 92h-10v-22c0 -5 1 -8 5 -8c2 0 4 1 4 1l1 -5c-2 -1 -4 -1 -7 -1s-6 1 -8 3c-1 2 -3 5 -3 10v22h-6v5h6v10l8 2v-12h10v-5zM471 58h-7v22c0 7 -2 13 -9 13c-5 0 -8 -4 -10 -8v-3v-24h-8v58h8v-25c1 2 3 4 5 5s5 3 8 3c5 0 13 -4 13 -18v-23
zM504 99c12 0 15 -9 15 -17v-15c0 -3 1 -6 1 -9h-6l-1 4h-1c-2 -3 -6 -5 -12 -5c-7 0 -12 5 -12 11c0 9 9 15 24 15c0 4 -1 10 -9 10c-4 0 -7 -1 -10 -3l-2 5c3 2 8 4 13 4zM512 71v7c-7 0 -16 -1 -16 -9c0 -5 3 -7 6 -7c6 0 9 3 10 6v3zM541 107l6 2v-12h11v-5h-11v-22
c0 -5 2 -8 6 -8c2 0 3 1 4 1l1 -5c-2 -1 -4 -1 -7 -1s-6 1 -8 3s-2 5 -2 10v22h-7v5h7v10zM578 49c3 1 5 4 6 8c1 1 1 1 1 2v2l-15 36h7l10 -23c0 -3 1 -6 2 -8c1 2 2 5 2 8l9 23h7l-11 -28c-5 -14 -8 -20 -13 -25c-4 -3 -7 -5 -9 -5l-2 6c2 1 4 2 6 4zM629 41h-7v44
c0 4 0 9 -1 12h7l1 -6c3 5 8 8 14 8c9 0 16 -9 16 -21c0 -14 -8 -21 -18 -21c-4 0 -9 2 -12 6v-22zM629 80v-6v-3c2 -5 6 -9 11 -9c8 0 12 6 12 15s-4 16 -11 16c-5 0 -10 -4 -11 -10c-1 0 -1 -1 -1 -3zM709 79v-3h-28c0 -9 7 -14 14 -14c5 0 8 1 11 2l1 -5
c-2 -1 -7 -2 -13 -2c-12 0 -20 8 -20 20s7 22 19 22c13 0 16 -12 16 -20zM681 81h21c0 5 -2 12 -10 12c-7 0 -10 -7 -11 -12zM734 62c0 -3 -2 -5 -5 -5s-5 2 -5 5s2 5 5 5s5 -2 5 -5zM769 93c-9 0 -14 -7 -14 -16s6 -15 14 -15c4 0 7 2 9 2l1 -5c-1 -1 -6 -2 -11 -2
c-12 0 -20 8 -20 20s8 21 21 21c4 0 9 -1 10 -2l-1 -5c-2 0 -5 2 -9 2zM831 78c0 -15 -10 -21 -20 -21s-18 8 -18 20c0 14 8 22 20 22c11 0 18 -9 18 -21zM800 77c0 -9 5 -15 12 -15s12 6 12 15c0 7 -4 16 -12 16s-12 -8 -12 -16zM906 58h-7v22c0 8 -3 13 -9 13
c-4 0 -8 -4 -9 -7v-4v-24h-7v24c0 6 -3 11 -8 11s-8 -4 -9 -8c-1 -1 -1 -2 -1 -3v-24h-7v28v11h6v-6c3 4 6 8 13 8c5 0 10 -4 11 -9c2 3 3 4 5 6c2 1 5 3 9 3c5 0 13 -4 13 -18v-23z" />
    <glyph glyph-name="nine" unicode="9" horiz-adv-x="964" 
d="M29 642h19c11 0 18 -6 18 -16s-7 -16 -18 -16h-9v-11h-10v43zM56 626c0 5 -3 8 -9 8h-8v-15h8c6 0 9 2 9 7zM119 634h-22v-10h19v-8h-19v-9h22v-8h-32v43h32v-8zM178 626c0 -7 -3 -11 -9 -13l9 -14h-10l-8 12h-9v-12h-9v43h18c11 0 18 -6 18 -16zM159 619c6 0 9 2 9 7
s-3 8 -9 8h-8v-15h8zM214 606c5 0 8 2 8 4c0 9 -24 3 -24 19c0 7 5 13 17 13c6 0 11 -1 15 -3l-3 -8c-4 2 -8 3 -12 3c-6 0 -8 -2 -8 -4c0 -8 25 -3 25 -19c0 -7 -6 -13 -19 -13c-6 0 -13 2 -16 5l3 7c3 -2 9 -4 14 -4zM250 620c0 13 10 22 23 22s23 -9 23 -22
s-10 -22 -23 -22s-23 9 -23 22zM286 620c0 8 -6 14 -13 14c-8 0 -13 -6 -13 -14s5 -13 13 -13c7 0 13 5 13 13zM326 642l21 -26v26h9v-43h-8l-21 26v-26h-9v43h8zM375 599l19 43h9l19 -43h-10l-4 9h-20l-3 -9h-10zM405 616l-7 16l-6 -16h13zM441 642h9v-35h21v-8h-30v43z
M522 642h10v-24c0 -8 3 -11 9 -11s9 3 9 11v24h10v-25c0 -12 -7 -19 -19 -19s-19 7 -19 19v25zM598 606c6 0 8 2 8 4c0 9 -24 3 -24 19c0 7 5 13 17 13c6 0 11 -1 15 -3l-3 -8c-4 2 -8 3 -12 3c-5 0 -8 -2 -8 -4c0 -8 24 -3 24 -19c0 -7 -5 -13 -17 -13c-7 0 -13 2 -17 5
l3 7c4 -2 9 -4 14 -4zM669 634h-23v-10h20v-8h-20v-9h23v-8h-32v43h32v-8zM720 620c0 13 10 22 23 22s23 -9 23 -22s-10 -22 -23 -22s-23 9 -23 22zM756 620c0 8 -6 14 -13 14c-8 0 -13 -6 -13 -14s5 -13 13 -13c7 0 13 5 13 13zM796 642l21 -26v26h9v-43h-8l-21 26v-26h-9
v43h8zM851 642h9v-35h21v-8h-30v43zM917 599h-10v15l-16 28h10l12 -20l10 20h10l-16 -28v-15zM37 138v-1h-11l-2 -10h-1l4 22h14l-1 -2h-12l-1 -9h10zM43 133c0 6 4 10 9 10c4 0 7 -2 7 -6c0 -6 -4 -10 -9 -10s-7 3 -7 6zM57 137c0 3 -2 5 -6 5s-7 -4 -7 -9c0 -3 3 -4 6 -4
c4 0 7 3 7 8zM67 143h1v-3c1 2 3 3 6 3v-2v0c-4 0 -6 -1 -7 -6l-2 -8h-1zM101 147c-6 0 -10 -5 -10 -11c0 -4 2 -7 7 -7c3 0 6 0 7 2l1 -1c-2 -2 -5 -3 -8 -3c-6 0 -9 3 -9 9c0 7 5 13 12 13c3 0 6 -2 8 -3l-2 -2c-1 2 -3 3 -6 3zM127 137c0 -6 -4 -10 -9 -10
c-4 0 -7 3 -7 6c0 6 4 10 9 10c4 0 7 -2 7 -6zM118 129c4 0 7 3 7 8c0 3 -2 5 -5 5c-4 0 -7 -4 -7 -9c0 -3 2 -4 5 -4zM135 143h2l-1 -3c2 2 4 3 6 3c3 0 5 -1 5 -3c2 2 4 3 7 3s5 -2 5 -5v-1l-2 -10h-1l2 10v1c0 2 -2 4 -4 4c-4 0 -6 -2 -7 -6l-2 -9h-1l2 10v1
c0 2 -1 4 -4 4s-6 -2 -7 -6l-1 -9h-2zM188 143c3 0 5 -2 5 -5v-1l-2 -10h-1l2 10v1c0 2 -1 4 -4 4s-6 -2 -7 -6l-1 -9h-2l2 10v1c0 2 -2 4 -5 4s-5 -2 -6 -6l-1 -9h-2l3 16h2l-1 -3c1 2 4 3 6 3c3 0 5 -1 6 -3c1 2 3 3 6 3zM215 135h-14v-2c0 -3 2 -4 6 -4c2 0 4 0 5 1l1 -1
c-1 -1 -4 -2 -6 -2c-4 0 -7 2 -7 6c0 6 3 10 8 10c4 0 7 -2 7 -6v-2zM208 142c-3 0 -6 -2 -7 -6h12v1c0 3 -2 5 -5 5zM223 143h2l-1 -3c2 2 3 3 6 3v-2v0c-4 0 -6 -1 -7 -6l-1 -8h-2zM242 142c-4 0 -7 -4 -7 -9c0 -3 3 -4 6 -4c2 0 4 0 5 1h1c-2 -2 -4 -3 -6 -3
c-5 0 -7 3 -7 6c0 6 4 10 8 10c3 0 5 -1 6 -3h-1c-1 1 -2 2 -5 2zM259 148c0 -1 0 -1 -2 -1c0 0 -1 0 -1 1s1 1 2 1s1 0 1 -1zM253 127l3 16h1l-3 -16h-1zM277 127h-1v3c-1 -2 -3 -3 -6 -3c-4 0 -7 2 -7 6c0 6 3 10 9 10c3 0 5 -2 6 -4l1 4h1zM270 129c4 0 7 3 7 8
c0 3 -2 5 -5 5c-4 0 -7 -4 -7 -9c0 -3 1 -4 5 -4zM287 127h-1l4 23h2zM295 123h-1l1 4v1c0 1 0 2 1 2s1 -1 1 -1v-2zM324 134h-6l-1 -7h-2l5 22h7c4 0 7 -3 7 -6c0 -6 -4 -9 -10 -9zM321 147l-3 -12h6c5 0 8 3 8 8c0 3 -2 4 -5 4h-6zM340 127h-2l5 23h1zM363 135h-13v-2
c0 -3 2 -4 6 -4c2 0 4 0 5 1l1 -1c-2 -1 -4 -2 -6 -2c-5 0 -8 2 -8 6c0 6 4 10 9 10c4 0 7 -2 7 -6c0 -1 0 -2 -1 -2zM357 142c-4 0 -6 -2 -7 -6h12v1c0 3 -2 5 -5 5zM384 143h2l-3 -16h-2l1 3c-2 -2 -4 -3 -6 -3c-5 0 -7 2 -7 6c0 6 4 10 8 10c3 0 6 -2 6 -4zM376 129
c4 0 7 3 7 8c0 3 -2 5 -6 5s-7 -4 -7 -9c0 -3 2 -4 6 -4zM395 129c4 0 6 1 6 3c0 4 -9 1 -9 6c0 3 2 5 6 5c2 0 4 0 5 -2v-1c-1 1 -3 2 -5 2c-3 0 -5 -2 -5 -4c0 -4 9 -1 9 -6c0 -3 -2 -5 -7 -5c-2 0 -4 1 -6 2l2 1c1 -1 3 -1 4 -1zM423 135h-14v-2c0 -3 2 -4 6 -4
c2 0 4 0 5 1l1 -1c-1 -1 -4 -2 -6 -2c-4 0 -7 2 -7 6c0 6 3 10 8 10c4 0 7 -2 7 -6v-2zM416 142c-3 0 -5 -2 -7 -6h12v1c0 3 -2 5 -5 5zM446 127h-1l-6 22h2l5 -20l12 20h1zM467 148c0 -1 -1 -1 -2 -1c0 0 -1 0 -1 1s1 1 1 1c1 0 2 0 2 -1zM461 127l3 16h1l-3 -16h-1z
M478 142c-3 0 -5 -2 -5 -4c0 -4 9 -1 9 -6c0 -3 -3 -5 -7 -5c-2 0 -5 1 -6 2l1 1c1 -1 3 -1 6 -1s4 1 4 3c0 4 -9 1 -9 6c0 3 3 5 7 5c2 0 4 0 5 -2l-1 -1c-1 1 -3 2 -4 2zM488 127l3 16h2l-4 -16h-1zM494 148c0 -1 -1 -1 -1 -1c-1 0 -2 0 -2 1s1 1 2 1c0 0 1 0 1 -1z
M502 146h1v-3h5v-2h-5l-2 -9c-1 -1 -1 -1 -1 -2s2 -2 3 -2s2 1 2 1l1 -1c-1 -1 -2 -1 -3 -1c-3 0 -4 1 -4 3v2l2 9h-2v2h3v3zM942 573v-3h-913v3h913zM942 671v-3h-913v3h913zM942 681v-2h-913v2h913zM30 25v2h913v-2h-913zM30 36v2h913v-2h-913zM517 135h426v-2h-426v2z
M603 212c-2 0 -4 -3 -4 -7s2 -7 4 -7s3 -2 2 -4c-2 -2 -6 -3 -11 -3c-8 0 -9 1 -7 10c1 7 0 11 -3 15c-4 2 -7 9 -7 15c0 8 2 10 8 10s6 -1 5 -10c-2 -11 -2 -12 4 -11s7 5 7 24c-1 19 1 22 5 20c5 -1 6 -5 6 -18c0 -20 -4 -34 -9 -34zM569 255c-5 -2 -6 -7 -6 -27
c0 -15 2 -27 4 -28c6 -4 3 -9 -5 -9s-8 0 -7 31c1 30 1 31 -6 29c-6 -2 -8 -1 -8 5s2 8 16 8c9 0 19 0 22 1c5 2 6 0 6 -7c0 -9 -6 -13 -8 -5c-1 3 -4 3 -8 2zM643 218c-10 -6 -15 -20 -7 -20c2 0 3 -2 2 -4s-6 -3 -9 -3c-6 0 -8 3 -8 36l-1 37h13c15 0 25 -8 25 -21
s-4 -20 -15 -25zM631 235c3 -12 8 -15 15 -7c10 10 3 28 -11 28c-7 0 -7 -4 -4 -21zM722 283c-10 4 -20 11 -23 16c-7 10 -11 10 -14 1c-1 -4 -7 -10 -13 -13c-13 -6 -35 -2 -45 9c-5 6 -8 6 -13 4c-12 -7 -26 -4 -37 7c-9 10 -10 13 -10 36c0 20 -2 26 -5 26
c-8 0 -13 -17 -13 -40c0 -21 -3 -27 -17 -30c-5 0 -8 -5 -9 -12c-6 -27 -21 -38 -43 -31c-13 5 -29 22 -32 35c-2 7 -4 8 -16 6c-12 -1 -17 0 -24 7l-10 8l-7 -9c-5 -8 -10 -10 -20 -10h-12v-20c0 -25 -9 -39 -27 -39c-7 0 -17 4 -22 8c-6 4 -12 15 -15 26
c-6 19 -6 30 -4 170c0 18 -1 32 -3 33c-5 2 -19 -27 -24 -49c-2 -10 -5 -47 -6 -82l-2 -63l-15 2c-8 1 -16 4 -19 6c-2 3 -4 26 -6 59c-2 60 -6 76 -17 76c-20 0 -40 -34 -40 -67c0 -23 7 -34 25 -37c26 -5 0 -15 -28 -11c-12 2 -20 6 -29 15c-12 12 -13 14 -12 36
c2 27 12 44 34 58c26 18 65 16 84 -3c9 -9 13 -6 13 9c0 3 2 14 5 24c14 45 51 52 70 14c6 -13 7 -22 6 -102c-1 -92 0 -107 9 -107c12 0 16 40 5 59c-14 22 -7 58 12 70c7 5 14 6 26 5c9 -1 16 -1 16 1c0 5 11 6 23 3l14 -3l1 -36c1 -56 8 -43 11 23c1 32 1 59 0 60
c0 0 -12 2 -26 3c-20 1 -29 0 -43 -6c-20 -9 -39 -8 -31 1c9 10 43 18 67 15c13 -1 26 -3 30 -4c8 -2 9 0 13 22c5 25 7 27 28 22c8 -3 8 -4 6 -30l-3 -26h10c8 0 9 1 11 14c7 45 45 76 79 66c17 -5 26 -15 28 -33c2 -20 -8 -37 -32 -49c-11 -5 -24 -9 -29 -9
c-9 0 -10 -2 -11 -16c-1 -8 -1 -20 0 -27v-11l11 10c9 9 13 11 21 9c19 -4 27 -16 31 -47c5 -35 12 -35 14 0c2 22 3 25 14 35c11 9 14 11 27 9c8 -1 18 -3 21 -4c4 -2 7 0 8 5c2 8 11 10 26 4l10 -4l-3 -36c-2 -31 -1 -38 4 -46c11 -17 29 -11 45 16c7 12 9 21 10 37
c0 24 -7 34 -25 39s-14 10 11 11c51 3 75 -40 46 -85c-12 -19 -28 -30 -53 -35c-18 -3 -22 -3 -37 2zM551 464c-13 -39 -12 -42 11 -30c25 13 37 35 29 56c-7 23 -29 9 -40 -26zM386 318c6 12 8 49 2 53c-11 7 -21 -19 -17 -48c3 -18 8 -20 15 -5zM496 275
c10 -15 13 -5 11 30c-1 18 -4 50 -5 71s-3 40 -6 41c-12 8 -13 3 -13 -41c0 -50 5 -88 13 -101zM672 303c7 13 9 49 3 57c-5 7 -5 7 -11 -3c-8 -11 -11 -31 -8 -48c2 -14 10 -17 16 -6zM697 252c-16 7 -25 4 -25 -8c0 -10 9 -13 13 -6c4 6 9 3 9 -6c0 -7 -1 -8 -10 -6
c-11 2 -12 2 -12 -11c0 -12 1 -13 9 -13c4 0 10 1 12 3c3 3 4 2 6 -3c1 -6 0 -8 -9 -8c-7 0 -15 -1 -20 -2c-6 -2 -7 0 -7 35v37h11c6 0 15 0 19 1c7 3 9 2 7 -6c0 -4 -2 -8 -3 -7zM84 58h-7l-12 39h8l5 -20c1 -4 2 -9 3 -13c1 4 3 9 4 13l7 20h6l6 -20c1 -4 2 -9 3 -13
c1 4 2 9 3 13l6 20h7l-13 -39h-6l-6 19c-1 4 -3 8 -4 12c-1 -4 -2 -8 -3 -13zM154 58h-7l-12 39h8l5 -20c1 -4 2 -9 3 -13c1 4 2 9 4 13l6 20h6l7 -20c1 -4 2 -9 3 -13c1 4 2 9 3 13l6 20h7l-13 -39h-6l-6 19c-2 4 -3 8 -4 12c-1 -4 -2 -8 -4 -13zM224 58h-7l-12 39h7l6 -20
c1 -4 2 -9 3 -13c1 4 2 9 3 13l7 20h6l6 -20c2 -4 3 -9 4 -13c1 4 2 9 3 13l6 20h7l-13 -39h-6l-6 19c-2 4 -3 8 -4 12c-1 -4 -2 -8 -4 -13zM279 57c-3 0 -5 2 -5 5s2 5 5 5c2 0 4 -2 4 -5s-1 -5 -4 -5zM335 58h-8v22c0 7 -2 13 -9 13c-5 0 -9 -4 -10 -8c0 -1 -1 -2 -1 -3
v-24h-7v28v11h6l1 -6c2 3 7 8 13 8s15 -4 15 -18v-23zM351 68c0 9 9 15 24 15c0 4 -1 10 -9 10c-4 0 -7 -1 -10 -3l-2 5c4 2 8 4 13 4c12 0 15 -9 15 -17v-15c0 -3 0 -6 1 -9h-7v4c-3 -3 -7 -5 -12 -5c-9 0 -13 5 -13 11zM376 78c-9 0 -17 -1 -17 -9c0 -5 3 -7 6 -7
c5 0 9 3 10 6c0 2 1 2 1 3v7zM421 92h-10v-22c0 -5 1 -8 5 -8c2 0 4 1 4 1l1 -5c-2 -1 -4 -1 -7 -1s-6 1 -8 3c-1 2 -3 5 -3 10v22h-6v5h6v10l8 2v-12h10v-5zM471 58h-7v22c0 7 -2 13 -9 13c-5 0 -8 -4 -10 -8v-3v-24h-8v58h8v-25c1 2 3 4 5 5s5 3 8 3c5 0 13 -4 13 -18v-23
zM504 99c12 0 15 -9 15 -17v-15c0 -3 1 -6 1 -9h-6l-1 4h-1c-2 -3 -6 -5 -12 -5c-7 0 -12 5 -12 11c0 9 9 15 24 15c0 4 -1 10 -9 10c-4 0 -7 -1 -10 -3l-2 5c3 2 8 4 13 4zM512 71v7c-7 0 -16 -1 -16 -9c0 -5 3 -7 6 -7c6 0 9 3 10 6v3zM541 107l6 2v-12h11v-5h-11v-22
c0 -5 2 -8 6 -8c2 0 3 1 4 1l1 -5c-2 -1 -4 -1 -7 -1s-6 1 -8 3s-2 5 -2 10v22h-7v5h7v10zM578 49c3 1 5 4 6 8c1 1 1 1 1 2v2l-15 36h7l10 -23c0 -3 1 -6 2 -8c1 2 2 5 2 8l9 23h7l-11 -28c-5 -14 -8 -20 -13 -25c-4 -3 -7 -5 -9 -5l-2 6c2 1 4 2 6 4zM629 41h-7v44
c0 4 0 9 -1 12h7l1 -6c3 5 8 8 14 8c9 0 16 -9 16 -21c0 -14 -8 -21 -18 -21c-4 0 -9 2 -12 6v-22zM629 80v-6v-3c2 -5 6 -9 11 -9c8 0 12 6 12 15s-4 16 -11 16c-5 0 -10 -4 -11 -10c-1 0 -1 -1 -1 -3zM709 79v-3h-28c0 -9 7 -14 14 -14c5 0 8 1 11 2l1 -5
c-2 -1 -7 -2 -13 -2c-12 0 -20 8 -20 20s7 22 19 22c13 0 16 -12 16 -20zM681 81h21c0 5 -2 12 -10 12c-7 0 -10 -7 -11 -12zM734 62c0 -3 -2 -5 -5 -5s-5 2 -5 5s2 5 5 5s5 -2 5 -5zM769 93c-9 0 -14 -7 -14 -16s6 -15 14 -15c4 0 7 2 9 2l1 -5c-1 -1 -6 -2 -11 -2
c-12 0 -20 8 -20 20s8 21 21 21c4 0 9 -1 10 -2l-1 -5c-2 0 -5 2 -9 2zM831 78c0 -15 -10 -21 -20 -21s-18 8 -18 20c0 14 8 22 20 22c11 0 18 -9 18 -21zM800 77c0 -9 5 -15 12 -15s12 6 12 15c0 7 -4 16 -12 16s-12 -8 -12 -16zM906 58h-7v22c0 8 -3 13 -9 13
c-4 0 -8 -4 -9 -7v-4v-24h-7v24c0 6 -3 11 -8 11s-8 -4 -9 -8c-1 -1 -1 -2 -1 -3v-24h-7v28v11h6v-6c3 4 6 8 13 8c5 0 10 -4 11 -9c2 3 3 4 5 6c2 1 5 3 9 3c5 0 13 -4 13 -18v-23z" />
    <glyph glyph-name="colon" unicode=":" horiz-adv-x="196" 
d="M98 421c-32 0 -57 25 -57 57c0 31 25 56 57 56c31 0 56 -25 56 -56c0 -32 -25 -57 -56 -57zM98 161c-32 0 -57 26 -57 57c0 32 25 57 57 57c31 0 56 -25 56 -57c0 -31 -25 -57 -56 -57z" />
    <glyph glyph-name="semicolon" unicode=";" horiz-adv-x="200" 
d="M100 421c-32 0 -57 25 -57 57c0 31 25 56 57 56c31 0 56 -25 56 -56c0 -32 -25 -57 -56 -57zM100 277c31 0 57 -25 57 -56c0 -69 -10 -127 -100 -115v42c11 -11 24 -16 35 -16c23 0 41 20 38 41c-9 -6 -19 -9 -30 -9c-32 0 -57 25 -57 57c0 31 25 56 57 56z" />
    <glyph glyph-name="less" unicode="&#x3c;" horiz-adv-x="269" 
d="M177 403c-23 -13 -48 -22 -69 -22c-18 0 -45 -27 -50 -32c5 -5 32 -32 50 -32c21 0 46 -8 69 -21l49 -29v-63l-193 145l193 145v-62z" />
    <glyph glyph-name="equal" unicode="=" horiz-adv-x="408" 
d="M290 445h81v-58h-80c-29 0 -56 13 -85 13c-30 0 -59 -13 -89 -13h-80v58h81c32 0 58 -13 87 -13s56 13 85 13zM205 300c29 0 56 13 85 13h81v-58h-80c-29 0 -56 13 -85 13c-30 0 -59 -13 -89 -13h-80v58h81c32 0 58 -13 87 -13z" />
    <glyph glyph-name="greater" unicode="&#x3e;" horiz-adv-x="269" 
d="M42 494l193 -145l-193 -145v63l49 29c23 13 49 21 69 21c18 0 45 27 50 32c-5 5 -32 32 -50 32c-20 0 -46 9 -69 22l-49 29v62z" />
    <glyph glyph-name="question" unicode="?" horiz-adv-x="541" 
d="M274 700c133 0 228 -45 228 -172c0 -115 -108 -212 -221 -240l31 -142h-89l31 143c101 42 115 69 147 164h-51c-72 0 -74 -38 -74 -116h-12c0 74 -5 116 -78 116h-57c0 200 -74 174 -74 174v11h73c20 30 70 62 146 62zM185 464c73 0 79 64 79 225
c-67 -4 -122 -64 -124 -150v-75h45zM404 464c5 18 8 37 8 58c0 107 -47 164 -136 167c0 -163 2 -225 74 -225h54zM267 125c34 0 62 -28 62 -62c0 -35 -28 -63 -62 -63c-35 0 -63 28 -63 63c0 34 28 62 63 62z" />
    <glyph glyph-name="at" unicode="@" horiz-adv-x="456" 
d="M167 305l-4 -17c-12 -48 -14 -60 13 -60l-1 -3h-66l1 3c27 0 30 12 42 60c9 36 39 161 39 161c12 49 14 60 -12 60l1 4h96v-4c-26 0 -24 -11 -12 -60c0 0 30 -125 39 -161c4 -18 10 -52 44 -52c44 0 54 68 54 115c0 104 -78 189 -173 189c-96 0 -173 -84 -173 -189
c0 -104 77 -189 173 -189c42 0 81 17 111 45h17c-33 -36 -78 -57 -128 -57c-102 0 -185 90 -185 201s83 202 185 202s181 -91 184 -202c2 -48 -18 -127 -80 -127c-28 0 -53 16 -64 64l-5 17h-12c-29 0 -33 -11 -33 -71h-5c0 61 -2 71 -32 71h-14zM228 449
c-4 17 -7 29 -10 38c0 -167 3 -178 32 -178h12zM202 449l-34 -140h15c29 0 30 11 30 179c-3 -9 -7 -21 -11 -39z" />
    <glyph glyph-name="A" unicode="A" horiz-adv-x="567" 
d="M568 9l3 -9h-219l-2 9c64 0 59 28 31 145l-10 41h-30c-72 0 -80 -27 -81 -171h-12c1 147 -4 171 -78 171h-34l-10 -41c-28 -117 -33 -145 31 -145l-2 -9h-159l2 9c64 0 73 28 102 145c21 88 96 392 96 392c28 117 33 145 -31 145l2 9h233l2 -9c-64 0 -60 -28 -31 -145
c0 0 74 -304 96 -392c28 -117 37 -145 101 -145zM174 206c72 0 74 26 74 435c-8 -22 -16 -53 -26 -95l-83 -340h35zM338 206h30l-83 340c-10 40 -17 69 -25 90c0 -403 8 -430 78 -430z" />
    <glyph glyph-name="B" unicode="B" horiz-adv-x="526" 
d="M294 401c98 -20 212 -87 212 -260c0 -109 -106 -134 -194 -140c-12 0 -295 -1 -295 -1v9c64 0 67 28 67 145v392c0 117 -3 145 -67 145v9h199c73 0 204 -36 204 -192c0 -76 -64 -102 -126 -107zM169 546v-137c31 2 43 20 43 134c0 49 -1 11 -1 116h11v-115
c1 -104 0 -135 45 -135c54 0 94 43 94 97c0 75 -43 185 -136 185c-54 0 -56 -35 -56 -145zM298 10c88 0 118 74 118 135c0 93 -47 249 -156 249c-29 0 -38 -40 -38 -183c0 -53 1 -48 0 -163h-11c0 72 1 91 1 163c0 154 -13 185 -43 185v-242c0 -102 2 -136 45 -144h84z" />
    <glyph glyph-name="C" unicode="C" 
d="M384 344c-73 0 -74 -14 -74 -285h-11c-2 271 -2 285 -74 285v11c72 0 74 14 74 286h11c0 -272 1 -286 74 -286v-11zM439 638h72v-11s-74 6 -74 -193h-11l1 103c0 89 -60 152 -131 152c-143 0 -176 -148 -176 -263c0 -270 99 -417 234 -417h19l-1 194h11
c0 -199 74 -193 74 -193v-10h-102c-95 0 -325 39 -325 417c0 205 129 283 262 283c77 0 126 -32 147 -62z" />
    <glyph glyph-name="D" unicode="D" horiz-adv-x="537" 
d="M277 641c-1 -272 0 -286 74 -286v-11c-74 0 -75 -14 -74 -284h-12c-1 270 -2 284 -74 284v11c72 0 74 15 74 286h12zM222 700c77 0 285 -88 284 -464c-1 -225 -152 -236 -243 -236h-246v9c64 0 67 28 67 145v392c0 117 -3 145 -67 145v9h205zM268 9
c122 0 148 113 148 234c0 183 -64 447 -198 447c-45 0 -49 -32 -49 -144v-392c0 -117 2 -145 67 -145h32z" />
    <glyph glyph-name="E" unicode="E" horiz-adv-x="482" 
d="M398 204c0 -200 74 -193 74 -193v-11h-455v9c64 0 67 28 67 145v392c0 117 -3 145 -67 145v9h444v-11s-74 7 -74 -193h-11l1 195h-146c-59 0 -62 -31 -62 -145v-190h14c74 0 75 45 74 317h12c0 -272 1 -317 74 -317v-12c-73 0 -73 -114 -74 -317h-12c1 203 0 317 -74 317
h-14v-190c0 -117 4 -145 66 -145h153l-1 195h11z" />
    <glyph glyph-name="F" unicode="F" horiz-adv-x="462" 
d="M17 700h444v-11s-74 7 -74 -193h-11l1 195h-146c-59 -1 -62 -31 -62 -145v-190h14c74 0 75 45 74 317h12c0 -272 1 -317 74 -317v-12c-73 0 -73 -34 -74 -193h-12c1 159 0 193 -74 193h-14v-190c0 -117 3 -145 67 -145v-9h-219v9c64 0 67 28 67 145v392
c0 117 -3 145 -67 145v9z" />
    <glyph glyph-name="G" unicode="G" 
d="M439 638h72v-11s-74 6 -74 -193h-11l1 103c0 78 -60 152 -131 152c-143 0 -176 -148 -176 -263c0 -270 99 -417 234 -417h19l-2 335h-24c-74 0 -72 -14 -72 -285h-11c-2 271 -2 285 -74 285v11c72 0 74 14 74 286h11c0 -272 -2 -286 72 -286h35l1 -152
c0 -199 74 -193 74 -193v-10h-102c-95 0 -325 39 -325 417c0 205 129 283 262 283c77 0 126 -32 147 -62z" />
    <glyph glyph-name="H" unicode="H" horiz-adv-x="561" 
d="M544 691c-64 0 -67 -28 -67 -145v-392c0 -117 3 -145 67 -145v-9h-219v9c64 0 66 28 66 145v190h-32c-73 0 -74 -14 -74 -284h-11c-2 270 -2 284 -74 284h-31v-190c0 -117 3 -145 67 -145v-9h-219v9c64 0 67 28 67 145v392c0 117 -3 145 -67 145v9h219v-9
c-64 0 -67 -28 -67 -145v-191h31c72 0 74 15 74 286h11c0 -272 1 -286 74 -286h32v191c0 117 -2 145 -66 145v9h219v-9z" />
    <glyph glyph-name="I" unicode="I" horiz-adv-x="253" 
d="M236 474c-64 0 -67 -28 -67 -145v-175c0 -117 3 -145 67 -145v-9h-219v9c64 0 67 28 67 145v175c0 117 -3 145 -67 145v9h219v-9zM234 507v-11h-217v11c74 0 105 39 104 193h12c1 -153 29 -193 101 -193z" />
    <glyph glyph-name="J" unicode="J" horiz-adv-x="480" 
d="M247 700h219v-9c-64 0 -66 -28 -66 -145v-341c0 -169 -74 -205 -197 -205c-101 0 -143 14 -171 62h-28v11s74 -6 74 193h44c73 0 74 15 74 286h12c-1 -272 0 -286 74 -286h32v280c0 117 -3 145 -67 145v9zM314 197v58h-32c-74 0 -74 -72 -74 -208h-12
c0 136 -1 208 -74 208h-33v-93c1 -90 10 -151 113 -151c108 0 112 55 112 186z" />
    <glyph glyph-name="K" unicode="K" horiz-adv-x="502" 
d="M493 9l4 -9h-235v9c71 -1 82 58 67 137c-74 0 -74 -65 -74 -146h-11c0 81 -1 146 -75 146c1 -110 4 -137 67 -137v-9h-219v9c64 0 66 28 66 145v392c0 117 -2 145 -66 145v9h219v-9c-64 0 -67 -28 -67 -145v-191c41 240 159 345 248 345h54v-11s-74 7 -74 -193v-146h-11
l1 327c-66 -12 -136 -102 -169 -191l145 -332c51 -117 66 -145 130 -145zM255 293c0 -67 0 -135 72 -136c-21 99 -79 226 -115 310c-30 -91 -40 -191 -43 -265v-45c74 0 75 69 75 136h11z" />
    <glyph glyph-name="L" unicode="L" horiz-adv-x="470" 
d="M345 355c0 -293 127 -344 127 -344v-11h-455v9c64 0 66 28 66 145v392c0 117 -2 145 -66 145v9h219v-9c-64 0 -67 -28 -67 -145v-190h14c74 0 75 45 74 317h12c1 -268 0 -318 76 -318zM235 9h101c0 114 -2 170 -2 335c-64 -9 -64 -122 -65 -317h-12c1 203 0 317 -74 317
h-14v-190c0 -117 3 -145 66 -145z" />
    <glyph glyph-name="M" unicode="M" horiz-adv-x="731" 
d="M714 691c-64 0 -67 -28 -67 -145v-392c0 -117 3 -145 67 -145v-9h-219v9c64 0 66 28 66 145v392c0 50 0 83 -5 106c-13 -23 -25 -56 -42 -106l-70 -202c-68 0 -71 -23 -75 -284h-11c-2 262 -2 283 -67 284l-67 1l-69 201c-16 47 -28 80 -40 102c-5 -22 -5 -55 -5 -102
v-392c0 -117 2 -145 66 -145v-9h-159v9c64 0 67 28 67 145v392c0 117 -3 145 -67 145v9h238l3 -9c-65 0 -57 -28 -17 -145l65 -190c50 6 52 45 52 285h11c0 -243 0 -280 53 -285l65 190c41 117 48 145 -16 145l3 9h240v-9z" />
    <glyph glyph-name="N" unicode="N" horiz-adv-x="535" 
d="M517 691c-64 0 -66 -28 -66 -145v-392c0 -117 2 -145 66 -145v-9h-159v3c-2 268 -2 340 -71 341l-63 1l-69 201c-16 47 -28 80 -40 102c-5 -22 -5 -55 -5 -102v-392c0 -117 2 -145 66 -145v-9h-159v9c64 0 67 28 67 145v392c0 117 -3 145 -67 145v9h237l3 -9
c-64 0 -56 -28 -16 -145l64 -188c51 15 53 95 53 337v5h159v-9zM424 154v188c-54 -12 -55 -92 -55 -333c53 4 55 35 55 145zM424 357v189c0 110 -2 141 -55 145c0 -243 1 -321 55 -334z" />
    <glyph glyph-name="O" unicode="O" horiz-adv-x="544" 
d="M272 700c129 0 233 -26 233 -350s-104 -350 -233 -350s-234 24 -234 350s105 350 234 350zM272 10c81 0 146 25 147 334h-69c-74 0 -75 -14 -74 -284h-12c-1 270 -1 284 -74 284c0 1 -41 1 -66 0c1 -311 67 -334 148 -334zM350 355h69c-1 310 -66 335 -147 335
s-147 -24 -148 -335h66c73 0 74 15 74 286h12c-1 -272 0 -286 74 -286z" />
    <glyph glyph-name="P" unicode="P" horiz-adv-x="523" 
d="M217 700c94 0 289 -49 289 -266c0 -109 -57 -140 -214 -140c-53 0 -56 -32 -56 -262h-11c-2 231 -2 257 -56 260v-138c0 -117 3 -145 67 -145v-9h-219v9c64 0 66 28 66 145v392c0 117 -2 145 -66 145v9h200zM288 304c130 0 128 72 128 134c0 101 -58 244 -183 253
c-61 -1 -64 -30 -64 -145v-242c54 4 56 39 56 285h11c0 -242 1 -285 52 -285z" />
    <glyph glyph-name="Q" unicode="Q" horiz-adv-x="544" 
d="M419 37c51 -29 72 -68 138 -68v-11h-217v11c48 0 70 27 54 52c-36 -18 -78 -21 -122 -21c-129 0 -234 24 -234 350s105 350 234 350s233 -26 233 -350c0 -183 -33 -271 -86 -313zM272 10c81 0 146 25 147 334h-69c-74 0 -75 -14 -74 -284h-12c-1 270 -1 284 -74 284
c0 1 -41 1 -66 0c1 -311 67 -334 148 -334zM350 355h69c-1 310 -66 335 -147 335s-147 -24 -148 -335h66c73 0 74 15 74 286h12c-1 -272 0 -286 74 -286z" />
    <glyph glyph-name="R" unicode="R" horiz-adv-x="545" 
d="M526 9l4 -9h-262l-4 9c188 0 71 282 17 282c-41 0 -44 -49 -45 -259h-11c-2 231 -2 257 -56 260v-138c0 -117 3 -145 67 -145v-9h-219v9c64 0 67 28 67 145v392c0 117 -3 145 -67 145v9h200c94 0 289 -49 289 -266c0 -105 -99 -133 -186 -139l64 -141
c52 -117 78 -145 142 -145zM289 304c105 0 127 72 127 134c0 101 -58 244 -183 253c-61 -1 -64 -30 -64 -145v-242c54 4 56 43 56 348h11c-1 -299 0 -348 53 -348z" />
    <glyph glyph-name="S" unicode="S" horiz-adv-x="522" 
d="M137 522c0 -235 357 -294 357 -294v-55c0 -126 -79 -173 -232 -173c-107 0 -170 33 -193 64h-49v10s74 -6 74 193h11v-103c1 -90 59 -153 156 -153c128 0 143 41 143 169v54c-82 21 -357 116 -357 294c0 127 95 172 227 172c77 0 142 -32 163 -62h57v-11s-74 7 -74 -193
h-47c-72 0 -74 -38 -74 -116h-12c0 74 -5 116 -78 116h-38v11h37c74 0 79 47 79 213h12c0 -168 1 -213 74 -213h36v92c-1 90 -60 152 -131 152c-104 0 -141 -72 -141 -167z" />
    <glyph glyph-name="T" unicode="T" horiz-adv-x="490" 
d="M0 700h489v-11s-74 7 -74 -193h-10v84h-78c-67 0 -75 -32 -75 -117c0 -102 37 -141 37 -309c0 -117 2 -145 66 -145v-9h-219v9c64 0 67 28 67 145c0 173 38 207 38 309c0 85 -9 117 -74 117h-82v-84h-11c0 200 -74 193 -74 193v11zM167 591c70 0 71 92 70 100h-153
l1 -100c20 -1 82 -1 82 0zM405 591v100h-150c0 -8 1 -100 72 -100h78z" />
    <glyph glyph-name="U" unicode="U" horiz-adv-x="537" 
d="M13 700h516v-9c-86 0 -87 33 -87 -486c0 -152 -44 -205 -136 -205c-162 0 -227 29 -227 191v355c0 117 -2 145 -66 145v9zM310 19c94 0 119 70 119 185c0 459 -6 487 -59 487c-45 0 -64 -28 -66 -313c0 -68 0 -136 74 -136h31l-1 -11h-30c-74 0 -74 -65 -74 -146h-12
c0 81 0 146 -74 146h-30l-1 11h31c66 0 73 70 74 136c0 284 -8 313 -66 313s-61 -32 -61 -145v-355c0 -163 43 -172 145 -172z" />
    <glyph glyph-name="V" unicode="V" horiz-adv-x="565" 
d="M410 700h160l-3 -9c-64 0 -73 -28 -101 -145c-22 -88 -96 -392 -96 -392c-29 -117 -33 -145 31 -145l-2 -9h-233l-2 9c64 0 59 28 31 145c0 0 -74 304 -96 392c-29 117 -38 145 -102 145l-2 9h219l2 -9c-64 0 -60 -28 -31 -145l46 -187c66 2 73 41 75 317h11
c-1 -284 5 -317 77 -318l45 188c29 117 33 145 -31 145zM281 154c9 -40 17 -69 25 -90c-1 245 -9 281 -73 283zM344 154l47 193c-71 0 -74 -30 -74 -288c9 22 17 53 27 95z" />
    <glyph glyph-name="W" unicode="W" horiz-adv-x="937" 
d="M782 700h159l-2 -9c-64 0 -73 -28 -102 -145c-21 -88 -95 -392 -95 -392c-29 -117 -33 -145 31 -145l-2 -9h-234l-2 9c64 0 60 28 31 145c0 0 -20 91 -43 193h-109l-44 -193c-29 -117 -33 -145 31 -145l-2 -9h-233l-2 9c64 0 59 28 31 145c0 0 -75 304 -96 392
c-29 117 -38 145 -102 145l-2 9h219l2 -9c-64 0 -60 -28 -31 -145l46 -187c66 2 73 41 75 317h11c-1 -284 5 -317 77 -318l83 342h23s12 -39 152 -546c11 -37 18 -65 26 -86c-1 249 -10 279 -79 279l-2 11c72 0 79 34 81 318h11c-1 -284 4 -317 76 -318l46 188
c29 117 33 145 -31 145zM281 154c9 -40 17 -69 25 -90c-1 245 -9 281 -73 283zM344 154l47 193c-71 0 -74 -30 -74 -288c9 22 17 53 27 95zM416 358h105c-20 89 -41 183 -53 231c0 -2 -27 -119 -52 -231zM716 154l47 193c-71 0 -74 -30 -74 -288c9 22 16 53 27 95z" />
    <glyph glyph-name="X" unicode="X" horiz-adv-x="541" 
d="M5 9c64 0 79 28 133 145l89 196l-89 196c-54 117 -69 145 -133 145l-4 9h538l-3 -9c-65 0 -80 -28 -133 -145l-90 -196l90 -196c53 -117 69 -145 133 -145l4 -9h-539zM326 9c60 0 46 24 2 121h-8c-72 0 -74 -42 -74 -121h80zM323 141c-2 4 -77 168 -77 168
c1 -69 6 -168 74 -168h3zM224 546l76 -167l77 167c49 109 63 145 6 145c-70 0 -67 -38 -67 -195h-11c0 169 0 195 -74 195h-14c-64 0 -47 -28 7 -145zM197 226c-19 -41 -38 -83 -39 -85c70 3 76 100 77 167c0 0 -19 -40 -38 -82zM235 9c0 77 -2 120 -82 121
c-44 -97 -48 -121 11 -121h71z" />
    <glyph glyph-name="Y" unicode="Y" horiz-adv-x="574" 
d="M-8 700h590l-5 -9c-64 0 -81 -28 -143 -145l-104 -194v-198c0 -117 3 -145 67 -145v-9h-219v9c64 0 67 28 67 145v195l-105 197c-62 117 -79 145 -143 145zM217 563l94 -177c0 129 -2 177 -79 177h-15zM225 574c82 0 86 41 86 117h-101c-58 0 -48 -23 1 -117h14zM322 380
l94 183h-20c-73 0 -74 -49 -74 -183zM422 574c49 94 67 117 9 117h-109c0 -76 3 -117 74 -117h26z" />
    <glyph glyph-name="Z" unicode="Z" horiz-adv-x="484" 
d="M359 546l-53 -149v-70c0 -68 1 -183 74 -183h21c0 -138 74 -133 74 -133v-11h-462l3 9c64 0 77 28 118 145l50 139c0 366 -6 396 -67 398h-27l1 -195h-11c0 200 -74 193 -74 193v11h474l-3 -9c-64 0 -76 -28 -118 -145zM230 9h65c0 79 -1 123 -82 124
c-34 -97 -38 -123 17 -124zM295 327v37l-75 -210c-1 -3 -2 -6 -3 -10c77 2 78 116 78 183zM273 546c39 110 50 145 -4 145c-63 0 -73 -41 -74 -366zM380 133c-73 0 -74 -43 -74 -124h85v124h-11z" />
    <glyph glyph-name="bracketleft" unicode="[" horiz-adv-x="196" 
d="M146 692c-30 0 -27 -28 -27 -145v-393c0 -117 -1 -145 27 -145v-9h-91v700h91v-8z" />
    <glyph glyph-name="backslash" unicode="\" horiz-adv-x="351" 
d="M282 168l53 -165h-58l-54 167c-19 60 -24 117 -43 176c-19 60 -50 114 -71 181l-54 168h58l53 -167c20 -60 27 -122 46 -183c20 -60 50 -117 70 -177z" />
    <glyph glyph-name="bracketright" unicode="]" horiz-adv-x="196" 
d="M49 700h91v-700h-91v9c28 0 27 28 27 145v393c0 117 4 145 -27 145v8z" />
    <glyph glyph-name="asciicircum" unicode="^" horiz-adv-x="352" 
d="M176 700l145 -193h-62l-29 49c-14 23 -22 49 -22 69c0 18 -27 45 -32 50c-5 -5 -32 -32 -32 -50c0 -20 -8 -46 -22 -69l-29 -49h-62z" />
    <glyph glyph-name="underscore" unicode="_" horiz-adv-x="444" 
d="M308 -22h81v-57h-80c-29 0 -56 13 -85 13c-30 0 -59 -13 -89 -13h-80v57h81c32 0 58 -13 87 -12c29 0 56 12 85 12z" />
    <glyph glyph-name="grave" unicode="`" horiz-adv-x="121" 
d="M-20 869l114 -92l-6 -9c-49 0 -49 41 -141 61z" />
    <glyph glyph-name="a" unicode="a" horiz-adv-x="567" 
d="M568 9l3 -9h-219l-2 9c64 0 59 28 31 145l-10 41h-30c-72 0 -80 -27 -81 -171h-12c1 147 -4 171 -78 171h-34l-10 -41c-28 -117 -33 -145 31 -145l-2 -9h-159l2 9c64 0 73 28 102 145c21 88 96 392 96 392c28 117 33 145 -31 145l2 9h233l2 -9c-64 0 -60 -28 -31 -145
c0 0 74 -304 96 -392c28 -117 37 -145 101 -145zM174 206c72 0 74 26 74 435c-8 -22 -16 -53 -26 -95l-83 -340h35zM338 206h30l-83 340c-10 40 -17 69 -25 90c0 -403 8 -430 78 -430z" />
    <glyph glyph-name="b" unicode="b" horiz-adv-x="526" 
d="M294 401c98 -20 212 -87 212 -260c0 -109 -106 -134 -194 -140c-12 0 -295 -1 -295 -1v9c64 0 67 28 67 145v392c0 117 -3 145 -67 145v9h199c73 0 204 -36 204 -192c0 -76 -64 -102 -126 -107zM169 546v-137c31 2 43 20 43 134c0 49 -1 11 -1 116h11v-115
c1 -104 0 -135 45 -135c54 0 94 43 94 97c0 75 -43 185 -136 185c-54 0 -56 -35 -56 -145zM298 10c88 0 118 74 118 135c0 93 -47 249 -156 249c-29 0 -38 -40 -38 -183c0 -53 1 -48 0 -163h-11c0 72 1 91 1 163c0 154 -13 185 -43 185v-242c0 -102 2 -136 45 -144h84z" />
    <glyph glyph-name="c" unicode="c" 
d="M384 344c-73 0 -74 -14 -74 -285h-11c-2 271 -2 285 -74 285v11c72 0 74 14 74 286h11c0 -272 1 -286 74 -286v-11zM439 638h72v-11s-74 6 -74 -193h-11l1 103c0 89 -60 152 -131 152c-143 0 -176 -148 -176 -263c0 -270 99 -417 234 -417h19l-1 194h11
c0 -199 74 -193 74 -193v-10h-102c-95 0 -325 39 -325 417c0 205 129 283 262 283c77 0 126 -32 147 -62z" />
    <glyph glyph-name="d" unicode="d" horiz-adv-x="537" 
d="M277 641c-1 -272 0 -286 74 -286v-11c-74 0 -75 -14 -74 -284h-12c-1 270 -2 284 -74 284v11c72 0 74 15 74 286h12zM222 700c77 0 285 -88 284 -464c-1 -225 -152 -236 -243 -236h-246v9c64 0 67 28 67 145v392c0 117 -3 145 -67 145v9h205zM268 9
c122 0 148 113 148 234c0 183 -64 447 -198 447c-45 0 -49 -32 -49 -144v-392c0 -117 2 -145 67 -145h32z" />
    <glyph glyph-name="e" unicode="e" horiz-adv-x="482" 
d="M398 204c0 -200 74 -193 74 -193v-11h-455v9c64 0 67 28 67 145v392c0 117 -3 145 -67 145v9h444v-11s-74 7 -74 -193h-11l1 195h-146c-59 0 -62 -31 -62 -145v-190h14c74 0 75 45 74 317h12c0 -272 1 -317 74 -317v-12c-73 0 -73 -114 -74 -317h-12c1 203 0 317 -74 317
h-14v-190c0 -117 4 -145 66 -145h153l-1 195h11z" />
    <glyph glyph-name="f" unicode="f" horiz-adv-x="462" 
d="M17 700h444v-11s-74 7 -74 -193h-11l1 195h-146c-59 -1 -62 -31 -62 -145v-190h14c74 0 75 45 74 317h12c0 -272 1 -317 74 -317v-12c-73 0 -73 -34 -74 -193h-12c1 159 0 193 -74 193h-14v-190c0 -117 3 -145 67 -145v-9h-219v9c64 0 67 28 67 145v392
c0 117 -3 145 -67 145v9z" />
    <glyph glyph-name="g" unicode="g" 
d="M439 638h72v-11s-74 6 -74 -193h-11l1 103c0 78 -60 152 -131 152c-143 0 -176 -148 -176 -263c0 -270 99 -417 234 -417h19l-2 335h-24c-74 0 -72 -14 -72 -285h-11c-2 271 -2 285 -74 285v11c72 0 74 14 74 286h11c0 -272 -2 -286 72 -286h35l1 -152
c0 -199 74 -193 74 -193v-10h-102c-95 0 -325 39 -325 417c0 205 129 283 262 283c77 0 126 -32 147 -62z" />
    <glyph glyph-name="h" unicode="h" horiz-adv-x="561" 
d="M544 691c-64 0 -67 -28 -67 -145v-392c0 -117 3 -145 67 -145v-9h-219v9c64 0 66 28 66 145v190h-32c-73 0 -74 -14 -74 -284h-11c-2 270 -2 284 -74 284h-31v-190c0 -117 3 -145 67 -145v-9h-219v9c64 0 67 28 67 145v392c0 117 -3 145 -67 145v9h219v-9
c-64 0 -67 -28 -67 -145v-191h31c72 0 74 15 74 286h11c0 -272 1 -286 74 -286h32v191c0 117 -2 145 -66 145v9h219v-9z" />
    <glyph glyph-name="i" unicode="i" horiz-adv-x="253" 
d="M236 474c-64 0 -67 -28 -67 -145v-175c0 -117 3 -145 67 -145v-9h-219v9c64 0 67 28 67 145v175c0 117 -3 145 -67 145v9h219v-9zM234 507v-11h-217v11c74 0 105 39 104 193h12c1 -153 29 -193 101 -193z" />
    <glyph glyph-name="j" unicode="j" horiz-adv-x="480" 
d="M247 700h219v-9c-64 0 -66 -28 -66 -145v-341c0 -169 -74 -205 -197 -205c-101 0 -143 14 -171 62h-28v11s74 -6 74 193h44c73 0 74 15 74 286h12c-1 -272 0 -286 74 -286h32v280c0 117 -3 145 -67 145v9zM314 197v58h-32c-74 0 -74 -72 -74 -208h-12
c0 136 -1 208 -74 208h-33v-93c1 -90 10 -151 113 -151c108 0 112 55 112 186z" />
    <glyph glyph-name="k" unicode="k" horiz-adv-x="502" 
d="M493 9l4 -9h-235v9c71 -1 82 58 67 137c-74 0 -74 -65 -74 -146h-11c0 81 -1 146 -75 146c1 -110 4 -137 67 -137v-9h-219v9c64 0 66 28 66 145v392c0 117 -2 145 -66 145v9h219v-9c-64 0 -67 -28 -67 -145v-191c41 240 159 345 248 345h54v-11s-74 7 -74 -193v-146h-11
l1 327c-66 -12 -136 -102 -169 -191l145 -332c51 -117 66 -145 130 -145zM255 293c0 -67 0 -135 72 -136c-21 99 -79 226 -115 310c-30 -91 -40 -191 -43 -265v-45c74 0 75 69 75 136h11z" />
    <glyph glyph-name="l" unicode="l" horiz-adv-x="470" 
d="M345 355c0 -293 127 -344 127 -344v-11h-455v9c64 0 66 28 66 145v392c0 117 -2 145 -66 145v9h219v-9c-64 0 -67 -28 -67 -145v-190h14c74 0 75 45 74 317h12c1 -268 0 -318 76 -318zM235 9h101c0 114 -2 170 -2 335c-64 -9 -64 -122 -65 -317h-12c1 203 0 317 -74 317
h-14v-190c0 -117 3 -145 66 -145z" />
    <glyph glyph-name="m" unicode="m" horiz-adv-x="731" 
d="M714 691c-64 0 -67 -28 -67 -145v-392c0 -117 3 -145 67 -145v-9h-219v9c64 0 66 28 66 145v392c0 50 0 83 -5 106c-13 -23 -25 -56 -42 -106l-70 -202c-68 0 -71 -23 -75 -284h-11c-2 262 -2 283 -67 284l-67 1l-69 201c-16 47 -28 80 -40 102c-5 -22 -5 -55 -5 -102
v-392c0 -117 2 -145 66 -145v-9h-159v9c64 0 67 28 67 145v392c0 117 -3 145 -67 145v9h238l3 -9c-65 0 -57 -28 -17 -145l65 -190c50 6 52 45 52 285h11c0 -243 0 -280 53 -285l65 190c41 117 48 145 -16 145l3 9h240v-9z" />
    <glyph glyph-name="n" unicode="n" horiz-adv-x="535" 
d="M517 691c-64 0 -66 -28 -66 -145v-392c0 -117 2 -145 66 -145v-9h-159v3c-2 268 -2 340 -71 341l-63 1l-69 201c-16 47 -28 80 -40 102c-5 -22 -5 -55 -5 -102v-392c0 -117 2 -145 66 -145v-9h-159v9c64 0 67 28 67 145v392c0 117 -3 145 -67 145v9h237l3 -9
c-64 0 -56 -28 -16 -145l64 -188c51 15 53 95 53 337v5h159v-9zM424 154v188c-54 -12 -55 -92 -55 -333c53 4 55 35 55 145zM424 357v189c0 110 -2 141 -55 145c0 -243 1 -321 55 -334z" />
    <glyph glyph-name="o" unicode="o" horiz-adv-x="544" 
d="M272 700c129 0 233 -26 233 -350s-104 -350 -233 -350s-234 24 -234 350s105 350 234 350zM272 10c81 0 146 25 147 334h-69c-74 0 -75 -14 -74 -284h-12c-1 270 -1 284 -74 284c0 1 -41 1 -66 0c1 -311 67 -334 148 -334zM350 355h69c-1 310 -66 335 -147 335
s-147 -24 -148 -335h66c73 0 74 15 74 286h12c-1 -272 0 -286 74 -286z" />
    <glyph glyph-name="p" unicode="p" horiz-adv-x="523" 
d="M217 700c94 0 289 -49 289 -266c0 -109 -57 -140 -214 -140c-53 0 -56 -32 -56 -262h-11c-2 231 -2 257 -56 260v-138c0 -117 3 -145 67 -145v-9h-219v9c64 0 66 28 66 145v392c0 117 -2 145 -66 145v9h200zM288 304c130 0 128 72 128 134c0 101 -58 244 -183 253
c-61 -1 -64 -30 -64 -145v-242c54 4 56 39 56 285h11c0 -242 1 -285 52 -285z" />
    <glyph glyph-name="q" unicode="q" horiz-adv-x="544" 
d="M419 37c51 -29 72 -68 138 -68v-11h-217v11c48 0 70 27 54 52c-36 -18 -78 -21 -122 -21c-129 0 -234 24 -234 350s105 350 234 350s233 -26 233 -350c0 -183 -33 -271 -86 -313zM272 10c81 0 146 25 147 334h-69c-74 0 -75 -14 -74 -284h-12c-1 270 -1 284 -74 284
c0 1 -41 1 -66 0c1 -311 67 -334 148 -334zM350 355h69c-1 310 -66 335 -147 335s-147 -24 -148 -335h66c73 0 74 15 74 286h12c-1 -272 0 -286 74 -286z" />
    <glyph glyph-name="r" unicode="r" horiz-adv-x="545" 
d="M526 9l4 -9h-262l-4 9c188 0 71 282 17 282c-41 0 -44 -49 -45 -259h-11c-2 231 -2 257 -56 260v-138c0 -117 3 -145 67 -145v-9h-219v9c64 0 67 28 67 145v392c0 117 -3 145 -67 145v9h200c94 0 289 -49 289 -266c0 -105 -99 -133 -186 -139l64 -141
c52 -117 78 -145 142 -145zM289 304c105 0 127 72 127 134c0 101 -58 244 -183 253c-61 -1 -64 -30 -64 -145v-242c54 4 56 43 56 348h11c-1 -299 0 -348 53 -348z" />
    <glyph glyph-name="s" unicode="s" horiz-adv-x="522" 
d="M137 522c0 -235 357 -294 357 -294v-55c0 -126 -79 -173 -232 -173c-107 0 -170 33 -193 64h-49v10s74 -6 74 193h11v-103c1 -90 59 -153 156 -153c128 0 143 41 143 169v54c-82 21 -357 116 -357 294c0 127 95 172 227 172c77 0 142 -32 163 -62h57v-11s-74 7 -74 -193
h-47c-72 0 -74 -38 -74 -116h-12c0 74 -5 116 -78 116h-38v11h37c74 0 79 47 79 213h12c0 -168 1 -213 74 -213h36v92c-1 90 -60 152 -131 152c-104 0 -141 -72 -141 -167z" />
    <glyph glyph-name="t" unicode="t" horiz-adv-x="490" 
d="M0 700h489v-11s-74 7 -74 -193h-10v84h-78c-67 0 -75 -32 -75 -117c0 -102 37 -141 37 -309c0 -117 2 -145 66 -145v-9h-219v9c64 0 67 28 67 145c0 173 38 207 38 309c0 85 -9 117 -74 117h-82v-84h-11c0 200 -74 193 -74 193v11zM167 591c70 0 71 92 70 100h-153
l1 -100c20 -1 82 -1 82 0zM405 591v100h-150c0 -8 1 -100 72 -100h78z" />
    <glyph glyph-name="u" unicode="u" horiz-adv-x="537" 
d="M13 700h516v-9c-86 0 -87 33 -87 -486c0 -152 -44 -205 -136 -205c-162 0 -227 29 -227 191v355c0 117 -2 145 -66 145v9zM310 19c94 0 119 70 119 185c0 459 -6 487 -59 487c-45 0 -64 -28 -66 -313c0 -68 0 -136 74 -136h31l-1 -11h-30c-74 0 -74 -65 -74 -146h-12
c0 81 0 146 -74 146h-30l-1 11h31c66 0 73 70 74 136c0 284 -8 313 -66 313s-61 -32 -61 -145v-355c0 -163 43 -172 145 -172z" />
    <glyph glyph-name="v" unicode="v" horiz-adv-x="565" 
d="M410 700h160l-3 -9c-64 0 -73 -28 -101 -145c-22 -88 -96 -392 -96 -392c-29 -117 -33 -145 31 -145l-2 -9h-233l-2 9c64 0 59 28 31 145c0 0 -74 304 -96 392c-29 117 -38 145 -102 145l-2 9h219l2 -9c-64 0 -60 -28 -31 -145l46 -187c66 2 73 41 75 317h11
c-1 -284 5 -317 77 -318l45 188c29 117 33 145 -31 145zM281 154c9 -40 17 -69 25 -90c-1 245 -9 281 -73 283zM344 154l47 193c-71 0 -74 -30 -74 -288c9 22 17 53 27 95z" />
    <glyph glyph-name="w" unicode="w" horiz-adv-x="937" 
d="M782 700h159l-2 -9c-64 0 -73 -28 -102 -145c-21 -88 -95 -392 -95 -392c-29 -117 -33 -145 31 -145l-2 -9h-234l-2 9c64 0 60 28 31 145c0 0 -20 91 -43 193h-109l-44 -193c-29 -117 -33 -145 31 -145l-2 -9h-233l-2 9c64 0 59 28 31 145c0 0 -75 304 -96 392
c-29 117 -38 145 -102 145l-2 9h219l2 -9c-64 0 -60 -28 -31 -145l46 -187c66 2 73 41 75 317h11c-1 -284 5 -317 77 -318l83 342h23s12 -39 152 -546c11 -37 18 -65 26 -86c-1 249 -10 279 -79 279l-2 11c72 0 79 34 81 318h11c-1 -284 4 -317 76 -318l46 188
c29 117 33 145 -31 145zM281 154c9 -40 17 -69 25 -90c-1 245 -9 281 -73 283zM344 154l47 193c-71 0 -74 -30 -74 -288c9 22 17 53 27 95zM416 358h105c-20 89 -41 183 -53 231c0 -2 -27 -119 -52 -231zM716 154l47 193c-71 0 -74 -30 -74 -288c9 22 16 53 27 95z" />
    <glyph glyph-name="x" unicode="x" horiz-adv-x="541" 
d="M5 9c64 0 79 28 133 145l89 196l-89 196c-54 117 -69 145 -133 145l-4 9h538l-3 -9c-65 0 -80 -28 -133 -145l-90 -196l90 -196c53 -117 69 -145 133 -145l4 -9h-539zM326 9c60 0 46 24 2 121h-8c-72 0 -74 -42 -74 -121h80zM323 141c-2 4 -77 168 -77 168
c1 -69 6 -168 74 -168h3zM224 546l76 -167l77 167c49 109 63 145 6 145c-70 0 -67 -38 -67 -195h-11c0 169 0 195 -74 195h-14c-64 0 -47 -28 7 -145zM197 226c-19 -41 -38 -83 -39 -85c70 3 76 100 77 167c0 0 -19 -40 -38 -82zM235 9c0 77 -2 120 -82 121
c-44 -97 -48 -121 11 -121h71z" />
    <glyph glyph-name="y" unicode="y" horiz-adv-x="574" 
d="M-8 700h590l-5 -9c-64 0 -81 -28 -143 -145l-104 -194v-198c0 -117 3 -145 67 -145v-9h-219v9c64 0 67 28 67 145v195l-105 197c-62 117 -79 145 -143 145zM217 563l94 -177c0 129 -2 177 -79 177h-15zM225 574c82 0 86 41 86 117h-101c-58 0 -48 -23 1 -117h14zM322 380
l94 183h-20c-73 0 -74 -49 -74 -183zM422 574c49 94 67 117 9 117h-109c0 -76 3 -117 74 -117h26z" />
    <glyph glyph-name="z" unicode="z" horiz-adv-x="484" 
d="M359 546l-53 -149v-70c0 -68 1 -183 74 -183h21c0 -138 74 -133 74 -133v-11h-462l3 9c64 0 77 28 118 145l50 139c0 366 -6 396 -67 398h-27l1 -195h-11c0 200 -74 193 -74 193v11h474l-3 -9c-64 0 -76 -28 -118 -145zM230 9h65c0 79 -1 123 -82 124
c-34 -97 -38 -123 17 -124zM295 327v37l-75 -210c-1 -3 -2 -6 -3 -10c77 2 78 116 78 183zM273 546c39 110 50 145 -4 145c-63 0 -73 -41 -74 -366zM380 133c-73 0 -74 -43 -74 -124h85v124h-11z" />
    <glyph glyph-name="braceleft" unicode="{" horiz-adv-x="222" 
d="M173 692c-31 0 -28 -28 -28 -145v-158l-54 -39l54 -39v-157c0 -117 0 -145 28 -145v-9h-92v324l-36 26l36 26v324h92v-8z" />
    <glyph glyph-name="bar" unicode="|" horiz-adv-x="167" 
d="M112 695v-168c0 -67 -13 -121 -13 -181c0 -59 13 -116 13 -176v-167h-58v165c0 60 13 117 13 177c0 61 -13 123 -13 183l1 167h57z" />
    <glyph glyph-name="braceright" unicode="}" horiz-adv-x="222" 
d="M140 376l37 -26l-37 -26v-324h-91v9c28 0 27 28 27 145v157l55 39l-55 39v158c0 117 4 145 -27 145v8h91v-324z" />
    <glyph glyph-name="asciitilde" unicode="~" horiz-adv-x="411" 
d="M376 394c5 -30 5 -78 -67 -78c-83 0 -90 35 -166 35c-44 0 -97 -13 -110 -44c8 46 20 78 89 78c32 0 90 -15 118 -15c25 0 123 -2 136 24z" />
    <glyph glyph-name="exclamdown" unicode="&#xa1;" horiz-adv-x="295" 
d="M190 154c0 -117 3 -145 67 -145v-9h-219v9c64 0 67 28 67 145c0 88 43 392 -21 392v9h127v-9c-64 0 -21 -304 -21 -392zM146 575c-35 0 -63 28 -63 63c0 34 28 62 63 62c34 0 62 -28 62 -62c0 -35 -28 -63 -62 -63z" />
    <glyph glyph-name="cent" unicode="&#xa2;" horiz-adv-x="452" 
d="M354 548h61v-7s-62 4 -62 -133h-9v71c0 61 -50 105 -110 105c-108 0 -114 -106 -114 -189c0 -186 51 -280 163 -280h16v134h9c0 -138 62 -133 62 -133v-8h-86c-8 0 -16 1 -26 1c1 -81 9 -102 67 -102v-8h-164v8c59 0 66 23 67 106c-82 13 -183 68 -183 276
c0 140 74 200 183 202c-1 79 -9 101 -67 101v7h164v-7c-58 0 -66 -21 -67 -102c49 -6 82 -24 96 -42zM309 346c-62 0 -62 -10 -62 -197h-9c-2 187 -2 197 -62 197v7c60 0 62 10 62 197h9c0 -187 0 -197 62 -197v-7z" />
    <glyph glyph-name="sterling" unicode="&#xa3;" horiz-adv-x="550" 
d="M452 671h60v-6s-62 3 -62 -99h-9l1 53c0 45 -50 78 -109 78c-95 0 -115 -56 -115 -140c0 -139 50 -208 163 -208h16l-1 99h9c0 -102 62 -99 62 -99v-5h-86c-20 0 -48 1 -77 6l-30 -87c14 1 27 3 42 3h81v-23h-72c6 -52 23 -98 70 -98h21c0 -139 74 -134 74 -134v-11h-462
l3 9c64 0 77 28 118 145l32 91c-13 -1 -25 -2 -38 -2h-80v23h81c15 0 30 -2 44 -3l39 111c-55 27 -101 80 -101 178c0 105 92 150 203 150c64 0 105 -16 123 -31zM395 134c-73 0 -74 -44 -74 -125h85l-1 125h-10zM253 206c-12 -34 -21 -60 -21 -61c49 0 67 47 74 98l-39 3z
M310 9c0 80 -1 123 -82 125c-34 -97 -38 -124 17 -125h65zM406 520c-61 0 -62 -7 -62 -146h-9c-1 139 -2 146 -62 146v6c60 0 62 7 62 146h9c0 -139 1 -146 62 -146v-6z" />
    <glyph glyph-name="currency" unicode="&#xa4;" horiz-adv-x="557" 
d="M415 163c20 -14 34 -22 48 -22c15 0 28 9 44 28l6 -5l-108 -123l-6 5c33 38 30 57 -10 96c-31 -18 -70 -21 -112 -21s-80 3 -111 20c-39 -38 -42 -58 -9 -95l-6 -5l-108 123l6 5c16 -19 30 -28 44 -28s28 7 47 21c-30 32 -47 87 -47 185c0 99 18 154 48 186
c-19 14 -34 22 -47 22c-15 0 -29 -9 -45 -28l-6 5l108 123l6 -5c-33 -38 -30 -57 11 -97c30 17 68 19 109 19c42 0 80 -3 110 -20c42 41 46 60 12 98l6 5l108 -123l-6 -5c-16 19 -30 28 -44 28s-29 -8 -49 -23c30 -32 48 -87 48 -185c0 -97 -18 -152 -47 -184zM277 127
c64 0 116 17 117 216h-55c-58 0 -59 -9 -58 -184h-9c-2 175 -2 184 -59 184h-52c0 -91 11 -144 29 -175l2 -2v-1c21 -33 51 -38 85 -38zM339 350h55c-1 199 -53 215 -117 215s-116 -15 -116 -215c21 0 52 -1 52 0c57 0 59 9 59 184h9c-1 -175 0 -184 58 -184z" />
    <glyph glyph-name="yen" unicode="&#xa5;" horiz-adv-x="700" 
d="M55 700h590l-5 -9c-64 0 -81 -28 -143 -145l-101 -189c14 1 28 2 42 2h81v-23h-80c-15 0 -30 2 -46 3v-35c15 1 30 3 45 3h81v-23h-80c-15 0 -30 1 -46 2v-132c0 -117 3 -145 67 -145v-9h-219v9c64 0 67 28 67 145v132c-15 -1 -29 -2 -43 -2h-80v23h81c15 0 28 -2 42 -3
v35c-15 -1 -29 -3 -43 -3h-80v23h81c13 0 25 -1 37 -2l-100 189c-62 117 -79 145 -143 145zM280 563l94 -177c0 129 -2 177 -79 177h-15zM288 574c82 0 86 41 86 117h-101c-58 0 -48 -23 1 -117h14zM385 380l94 183h-20c-73 0 -74 -49 -74 -183zM485 574c49 94 67 117 9 117
h-109c0 -76 3 -117 74 -117h26z" />
    <glyph glyph-name="brokenbar" unicode="&#xa6;" horiz-adv-x="303" 
d="M42 321v8h219v-8c-64 0 -67 -28 -67 -145c0 -118 3 -146 67 -146v-8h-219v8c64 0 67 28 67 146c0 117 -3 145 -67 145zM261 665c-64 0 -67 -28 -67 -145c0 -118 3 -146 67 -146v-8h-219v8c64 0 67 28 67 146c0 117 -3 145 -67 145v8h219v-8z" />
    <glyph glyph-name="section" unicode="&#xa7;" horiz-adv-x="568" 
d="M519 329c0 -82 -65 -116 -192 -122c93 -35 191 -46 191 -46v-39c0 -89 -79 -122 -232 -122c-107 0 -170 23 -193 45h-49v7s74 -4 74 137h11v-73c1 -64 59 -109 156 -109c128 0 143 30 143 120v38c-82 15 -357 82 -357 208c0 49 28 81 76 99c-44 30 -75 65 -75 107
c0 90 95 122 227 122c77 0 142 -23 163 -44h57v-8s-74 5 -74 -136h-47c-72 0 -74 -27 -74 -82h-12c0 52 -5 82 -78 82h-38v8h37c74 0 79 33 79 150h12c0 -119 1 -150 74 -150h36v65c-1 63 -61 107 -132 107c-79 0 -140 -31 -140 -118c0 -166 357 -208 357 -208v-38zM429 333
v38c-46 9 -155 34 -240 77c-19 -19 -28 -46 -28 -80c0 -73 70 -122 148 -154c107 4 120 35 120 119z" />
    <glyph glyph-name="dieresis" unicode="&#xa8;" horiz-adv-x="275" 
d="M69 853c24 0 43 -20 43 -44s-19 -43 -43 -43s-44 19 -44 43s20 44 44 44zM206 853c24 0 44 -20 44 -44s-20 -43 -44 -43s-43 19 -43 43s19 44 43 44z" />
    <glyph glyph-name="copyright" unicode="&#xa9;" horiz-adv-x="408" 
d="M241 347c-32 0 -32 -6 -32 -121h-4c-1 115 -1 121 -32 121v5c31 0 32 6 32 121h4c0 -116 0 -121 32 -121v-5zM201 498c33 0 54 -14 63 -27h31v-4s-32 3 -32 -82h-4v44c0 37 -26 64 -55 64c-48 -1 -75 -39 -75 -111c0 -115 42 -177 99 -177h8l-1 82h5c0 -84 20 -82 20 -82
v-4h-32c-40 0 -138 16 -138 177c0 87 55 120 111 120zM204 543c88 0 160 -86 160 -192s-72 -192 -160 -192c-89 0 -161 86 -161 192s72 192 161 192zM204 179c79 0 143 77 143 172s-64 172 -143 172c-80 0 -144 -77 -144 -172s64 -172 144 -172z" />
    <glyph glyph-name="ordfeminine" unicode="&#xaa;" horiz-adv-x="289" 
d="M253 434l1 -3h-84v3c24 0 22 11 11 56l-17 72c-26 -1 -28 -16 -29 -122h-4c0 109 -2 121 -30 122l-17 -72c-11 -45 -13 -56 12 -56l-1 -3h-61l1 3c24 0 28 11 39 56c8 33 37 150 37 150c10 45 12 56 -12 56v3h90l1 -3c-25 0 -23 -11 -12 -56c0 0 28 -117 36 -150
c11 -45 15 -56 39 -56zM102 566c28 0 29 12 29 110c-4 -8 -7 -20 -10 -36zM135 676c0 -94 3 -109 28 -110l-18 74c-4 15 -7 28 -10 36z" />
    <glyph glyph-name="guillemotleft" unicode="&#xab;" horiz-adv-x="372" 
d="M108 317c21 0 46 -8 69 -21l49 -29v-63l-193 145l193 145v-62l-49 -29c-23 -13 -48 -22 -69 -22c-18 0 -45 -27 -50 -32c5 -5 32 -32 50 -32zM212 381c-18 0 -45 -27 -50 -32c5 -5 32 -32 50 -32c20 0 46 -8 68 -21l49 -29v-63l-193 145l193 145v-62l-49 -29
c-22 -13 -48 -22 -68 -22z" />
    <glyph glyph-name="logicalnot" unicode="&#xac;" horiz-adv-x="406" 
d="M370 265h-47v58h-34c-29 0 -56 12 -85 12c-14 0 -29 -2 -43 -6h-3c-14 -3 -28 -6 -43 -6h-80v57h81c32 0 59 -13 87 -13c29 1 56 13 85 13h81z" />
    <glyph glyph-name="registered" unicode="&#xae;" horiz-adv-x="378" 
d="M288 384c0 -39 -37 -49 -68 -52l51 -109h-71l-1 3c69 0 26 105 6 105c-15 0 -16 -18 -17 -96h-4c-1 85 -1 95 -21 96v-51c0 -43 1 -54 25 -54v-3h-73v3c23 0 17 11 17 54v146c0 43 6 53 -17 53v4h66c35 0 107 -19 107 -99zM208 336c39 0 47 27 47 49c0 38 -22 91 -68 94
c-23 0 -24 -11 -24 -53v-90c20 1 21 16 21 129h4c0 -111 0 -129 20 -129zM189 543c79 0 144 -86 144 -192s-65 -192 -144 -192c-80 0 -145 86 -145 192s65 192 145 192zM189 179c71 0 129 77 129 172s-58 172 -129 172c-72 0 -129 -77 -129 -172s57 -172 129 -172z" />
    <glyph glyph-name="macron" unicode="&#xaf;" horiz-adv-x="396" 
d="M284 827h81v-57h-80c-29 0 -56 12 -85 12c-30 0 -59 -12 -89 -12h-80v57h81c32 0 59 -13 87 -13c29 1 56 13 85 13z" />
    <glyph glyph-name="degree" unicode="&#xb0;" horiz-adv-x="201" 
d="M100 678c36 0 65 -30 65 -67s-29 -67 -65 -67c-35 0 -64 31 -64 67c0 37 29 67 64 67zM100 570c22 0 40 19 40 41c0 23 -18 42 -40 42c-21 0 -39 -19 -39 -42c0 -22 18 -41 39 -41z" />
    <glyph glyph-name="plusminus" unicode="&#xb1;" horiz-adv-x="419" 
d="M192 362c-23 -3 -47 -11 -70 -11h-80v58h81c25 0 46 -8 68 -12c-3 23 -11 47 -11 69v81h58v-81c0 -25 -8 -47 -12 -69c23 3 46 12 69 12h81v-58h-80c-24 0 -46 9 -70 12c3 -23 12 -46 12 -69v-81h-58v80c0 23 9 46 12 69zM295 211h81v-57h-80c-29 0 -56 12 -85 12
s-59 -12 -88 -12h-81v57h81c32 0 59 -13 87 -13c29 1 57 13 85 13z" />
    <glyph glyph-name="twosuperior" unicode="&#xb2;" horiz-adv-x="266" 
d="M189 494c0 -83 31 -80 31 -80v-5h-175l1 4c12 0 15 12 32 60c4 9 17 47 17 47c51 16 75 38 88 78h-21c-30 0 -31 -16 -31 -49h-5c0 31 -2 49 -33 49h-23c0 83 -31 72 -31 72v5h30c9 12 29 25 61 25c56 0 95 -18 95 -71c0 -48 -48 -80 -91 -99l-20 -57
c-17 -47 -20 -59 4 -60h67v81h4zM93 602c30 0 33 27 33 94c-28 -2 -51 -27 -52 -63v-31h19zM162 602h22c2 8 3 16 3 24c0 45 -19 69 -56 70c0 -68 1 -94 31 -94z" />
    <glyph glyph-name="threesuperior" unicode="&#xb3;" horiz-adv-x="268" 
d="M228 697c-11 0 -15 -12 -32 -61l-22 -63c30 -21 51 -56 51 -92c0 -53 -39 -71 -95 -71c-32 0 -52 13 -61 25h-30v5s31 -11 31 72h4v-34h20c30 0 32 28 32 97v17c4 0 13 -2 17 -4l17 48c17 48 21 60 -4 61h-67l1 -81h-5c0 83 -31 80 -31 80v4h175zM128 414
c37 1 56 21 59 60h-25c-30 0 -31 -16 -31 -49h-5c0 31 -2 49 -32 49h-20c2 -35 26 -60 54 -60zM187 478c2 43 -19 96 -56 108v-11c0 -70 1 -97 31 -97h25z" />
    <glyph glyph-name="acute" unicode="&#xb4;" horiz-adv-x="121" 
d="M140 869l33 -40c-92 -20 -92 -61 -141 -61l-6 9z" />
    <glyph glyph-name="paragraph" unicode="&#xb6;" horiz-adv-x="506" 
d="M467 654c-64 0 -67 -28 -67 -145v-321c0 -117 3 -145 67 -145v-9h-133v475c0 90 1 140 -31 140c-33 0 -32 -50 -32 -140v-475h-132v9c64 0 66 28 66 145v137c-92 1 -166 76 -166 169s76 169 169 169h259v-9z" />
    <glyph glyph-name="periodcentered" unicode="&#xb7;" horiz-adv-x="198" 
d="M98 415c35 0 63 -28 63 -63c0 -34 -28 -62 -63 -62c-34 0 -62 28 -62 62c0 35 28 63 62 63z" />
    <glyph glyph-name="cedilla" unicode="&#xb8;" horiz-adv-x="102" 
d="M45 -3c67 -22 100 -59 100 -101c0 -46 -35 -63 -83 -63c-29 0 -47 12 -54 23h-27v4s27 -10 27 64l21 -1c27 0 29 16 29 43h4c0 -28 1 -43 27 -43h19c-12 36 -33 55 -78 69l11 68h31zM12 -108c1 -31 21 -54 46 -55c0 59 -3 82 -29 82h-17v-27zM62 -163c33 1 50 22 50 61
c0 8 -1 15 -3 21h-20c-26 0 -27 -22 -27 -82z" />
    <glyph glyph-name="onesuperior" unicode="&#xb9;" horiz-adv-x="261" 
d="M130 701c48 0 87 -35 87 -146s-39 -146 -87 -146s-87 37 -87 146s39 146 87 146zM128 414c-1 112 -1 138 -31 138v5c30 0 31 26 31 139c-29 -2 -53 -34 -53 -141s24 -139 53 -141zM133 414c29 2 52 36 52 141c0 104 -23 139 -52 141c-1 -113 0 -139 30 -139v-5
c-30 0 -31 -26 -30 -138z" />
    <glyph glyph-name="ordmasculine" unicode="&#xba;" horiz-adv-x="173" 
d="M104 473c0 -49 1 -60 28 -60v-4h-91v4c27 0 28 11 28 60c0 19 15 26 15 48c0 25 -5 31 -30 31v5c24 0 31 6 31 32c0 27 -16 26 -16 39v8c0 25 -1 27 -21 27v2l51 35h5v-72c0 -15 -14 -12 -14 -39c0 -26 6 -32 30 -32v-5c-25 0 -30 -7 -30 -31c0 -22 14 -31 14 -48z" />
    <glyph glyph-name="guillemotright" unicode="&#xbb;" horiz-adv-x="372" 
d="M145 494l193 -145l-193 -145v63l49 29c23 13 49 21 69 21c18 0 45 27 50 32c-5 5 -32 32 -50 32c-20 0 -46 9 -69 22l-49 29v62zM42 494l193 -145l-193 -145v63l49 29c23 13 49 21 69 21c18 0 45 27 50 32c-5 5 -32 32 -50 32c-20 0 -46 9 -69 22l-49 29v62z" />
    <glyph glyph-name="onequarter" unicode="&#xbc;" horiz-adv-x="402" 
d="M128 280v-4h-91v4c27 0 28 11 28 60c0 19 15 26 15 48c0 25 -5 31 -30 31v5c24 0 31 5 31 32s-16 26 -16 39v8c0 25 -1 27 -21 27v2l51 35h5v-72c0 -15 -14 -12 -14 -39c0 -26 6 -32 30 -32v-5c-25 0 -30 -7 -30 -31c0 -22 14 -31 14 -48c0 -49 1 -60 28 -60zM301 500
c-102 -135 -161 -253 -150 -346h-58l150 346h58zM356 335v-202h-91v3c26 0 27 12 27 61v15h-129v3c28 0 158 209 158 209h7v-208c23 2 23 17 23 119h5zM292 216v153c-50 -76 -99 -154 -64 -154c31 1 51 1 64 1zM328 197c0 -46 1 -59 23 -61c-1 63 -4 73 -23 75v-14z" />
    <glyph glyph-name="onehalf" unicode="&#xbd;" horiz-adv-x="458" 
d="M301 500c-102 -135 -161 -253 -150 -346h-58l150 346h58zM380 196c0 -83 30 -80 30 -80v-4h-175l2 3c11 0 14 12 32 61c3 9 16 47 16 47c51 15 75 37 88 77h-21c-30 0 -31 -16 -31 -48h-5c0 31 -2 48 -33 48h-23c0 83 -31 73 -31 73v4h30c9 13 30 26 61 26
c56 0 95 -19 95 -72c0 -47 -47 -79 -90 -98l-21 -57c-16 -48 -20 -60 5 -61h66v81h5zM283 305c31 0 33 26 33 93c-28 -1 -51 -27 -52 -62v-31h19zM352 305h23c1 7 3 15 3 24c0 44 -20 68 -57 69c0 -68 1 -93 31 -93zM128 280v-4h-91v4c27 0 28 11 28 60c0 19 15 26 15 48
c0 25 -5 31 -30 31v5c24 0 31 5 31 32s-16 26 -16 39v8c0 25 -1 27 -21 27v2l51 35h5v-72c0 -15 -14 -12 -14 -39c0 -26 6 -32 30 -32v-5c-25 0 -30 -7 -30 -31c0 -22 14 -31 14 -48c0 -49 1 -60 28 -60z" />
    <glyph glyph-name="threequarters" unicode="&#xbe;" horiz-adv-x="471" 
d="M225 336c0 -52 -39 -71 -95 -71c-32 0 -52 13 -61 26h-30v4s31 -10 31 73h4v-34h20c30 0 32 27 32 96v18c4 0 13 -3 17 -4l17 48c17 47 20 60 -4 60h-67l1 -81h-5c0 83 -31 80 -31 80v5h175l-1 -4c-11 0 -15 -11 -32 -60l-22 -63c30 -21 51 -56 51 -93zM374 500
c-103 -135 -162 -253 -150 -346h-58l150 346h58zM426 335c-1 -113 0 -128 0 -201v-1h-91v3c26 0 27 12 27 61v15h-129v3c28 0 158 209 158 209h7v-208c22 2 23 17 23 119h5zM130 269c35 1 54 22 57 60h-25c-30 0 -31 -16 -31 -48h-5c0 30 -2 48 -32 48h-20
c2 -36 27 -60 56 -60zM362 216v153c-50 -76 -99 -154 -64 -154c31 1 51 1 64 1zM398 197c0 -46 1 -59 23 -61c-1 63 -4 73 -23 75v-14zM162 334h25c2 43 -19 96 -56 107v-11c0 -70 1 -96 31 -96z" />
    <glyph glyph-name="questiondown" unicode="&#xbf;" horiz-adv-x="542" 
d="M412 247c0 -199 74 -174 74 -174v-11h-73c-20 -30 -70 -62 -146 -62c-133 0 -228 45 -228 172c0 115 108 212 221 240l-31 142h89l-31 -143c-101 -42 -115 -69 -147 -164h51c72 0 74 38 74 116h12c0 -74 5 -116 78 -116h57zM129 179c0 -108 47 -165 136 -168
c0 163 -2 225 -74 225h-54c-5 -18 -8 -37 -8 -57zM277 11c67 4 122 64 124 150v75h-45c-73 0 -79 -64 -79 -225zM274 575c-34 0 -62 28 -62 62c0 35 28 63 62 63c35 0 63 -28 63 -63c0 -34 -28 -62 -63 -62z" />
    <glyph glyph-name="Agrave" unicode="&#xc0;" horiz-adv-x="567" 
d="M568 9l3 -9h-219l-2 9c64 0 59 28 31 145l-10 41h-30c-72 0 -80 -27 -81 -171h-12c1 147 -4 171 -78 171h-34l-10 -41c-28 -117 -33 -145 31 -145l-2 -9h-159l2 9c64 0 73 28 102 145c21 88 96 392 96 392c28 117 33 145 -31 145l2 9h233l2 -9c-64 0 -60 -28 -31 -145
c0 0 74 -304 96 -392c28 -117 37 -145 101 -145zM174 206c72 0 74 26 74 435c-8 -22 -16 -53 -26 -95l-83 -340h35zM338 206h30l-83 340c-10 40 -17 69 -25 90c0 -403 8 -430 78 -430zM243 869l114 -92l-6 -9c-49 0 -49 41 -141 61z" />
    <glyph glyph-name="Aacute" unicode="&#xc1;" horiz-adv-x="567" 
d="M568 9l3 -9h-219l-2 9c64 0 59 28 31 145l-10 41h-30c-72 0 -80 -27 -81 -171h-12c1 147 -4 171 -78 171h-34l-10 -41c-28 -117 -33 -145 31 -145l-2 -9h-159l2 9c64 0 73 28 102 145c21 88 96 392 96 392c28 117 33 145 -31 145l2 9h233l2 -9c-64 0 -60 -28 -31 -145
c0 0 74 -304 96 -392c28 -117 37 -145 101 -145zM174 206c72 0 74 26 74 435c-8 -22 -16 -53 -26 -95l-83 -340h35zM338 206h30l-83 340c-10 40 -17 69 -25 90c0 -403 8 -430 78 -430zM324 869l33 -40c-92 -20 -92 -61 -141 -61l-6 9z" />
    <glyph glyph-name="Acircumflex" unicode="&#xc2;" horiz-adv-x="567" 
d="M568 9l3 -9h-219l-2 9c64 0 59 28 31 145l-10 41h-30c-72 0 -80 -27 -81 -171h-12c1 147 -4 171 -78 171h-34l-10 -41c-28 -117 -33 -145 31 -145l-2 -9h-159l2 9c64 0 73 28 102 145c21 88 96 392 96 392c28 117 33 145 -31 145l2 9h233l2 -9c-64 0 -60 -28 -31 -145
c0 0 74 -304 96 -392c28 -117 37 -145 101 -145zM174 206c72 0 74 26 74 435c-8 -22 -16 -53 -26 -95l-83 -340h35zM338 206h30l-83 340c-10 40 -17 69 -25 90c0 -403 8 -430 78 -430zM284 849l98 -83l-39 -29l-59 95l-59 -95l-39 29z" />
    <glyph glyph-name="Atilde" unicode="&#xc3;" horiz-adv-x="567" 
d="M568 9l3 -9h-219l-2 9c64 0 59 28 31 145l-10 41h-30c-72 0 -80 -27 -81 -171h-12c1 147 -4 171 -78 171h-34l-10 -41c-28 -117 -33 -145 31 -145l-2 -9h-159l2 9c64 0 73 28 102 145c21 88 96 392 96 392c28 117 33 145 -31 145l2 9h233l2 -9c-64 0 -60 -28 -31 -145
c0 0 74 -304 96 -392c28 -117 37 -145 101 -145zM386 857c3 -29 3 -77 -40 -77c-50 0 -54 35 -100 35c-27 0 -58 -13 -66 -45c5 46 12 78 54 78c19 0 53 -14 71 -14c15 0 74 -3 81 23zM174 206c72 0 74 26 74 435c-8 -22 -16 -53 -26 -95l-83 -340h35zM338 206h30l-83 340
c-10 40 -17 69 -25 90c0 -403 8 -430 78 -430z" />
    <glyph glyph-name="Adieresis" unicode="&#xc4;" horiz-adv-x="567" 
d="M568 9l3 -9h-219l-2 9c64 0 59 28 31 145l-10 41h-30c-72 0 -80 -27 -81 -171h-12c1 147 -4 171 -78 171h-34l-10 -41c-28 -117 -33 -145 31 -145l-2 -9h-159l2 9c64 0 73 28 102 145c21 88 96 392 96 392c28 117 33 145 -31 145l2 9h233l2 -9c-64 0 -60 -28 -31 -145
c0 0 74 -304 96 -392c28 -117 37 -145 101 -145zM174 206c72 0 74 26 74 435c-8 -22 -16 -53 -26 -95l-83 -340h35zM338 206h30l-83 340c-10 40 -17 69 -25 90c0 -403 8 -430 78 -430zM215 853c24 0 43 -20 43 -44s-19 -43 -43 -43s-44 19 -44 43s20 44 44 44zM352 853
c24 0 44 -20 44 -44s-20 -43 -44 -43s-43 19 -43 43s19 44 43 44z" />
    <glyph glyph-name="Aring" unicode="&#xc5;" horiz-adv-x="567" 
d="M568 9l3 -9h-219l-2 9c64 0 59 28 31 145l-10 41h-30c-72 0 -80 -27 -81 -171h-12c1 147 -4 171 -78 171h-34l-10 -41c-28 -117 -33 -145 31 -145l-2 -9h-159l2 9c64 0 73 28 102 145c21 88 96 392 96 392c28 117 33 145 -31 145l2 9h233l2 -9c-64 0 -60 -28 -31 -145
c0 0 74 -304 96 -392c28 -117 37 -145 101 -145zM174 206c72 0 74 26 74 435c-8 -22 -16 -53 -26 -95l-83 -340h35zM338 206h30l-83 340c-10 40 -17 69 -25 90c0 -403 8 -430 78 -430zM284 848c45 0 81 -28 81 -63s-36 -63 -81 -63s-82 28 -82 63s37 63 82 63zM284 735
c30 0 54 23 54 52c0 28 -24 51 -54 51c-31 0 -55 -23 -55 -51c0 -29 24 -52 55 -52z" />
    <glyph glyph-name="AE" unicode="&#xc6;" horiz-adv-x="651" 
d="M566 204c0 -200 74 -193 74 -193v-11h-455v9c40 0 56 10 62 46c0 120 -10 140 -78 140h-34l-10 -41c-28 -117 -33 -145 31 -145l-2 -9h-159l2 9c64 0 73 28 102 145c22 88 96 392 96 392c28 117 33 145 -31 145l2 9h463v-11s-74 7 -74 -193h-11l1 195h-145
c-60 0 -62 -31 -62 -145v-190h14c73 0 74 45 74 317h11c0 -272 2 -317 74 -317v-12c-72 0 -73 -114 -74 -317h-11c0 203 -1 317 -74 317h-14v-190c0 -117 3 -145 66 -145h152l-1 195h11zM173 206c73 0 75 26 75 435c-9 -22 -17 -53 -27 -95l-83 -340h35z" />
    <glyph glyph-name="Ccedilla" unicode="&#xc7;" 
d="M311 -28c67 -22 100 -59 100 -101c0 -46 -35 -63 -83 -63c-29 0 -47 12 -54 23h-27v4s27 -10 27 64l21 -1c27 0 29 16 29 43h4c0 -28 1 -43 27 -43h19c-12 36 -33 55 -78 69l6 37c-108 16 -272 94 -272 413c0 205 129 283 262 283c77 0 126 -32 147 -62h72v-11
s-74 6 -74 -193h-11l1 103c0 89 -60 152 -131 152c-143 0 -176 -148 -176 -263c0 -235 75 -377 184 -410l3 19h31l-10 -24c8 -1 17 -2 26 -2h19l-1 194h11c0 -199 74 -193 74 -193v-10h-102c-9 0 -20 0 -31 1zM384 344c-73 0 -74 -14 -74 -285h-11c-2 271 -2 285 -74 285v11
c72 0 74 14 74 286h11c0 -272 1 -286 74 -286v-11zM328 -188c33 1 50 22 50 61c0 8 -1 15 -3 21h-20c-26 0 -27 -22 -27 -82zM278 -133c1 -31 21 -54 46 -55c0 59 -3 82 -29 82h-17v-27z" />
    <glyph glyph-name="Egrave" unicode="&#xc8;" horiz-adv-x="482" 
d="M398 204c0 -200 74 -193 74 -193v-11h-455v9c64 0 67 28 67 145v392c0 117 -3 145 -67 145v9h444v-11s-74 7 -74 -193h-11l1 195h-146c-59 0 -62 -31 -62 -145v-190h14c74 0 75 45 74 317h12c0 -272 1 -317 74 -317v-12c-73 0 -73 -114 -74 -317h-12c1 203 0 317 -74 317
h-14v-190c0 -117 4 -145 66 -145h153l-1 195h11zM201 869l114 -92l-6 -9c-49 0 -49 41 -141 61z" />
    <glyph glyph-name="Eacute" unicode="&#xc9;" horiz-adv-x="482" 
d="M398 204c0 -200 74 -193 74 -193v-11h-455v9c64 0 67 28 67 145v392c0 117 -3 145 -67 145v9h444v-11s-74 7 -74 -193h-11l1 195h-146c-59 0 -62 -31 -62 -145v-190h14c74 0 75 45 74 317h12c0 -272 1 -317 74 -317v-12c-73 0 -73 -114 -74 -317h-12c1 203 0 317 -74 317
h-14v-190c0 -117 4 -145 66 -145h153l-1 195h11zM282 869l33 -40c-92 -20 -92 -61 -141 -61l-6 9z" />
    <glyph glyph-name="Ecircumflex" unicode="&#xca;" horiz-adv-x="482" 
d="M398 204c0 -200 74 -193 74 -193v-11h-455v9c64 0 67 28 67 145v392c0 117 -3 145 -67 145v9h444v-11s-74 7 -74 -193h-11l1 195h-146c-59 0 -62 -31 -62 -145v-190h14c74 0 75 45 74 317h12c0 -272 1 -317 74 -317v-12c-73 0 -73 -114 -74 -317h-12c1 203 0 317 -74 317
h-14v-190c0 -117 4 -145 66 -145h153l-1 195h11zM241 849l98 -83l-39 -29l-59 95l-59 -95l-39 29z" />
    <glyph glyph-name="Edieresis" unicode="&#xcb;" horiz-adv-x="482" 
d="M398 204c0 -200 74 -193 74 -193v-11h-455v9c64 0 67 28 67 145v392c0 117 -3 145 -67 145v9h444v-11s-74 7 -74 -193h-11l1 195h-146c-59 0 -62 -31 -62 -145v-190h14c74 0 75 45 74 317h12c0 -272 1 -317 74 -317v-12c-73 0 -73 -114 -74 -317h-12c1 203 0 317 -74 317
h-14v-190c0 -117 4 -145 66 -145h153l-1 195h11zM173 853c24 0 43 -20 43 -44s-19 -43 -43 -43s-44 19 -44 43s20 44 44 44zM310 853c24 0 44 -20 44 -44s-20 -43 -44 -43s-43 19 -43 43s19 44 43 44z" />
    <glyph glyph-name="Igrave" unicode="&#xcc;" horiz-adv-x="253" 
d="M236 474c-64 0 -67 -28 -67 -145v-175c0 -117 3 -145 67 -145v-9h-219v9c64 0 67 28 67 145v175c0 117 -3 145 -67 145v9h219v-9zM234 507v-11h-217v11c74 0 105 39 104 193h12c1 -153 29 -193 101 -193zM86 869l114 -92l-6 -9c-49 0 -49 41 -141 61z" />
    <glyph glyph-name="Iacute" unicode="&#xcd;" horiz-adv-x="253" 
d="M236 474c-64 0 -67 -28 -67 -145v-175c0 -117 3 -145 67 -145v-9h-219v9c64 0 67 28 67 145v175c0 117 -3 145 -67 145v9h219v-9zM234 507v-11h-217v11c74 0 105 39 104 193h12c1 -153 29 -193 101 -193zM167 869l33 -40c-92 -20 -92 -61 -141 -61l-6 9z" />
    <glyph glyph-name="Icircumflex" unicode="&#xce;" horiz-adv-x="253" 
d="M236 474c-64 0 -67 -28 -67 -145v-175c0 -117 3 -145 67 -145v-9h-219v9c64 0 67 28 67 145v175c0 117 -3 145 -67 145v9h219v-9zM234 507v-11h-217v11c74 0 105 39 104 193h12c1 -153 29 -193 101 -193zM126 849l98 -83l-39 -29l-59 95l-59 -95l-39 29z" />
    <glyph glyph-name="Idieresis" unicode="&#xcf;" horiz-adv-x="253" 
d="M236 474c-64 0 -67 -28 -67 -145v-175c0 -117 3 -145 67 -145v-9h-219v9c64 0 67 28 67 145v175c0 117 -3 145 -67 145v9h219v-9zM234 507v-11h-217v11c74 0 105 39 104 193h12c1 -153 29 -193 101 -193zM58 853c24 0 43 -20 43 -44s-19 -43 -43 -43s-44 19 -44 43
s20 44 44 44zM195 853c24 0 44 -20 44 -44s-20 -43 -44 -43s-43 19 -43 43s19 44 43 44z" />
    <glyph glyph-name="Eth" unicode="&#xd0;" horiz-adv-x="537" 
d="M222 700c77 0 285 -88 284 -464c-1 -225 -152 -236 -243 -236h-246v9c64 0 67 28 67 145v178c-22 -4 -44 -11 -66 -11h-80v57h81c24 0 44 -7 65 -11v179c0 117 -3 145 -67 145v9h205zM277 641c-1 -272 0 -286 74 -286v-11c-74 0 -75 -14 -74 -284h-12
c-1 161 -1 231 -17 261h-56c-8 0 -15 1 -23 2v-169c0 -117 2 -145 67 -145h32c122 0 148 113 148 234c0 183 -64 447 -198 447c-45 0 -49 -32 -49 -144v-170c7 1 15 2 22 2h57c16 31 17 101 17 263h12z" />
    <glyph glyph-name="Ntilde" unicode="&#xd1;" horiz-adv-x="535" 
d="M517 691c-64 0 -66 -28 -66 -145v-392c0 -117 2 -145 66 -145v-9h-159v3c-2 268 -2 340 -71 341l-63 1l-69 201c-16 47 -28 80 -40 102c-5 -22 -5 -55 -5 -102v-392c0 -117 2 -145 66 -145v-9h-159v9c64 0 67 28 67 145v392c0 117 -3 145 -67 145v9h237l3 -9
c-64 0 -56 -28 -16 -145l64 -188c51 15 53 95 53 337v5h159v-9zM370 857c3 -29 3 -77 -40 -77c-50 0 -54 35 -100 35c-27 0 -58 -13 -66 -45c5 46 12 78 54 78c19 0 53 -14 71 -14c15 0 74 -3 81 23zM424 154v188c-54 -12 -55 -92 -55 -333c53 4 55 35 55 145zM424 357v189
c0 110 -2 141 -55 145c0 -243 1 -321 55 -334z" />
    <glyph glyph-name="Ograve" unicode="&#xd2;" horiz-adv-x="544" 
d="M272 700c129 0 233 -26 233 -350s-104 -350 -233 -350s-234 24 -234 350s105 350 234 350zM272 10c81 0 146 25 147 334h-69c-74 0 -75 -14 -74 -284h-12c-1 270 -1 284 -74 284c0 1 -41 1 -66 0c1 -311 67 -334 148 -334zM350 355h69c-1 310 -66 335 -147 335
s-147 -24 -148 -335h66c73 0 74 15 74 286h12c-1 -272 0 -286 74 -286zM232 869l114 -92l-6 -9c-49 0 -49 41 -141 61z" />
    <glyph glyph-name="Oacute" unicode="&#xd3;" horiz-adv-x="544" 
d="M272 700c129 0 233 -26 233 -350s-104 -350 -233 -350s-234 24 -234 350s105 350 234 350zM272 10c81 0 146 25 147 334h-69c-74 0 -75 -14 -74 -284h-12c-1 270 -1 284 -74 284c0 1 -41 1 -66 0c1 -311 67 -334 148 -334zM350 355h69c-1 310 -66 335 -147 335
s-147 -24 -148 -335h66c73 0 74 15 74 286h12c-1 -272 0 -286 74 -286zM313 869l33 -40c-92 -20 -92 -61 -141 -61l-6 9z" />
    <glyph glyph-name="Ocircumflex" unicode="&#xd4;" horiz-adv-x="544" 
d="M272 700c129 0 233 -26 233 -350s-104 -350 -233 -350s-234 24 -234 350s105 350 234 350zM272 10c81 0 146 25 147 334h-69c-74 0 -75 -14 -74 -284h-12c-1 270 -1 284 -74 284c0 1 -41 1 -66 0c1 -311 67 -334 148 -334zM350 355h69c-1 310 -66 335 -147 335
s-147 -24 -148 -335h66c73 0 74 15 74 286h12c-1 -272 0 -286 74 -286zM272 849l98 -83l-39 -29l-59 95l-59 -95l-39 29z" />
    <glyph glyph-name="Otilde" unicode="&#xd5;" horiz-adv-x="544" 
d="M272 700c129 0 233 -26 233 -350s-104 -350 -233 -350s-234 24 -234 350s105 350 234 350zM374 857c3 -29 3 -77 -40 -77c-50 0 -54 35 -100 35c-27 0 -58 -13 -66 -45c5 46 12 78 54 78c19 0 53 -14 71 -14c15 0 74 -3 81 23zM272 10c81 0 146 25 147 334h-69
c-74 0 -75 -14 -74 -284h-12c-1 270 -1 284 -74 284c0 1 -41 1 -66 0c1 -311 67 -334 148 -334zM350 355h69c-1 310 -66 335 -147 335s-147 -24 -148 -335h66c73 0 74 15 74 286h12c-1 -272 0 -286 74 -286z" />
    <glyph glyph-name="Odieresis" unicode="&#xd6;" horiz-adv-x="544" 
d="M272 700c129 0 233 -26 233 -350s-104 -350 -233 -350s-234 24 -234 350s105 350 234 350zM272 10c81 0 146 25 147 334h-69c-74 0 -75 -14 -74 -284h-12c-1 270 -1 284 -74 284c0 1 -41 1 -66 0c1 -311 67 -334 148 -334zM350 355h69c-1 310 -66 335 -147 335
s-147 -24 -148 -335h66c73 0 74 15 74 286h12c-1 -272 0 -286 74 -286zM204 853c24 0 43 -20 43 -44s-19 -43 -43 -43s-44 19 -44 43s20 44 44 44zM341 853c24 0 44 -20 44 -44s-20 -43 -44 -43s-43 19 -43 43s19 44 43 44z" />
    <glyph glyph-name="multiply" unicode="&#xd7;" horiz-adv-x="355" 
d="M202 351c18 -14 40 -24 57 -41l57 -57l-41 -40l-56 56c-17 17 -27 39 -42 58c-14 -19 -24 -41 -40 -57l-57 -57l-41 40l56 57c17 16 39 26 58 41c-19 14 -41 25 -57 41l-57 57l41 40l57 -57c18 -18 27 -38 40 -56c14 18 25 40 41 56l57 57l41 -40l-57 -58
c-18 -17 -39 -27 -57 -40z" />
    <glyph glyph-name="Oslash" unicode="&#xd8;" horiz-adv-x="544" 
d="M537 798c-64 0 -83 -52 -118 -129c0 -1 -1 -2 -1 -4c53 -41 87 -129 87 -315c0 -324 -104 -350 -233 -350c-41 0 -79 2 -112 16c-17 -90 -43 -115 18 -115l-3 -8h-164l3 8c64 0 57 27 118 129h1c-58 39 -95 126 -95 320c0 326 105 351 234 351c44 0 86 -4 121 -21
c31 73 42 118 -19 118l3 7h164zM272 690c-81 0 -147 -24 -148 -335c27 0 67 0 67 1c72 0 74 14 74 285h11c0 -135 0 -206 9 -244c38 100 74 193 91 240c-26 46 -63 53 -104 53zM157 81c25 55 60 141 95 231c-10 29 -28 32 -61 32c0 1 -41 1 -67 1c1 -134 13 -215 33 -264z
M272 10c81 0 146 25 147 334h-69c-74 0 -75 -14 -74 -284h-11c-1 119 -2 189 -8 229c-39 -94 -73 -182 -87 -231c26 -43 62 -48 102 -48zM419 356c0 121 -11 199 -28 248c-24 -55 -61 -140 -98 -228c11 -18 28 -20 57 -20h69z" />
    <glyph glyph-name="Ugrave" unicode="&#xd9;" horiz-adv-x="537" 
d="M13 700h516v-9c-86 0 -87 33 -87 -486c0 -152 -44 -205 -136 -205c-162 0 -227 29 -227 191v355c0 117 -2 145 -66 145v9zM310 19c94 0 119 70 119 185c0 459 -6 487 -59 487c-45 0 -64 -28 -66 -313c0 -68 0 -136 74 -136h31l-1 -11h-30c-74 0 -74 -65 -74 -146h-12
c0 81 0 146 -74 146h-30l-1 11h31c66 0 73 70 74 136c0 284 -8 313 -66 313s-61 -32 -61 -145v-355c0 -163 43 -172 145 -172zM228 869l114 -92l-6 -9c-49 0 -49 41 -141 61z" />
    <glyph glyph-name="Uacute" unicode="&#xda;" horiz-adv-x="537" 
d="M13 700h516v-9c-86 0 -87 33 -87 -486c0 -152 -44 -205 -136 -205c-162 0 -227 29 -227 191v355c0 117 -2 145 -66 145v9zM310 19c94 0 119 70 119 185c0 459 -6 487 -59 487c-45 0 -64 -28 -66 -313c0 -68 0 -136 74 -136h31l-1 -11h-30c-74 0 -74 -65 -74 -146h-12
c0 81 0 146 -74 146h-30l-1 11h31c66 0 73 70 74 136c0 284 -8 313 -66 313s-61 -32 -61 -145v-355c0 -163 43 -172 145 -172zM309 869l33 -40c-92 -20 -92 -61 -141 -61l-6 9z" />
    <glyph glyph-name="Ucircumflex" unicode="&#xdb;" horiz-adv-x="537" 
d="M13 700h516v-9c-86 0 -87 33 -87 -486c0 -152 -44 -205 -136 -205c-162 0 -227 29 -227 191v355c0 117 -2 145 -66 145v9zM310 19c94 0 119 70 119 185c0 459 -6 487 -59 487c-45 0 -64 -28 -66 -313c0 -68 0 -136 74 -136h31l-1 -11h-30c-74 0 -74 -65 -74 -146h-12
c0 81 0 146 -74 146h-30l-1 11h31c66 0 73 70 74 136c0 284 -8 313 -66 313s-61 -32 -61 -145v-355c0 -163 43 -172 145 -172zM269 849l98 -83l-39 -29l-59 95l-59 -95l-39 29z" />
    <glyph glyph-name="Udieresis" unicode="&#xdc;" horiz-adv-x="537" 
d="M13 700h516v-9c-86 0 -87 33 -87 -486c0 -152 -44 -205 -136 -205c-162 0 -227 29 -227 191v355c0 117 -2 145 -66 145v9zM310 19c94 0 119 70 119 185c0 459 -6 487 -59 487c-45 0 -64 -28 -66 -313c0 -68 0 -136 74 -136h31l-1 -11h-30c-74 0 -74 -65 -74 -146h-12
c0 81 0 146 -74 146h-30l-1 11h31c66 0 73 70 74 136c0 284 -8 313 -66 313s-61 -32 -61 -145v-355c0 -163 43 -172 145 -172zM200 853c24 0 43 -20 43 -44s-19 -43 -43 -43s-44 19 -44 43s20 44 44 44zM337 853c24 0 44 -20 44 -44s-20 -43 -44 -43s-43 19 -43 43
s19 44 43 44z" />
    <glyph glyph-name="Yacute" unicode="&#xdd;" horiz-adv-x="574" 
d="M-8 700h590l-5 -9c-64 0 -81 -28 -143 -145l-104 -194v-198c0 -117 3 -145 67 -145v-9h-219v9c64 0 67 28 67 145v195l-105 197c-62 117 -79 145 -143 145zM217 563l94 -177c0 129 -2 177 -79 177h-15zM225 574c82 0 86 41 86 117h-101c-58 0 -48 -23 1 -117h14zM322 380
l94 183h-20c-73 0 -74 -49 -74 -183zM422 574c49 94 67 117 9 117h-109c0 -76 3 -117 74 -117h26zM328 869l33 -40c-92 -20 -92 -61 -141 -61l-6 9z" />
    <glyph glyph-name="Thorn" unicode="&#xde;" horiz-adv-x="483" 
d="M459 430c1 -267 -179 -329 -245 -329h-44c2 -73 13 -92 66 -92v-9h-219v9c64 0 67 28 67 145v392c0 118 -3 146 -67 146v8h219v-8c-54 0 -64 -20 -66 -94h79c79 0 209 -8 210 -168zM170 113h40c116 0 171 182 171 312c0 86 -22 159 -127 159h-84c-1 -11 -1 -24 -1 -38
v-392c0 -15 0 -29 1 -41zM346 347c-74 0 -74 -8 -74 -168h-11c-2 160 -2 168 -74 168v7c72 0 74 8 74 169h11c0 -161 0 -169 74 -169v-7z" />
    <glyph glyph-name="germandbls" unicode="&#xdf;" horiz-adv-x="492" 
d="M260 399c98 -20 212 -87 212 -260c0 -109 -106 -134 -194 -140h-82v9h68c88 0 118 74 118 135c0 93 -47 249 -156 249c-29 0 -38 -40 -38 -183c0 -53 1 -236 0 -350h-11c0 72 1 278 1 350c0 154 -13 185 -43 185v-535h-152v9c64 0 67 28 67 145v434
c0 253 120 253 139 253c72 0 197 -38 197 -194c0 -76 -64 -102 -126 -107zM188 542c1 -104 0 -134 45 -134c54 0 94 42 94 96c0 75 -43 185 -136 185c-54 0 -56 -35 -56 -145v-137c31 2 43 20 43 134c0 49 -1 11 -1 116h11v-115z" />
    <glyph glyph-name="agrave" unicode="&#xe0;" horiz-adv-x="567" 
d="M568 9l3 -9h-219l-2 9c64 0 59 28 31 145l-10 41h-30c-72 0 -80 -27 -81 -171h-12c1 147 -4 171 -78 171h-34l-10 -41c-28 -117 -33 -145 31 -145l-2 -9h-159l2 9c64 0 73 28 102 145c21 88 96 392 96 392c28 117 33 145 -31 145l2 9h233l2 -9c-64 0 -60 -28 -31 -145
c0 0 74 -304 96 -392c28 -117 37 -145 101 -145zM174 206c72 0 74 26 74 435c-8 -22 -16 -53 -26 -95l-83 -340h35zM338 206h30l-83 340c-10 40 -17 69 -25 90c0 -403 8 -430 78 -430zM243 869l114 -92l-6 -9c-49 0 -49 41 -141 61z" />
    <glyph glyph-name="aacute" unicode="&#xe1;" horiz-adv-x="567" 
d="M568 9l3 -9h-219l-2 9c64 0 59 28 31 145l-10 41h-30c-72 0 -80 -27 -81 -171h-12c1 147 -4 171 -78 171h-34l-10 -41c-28 -117 -33 -145 31 -145l-2 -9h-159l2 9c64 0 73 28 102 145c21 88 96 392 96 392c28 117 33 145 -31 145l2 9h233l2 -9c-64 0 -60 -28 -31 -145
c0 0 74 -304 96 -392c28 -117 37 -145 101 -145zM174 206c72 0 74 26 74 435c-8 -22 -16 -53 -26 -95l-83 -340h35zM338 206h30l-83 340c-10 40 -17 69 -25 90c0 -403 8 -430 78 -430zM324 869l33 -40c-92 -20 -92 -61 -141 -61l-6 9z" />
    <glyph glyph-name="acircumflex" unicode="&#xe2;" horiz-adv-x="567" 
d="M568 9l3 -9h-219l-2 9c64 0 59 28 31 145l-10 41h-30c-72 0 -80 -27 -81 -171h-12c1 147 -4 171 -78 171h-34l-10 -41c-28 -117 -33 -145 31 -145l-2 -9h-159l2 9c64 0 73 28 102 145c21 88 96 392 96 392c28 117 33 145 -31 145l2 9h233l2 -9c-64 0 -60 -28 -31 -145
c0 0 74 -304 96 -392c28 -117 37 -145 101 -145zM174 206c72 0 74 26 74 435c-8 -22 -16 -53 -26 -95l-83 -340h35zM338 206h30l-83 340c-10 40 -17 69 -25 90c0 -403 8 -430 78 -430zM284 849l98 -83l-39 -29l-59 95l-59 -95l-39 29z" />
    <glyph glyph-name="atilde" unicode="&#xe3;" horiz-adv-x="567" 
d="M568 9l3 -9h-219l-2 9c64 0 59 28 31 145l-10 41h-30c-72 0 -80 -27 -81 -171h-12c1 147 -4 171 -78 171h-34l-10 -41c-28 -117 -33 -145 31 -145l-2 -9h-159l2 9c64 0 73 28 102 145c21 88 96 392 96 392c28 117 33 145 -31 145l2 9h233l2 -9c-64 0 -60 -28 -31 -145
c0 0 74 -304 96 -392c28 -117 37 -145 101 -145zM386 857c3 -29 3 -77 -40 -77c-50 0 -54 35 -100 35c-27 0 -58 -13 -66 -45c5 46 12 78 54 78c19 0 53 -14 71 -14c15 0 74 -3 81 23zM174 206c72 0 74 26 74 435c-8 -22 -16 -53 -26 -95l-83 -340h35zM338 206h30l-83 340
c-10 40 -17 69 -25 90c0 -403 8 -430 78 -430z" />
    <glyph glyph-name="adieresis" unicode="&#xe4;" horiz-adv-x="567" 
d="M568 9l3 -9h-219l-2 9c64 0 59 28 31 145l-10 41h-30c-72 0 -80 -27 -81 -171h-12c1 147 -4 171 -78 171h-34l-10 -41c-28 -117 -33 -145 31 -145l-2 -9h-159l2 9c64 0 73 28 102 145c21 88 96 392 96 392c28 117 33 145 -31 145l2 9h233l2 -9c-64 0 -60 -28 -31 -145
c0 0 74 -304 96 -392c28 -117 37 -145 101 -145zM174 206c72 0 74 26 74 435c-8 -22 -16 -53 -26 -95l-83 -340h35zM338 206h30l-83 340c-10 40 -17 69 -25 90c0 -403 8 -430 78 -430zM215 853c24 0 43 -20 43 -44s-19 -43 -43 -43s-44 19 -44 43s20 44 44 44zM352 853
c24 0 44 -20 44 -44s-20 -43 -44 -43s-43 19 -43 43s19 44 43 44z" />
    <glyph glyph-name="aring" unicode="&#xe5;" horiz-adv-x="567" 
d="M568 9l3 -9h-219l-2 9c64 0 59 28 31 145l-10 41h-30c-72 0 -80 -27 -81 -171h-12c1 147 -4 171 -78 171h-34l-10 -41c-28 -117 -33 -145 31 -145l-2 -9h-159l2 9c64 0 73 28 102 145c21 88 96 392 96 392c28 117 33 145 -31 145l2 9h233l2 -9c-64 0 -60 -28 -31 -145
c0 0 74 -304 96 -392c28 -117 37 -145 101 -145zM174 206c72 0 74 26 74 435c-8 -22 -16 -53 -26 -95l-83 -340h35zM338 206h30l-83 340c-10 40 -17 69 -25 90c0 -403 8 -430 78 -430zM284 848c45 0 81 -28 81 -63s-36 -63 -81 -63s-82 28 -82 63s37 63 82 63zM284 735
c30 0 54 23 54 52c0 28 -24 51 -54 51c-31 0 -55 -23 -55 -51c0 -29 24 -52 55 -52z" />
    <glyph glyph-name="ae" unicode="&#xe6;" horiz-adv-x="651" 
d="M566 204c0 -200 74 -193 74 -193v-11h-455v9c40 0 56 10 62 46c0 120 -10 140 -78 140h-34l-10 -41c-28 -117 -33 -145 31 -145l-2 -9h-159l2 9c64 0 73 28 102 145c21 88 96 392 96 392c28 117 33 145 -31 145l2 9h463v-11s-74 7 -74 -193h-11l1 195h-145
c-60 0 -62 -31 -62 -145v-190h14c73 0 74 45 74 317h11c0 -272 2 -317 74 -317v-12c-72 0 -73 -114 -74 -317h-11c0 203 -1 317 -74 317h-14v-190c0 -117 3 -145 66 -145h152l-1 195h11zM173 206c72 0 74 26 74 435c-8 -22 -16 -53 -26 -95l-83 -340h35z" />
    <glyph glyph-name="ccedilla" unicode="&#xe7;" 
d="M293 -26c67 -22 100 -59 100 -101c0 -46 -35 -63 -83 -63c-29 0 -47 12 -54 23h-27v4s27 -10 27 64l21 -1c27 0 29 16 29 43h4c0 -28 1 -43 27 -43h19c-12 36 -33 55 -78 69l6 38c-107 22 -254 108 -254 410c0 205 129 283 262 283c77 0 126 -32 147 -62h72v-11
s-74 6 -74 -193h-11l1 103c0 89 -60 152 -131 152c-143 0 -176 -148 -176 -263c0 -223 67 -362 167 -404l2 15h31l-10 -23c14 -3 29 -5 44 -5h19l-1 194h11c0 -199 74 -193 74 -193v-10h-102c-14 0 -31 1 -49 3zM384 344c-73 0 -74 -14 -74 -285h-11c-2 271 -2 285 -74 285
v11c72 0 74 14 74 286h11c0 -272 1 -286 74 -286v-11zM310 -186c33 1 50 22 50 61c0 8 -1 15 -3 21h-20c-26 0 -27 -22 -27 -82zM260 -131c1 -31 21 -54 46 -55c0 59 -3 82 -29 82h-17v-27z" />
    <glyph glyph-name="egrave" unicode="&#xe8;" horiz-adv-x="482" 
d="M398 204c0 -200 74 -193 74 -193v-11h-455v9c64 0 67 28 67 145v392c0 117 -3 145 -67 145v9h444v-11s-74 7 -74 -193h-11l1 195h-146c-59 0 -62 -31 -62 -145v-190h14c74 0 75 45 74 317h12c0 -272 1 -317 74 -317v-12c-73 0 -73 -114 -74 -317h-12c1 203 0 317 -74 317
h-14v-190c0 -117 4 -145 66 -145h153l-1 195h11zM201 869l114 -92l-6 -9c-49 0 -49 41 -141 61z" />
    <glyph glyph-name="eacute" unicode="&#xe9;" horiz-adv-x="482" 
d="M398 204c0 -200 74 -193 74 -193v-11h-455v9c64 0 67 28 67 145v392c0 117 -3 145 -67 145v9h444v-11s-74 7 -74 -193h-11l1 195h-146c-59 0 -62 -31 -62 -145v-190h14c74 0 75 45 74 317h12c0 -272 1 -317 74 -317v-12c-73 0 -73 -114 -74 -317h-12c1 203 0 317 -74 317
h-14v-190c0 -117 4 -145 66 -145h153l-1 195h11zM282 869l33 -40c-92 -20 -92 -61 -141 -61l-6 9z" />
    <glyph glyph-name="ecircumflex" unicode="&#xea;" horiz-adv-x="482" 
d="M398 204c0 -200 74 -193 74 -193v-11h-455v9c64 0 67 28 67 145v392c0 117 -3 145 -67 145v9h444v-11s-74 7 -74 -193h-11l1 195h-146c-59 0 -62 -31 -62 -145v-190h14c74 0 75 45 74 317h12c0 -272 1 -317 74 -317v-12c-73 0 -73 -114 -74 -317h-12c1 203 0 317 -74 317
h-14v-190c0 -117 4 -145 66 -145h153l-1 195h11zM241 849l98 -83l-39 -29l-59 95l-59 -95l-39 29z" />
    </font>
</defs>
</svg>
